<svg xmlns="http://www.w3.org/2000/svg" id="obstacle-root" viewBox="0 0 120 150">
  <g id="obstacle-main">
    
    <g>
      <path d="M38 45 Q15 30 8 20 Q5 25 10 40 Q12 50 20 58 Q28 65 38 68 Z" fill="#f5f0e0" opacity="0.9" />
      <path d="M38 48 Q18 35 12 28 Q10 33 14 44 Q18 52 25 58 Q30 62 38 65 Z" fill="#faf6eb" />
      <path d="M38 50 Q22 40 16 34 Q15 38 18 46 Q22 53 28 57 Q32 60 38 62 Z" fill="#ffffff" />
      
      <path d="M8 20 Q6 22 10 25 L12 23 Z" fill="#d4a843" opacity="0.6" />
      <path d="M12 28 Q10 30 14 33 L15 31 Z" fill="#d4a843" opacity="0.5" />
      <path d="M16 34 Q14 36 18 39 L19 37 Z" fill="#d4a843" opacity="0.4" />
    </g>

    
    <g>
      <path d="M82 45 Q105 30 112 20 Q115 25 110 40 Q108 50 100 58 Q92 65 82 68 Z" fill="#f5f0e0" opacity="0.9" />
      <path d="M82 48 Q102 35 108 28 Q110 33 106 44 Q102 52 95 58 Q90 62 82 65 Z" fill="#faf6eb" />
      <path d="M82 50 Q98 40 104 34 Q105 38 102 46 Q98 53 92 57 Q88 60 82 62 Z" fill="#ffffff" />
      
      <path d="M112 20 Q114 22 110 25 L108 23 Z" fill="#d4a843" opacity="0.6" />
      <path d="M108 28 Q110 30 106 33 L105 31 Z" fill="#d4a843" opacity="0.5" />
      <path d="M104 34 Q106 36 102 39 L101 37 Z" fill="#d4a843" opacity="0.4" />
    </g>

    
    <path d="M35 42 Q10 18 5 10 Q2 15 6 28 Q8 35 15 45 Q22 52 35 55 Z" fill="#ede6d3" opacity="0.7" />
    <path d="M35 40 Q12 15 7 8 Q4 12 8 26 Q11 34 18 43 Q24 50 35 52 Z" fill="#f8f4e8" opacity="0.5" />

    
    <path d="M85 42 Q110 18 115 10 Q118 15 114 28 Q112 35 105 45 Q98 52 85 55 Z" fill="#ede6d3" opacity="0.7" />
    <path d="M85 40 Q108 15 113 8 Q116 12 112 26 Q109 34 102 43 Q96 50 85 52 Z" fill="#f8f4e8" opacity="0.5" />

    
    <path d="M42 95 Q38 110 35 130 Q37 138 45 142 Q55 146 60 147 Q65 146 75 142 Q83 138 85 130 Q82 110 78 95 Z" fill="#f0ead8" />
    
    <path d="M35 130 Q37 138 45 142 Q55 146 60 147 Q65 146 75 142 Q83 138 85 130 Q82 132 75 136 Q65 140 60 141 Q55 140 45 136 Q38 132 35 130 Z" fill="#c9a030" opacity="0.7" />
    
    <path d="M50 100 Q48 115 47 130 Q48 132 50 130 Q51 115 52 100 Z" fill="#e8e0c8" opacity="0.5" />
    <path d="M65 100 Q67 115 68 130 Q69 132 70 130 Q69 115 68 100 Z" fill="#e8e0c8" opacity="0.5" />
    <path d="M55 98 Q54 118 53 138 Q55 140 56 138 Q56 118 56 98 Z" fill="#ddd5be" opacity="0.4" />

    
    <path d="M44 60 Q42 70 42 80 Q42 90 42 95 L78 95 Q78 90 78 80 Q78 70 76 60 Q72 55 60 54 Q48 55 44 60 Z" fill="#faf8f0" />
    
    <path d="M50 60 Q49 70 49 80 Q49 88 50 95 L53 95 Q52 88 52 80 Q52 70 52 60 Z" fill="#ede8d8" opacity="0.5" />
    <path d="M67 60 Q68 70 68 80 Q68 88 68 95 L71 95 Q70 88 70 80 Q70 70 69 60 Z" fill="#ede8d8" opacity="0.5" />
    
    <path d="M48 58 Q54 54 60 53 Q66 54 72 58 Q66 56 60 55 Q54 56 48 58 Z" fill="#c9a030" opacity="0.6" />

    
    <g>
      <path d="M44 52 Q30 42 22 38 Q20 42 24 50 Q28 56 34 60 Q38 62 44 62 Z" fill="#ffffff" />
      <path d="M44 54 Q33 46 27 42 Q26 45 28 50 Q31 55 36 58 Q40 60 44 60 Z" fill="#faf6eb" />
      <path d="M22 38 Q21 39 23 41 L25 40 Z" fill="#d4a843" opacity="0.5" />
    </g>

    
    <g>
      <path d="M76 52 Q90 42 98 38 Q100 42 96 50 Q92 56 86 60 Q82 62 76 62 Z" fill="#ffffff" />
      <path d="M76 54 Q87 46 93 42 Q94 45 92 50 Q89 55 84 58 Q80 60 76 60 Z" fill="#faf6eb" />
      <path d="M98 38 Q99 39 97 41 L95 40 Z" fill="#d4a843" opacity="0.5" />
    </g>

    
    
    <path d="M44 65 Q40 70 42 78 Q44 82 48 84 Q52 85 54 82 Q55 78 53 72 Q51 67 48 65 Z" fill="#f5f2e8" />
    <path d="M44 66 Q41 71 43 77 Q44 80 47 82 L48 80 Q45 78 44 74 Q43 70 45 66 Z" fill="#d4a843" opacity="0.3" />
    
    <ellipse cx="50" cy="83" rx="4" ry="3" fill="#f5dcc0" />

    
    <path d="M76 65 Q80 70 78 78 Q76 82 72 84 Q68 85 66 82 Q65 78 67 72 Q69 67 72 65 Z" fill="#f5f2e8" />
    <path d="M76 66 Q79 71 77 77 Q76 80 73 82 L72 80 Q75 78 76 74 Q77 70 75 66 Z" fill="#d4a843" opacity="0.3" />
    
    <ellipse cx="70" cy="83" rx="4" ry="3" fill="#f5dcc0" />

    
    <ellipse cx="60" cy="83" rx="6" ry="3.5" fill="#f5dcc0" />
    <path d="M55 82 Q60 80 65 82 Q60 81 55 82 Z" fill="#e8c8a0" opacity="0.4" />

    
    <rect x="56" y="44" width="8" height="10" rx="3" fill="#f5dcc0" />
    <path d="M57 44 Q60 43 63 44 L63 46 Q60 45 57 46 Z" fill="#e8c8a0" opacity="0.3" />

    
    <path d="M45 28 Q42 35 40 48 Q42 55 45 58 Q48 52 48 42 Q47 34 45 28 Z" fill="#f0e8c8" />
    <path d="M75 28 Q78 35 80 48 Q78 55 75 58 Q72 52 72 42 Q73 34 75 28 Z" fill="#f0e8c8" />
    
    <path d="M43 40 Q41 50 42 58 Q43 55 44 50 Q44 44 43 40 Z" fill="#e8ddb8" opacity="0.6" />
    <path d="M77 40 Q79 50 78 58 Q77 55 76 50 Q76 44 77 40 Z" fill="#e8ddb8" opacity="0.6" />

    
    <ellipse cx="60" cy="36" rx="12" ry="14" fill="#f5dcc0" />

    
    <path d="M48 30 Q50 20 60 18 Q70 20 72 30 Q70 24 60 22 Q50 24 48 30 Z" fill="#f0e8c8" />
    <path d="M48 30 Q47 34 47 38 Q48 35 49 32 Q50 28 52 25 Q55 22 60 21 Q65 22 68 25 Q70 28 71 32 Q72 35 73 38 Q73 34 72 30 Q70 24 60 22 Q50 24 48 30 Z" fill="#ede0b8" />
    
    <path d="M48 32 Q46 38 46 44 Q47 42 48 38 Q48 35 48 32 Z" fill="#e8d8a8" opacity="0.7" />
    <path d="M72 32 Q74 38 74 44 Q73 42 72 38 Q72 35 72 32 Z" fill="#e8d8a8" opacity="0.7" />

    
    
    <ellipse cx="55" cy="35" rx="2.5" ry="2" fill="#ffffff" />
    <ellipse cx="65" cy="35" rx="2.5" ry="2" fill="#ffffff" />
    <ellipse cx="55.5" cy="35.2" rx="1.3" ry="1.5" fill="#6b8caa" />
    <ellipse cx="65.5" cy="35.2" rx="1.3" ry="1.5" fill="#6b8caa" />
    <ellipse cx="55.7" cy="35" rx="0.6" ry="0.7" fill="#2a3a4a" />
    <ellipse cx="65.7" cy="35" rx="0.6" ry="0.7" fill="#2a3a4a" />
    
    <ellipse cx="56.2" cy="34.5" rx="0.3" ry="0.3" fill="#ffffff" />
    <ellipse cx="66.2" cy="34.5" rx="0.3" ry="0.3" fill="#ffffff" />
    
    <path d="M52.5 34 Q55 32.5 57.5 34" fill="none" stroke="#c4a080" stroke-width="0.4" />
    <path d="M62.5 34 Q65 32.5 67.5 34" fill="none" stroke="#c4a080" stroke-width="0.4" />
    
    <path d="M52 32 Q55 30.5 58 32" fill="none" stroke="#d4b888" stroke-width="0.5" />
    <path d="M62 32 Q65 30.5 68 32" fill="none" stroke="#d4b888" stroke-width="0.5" />
    
    <path d="M60 36 Q59 39 60 40 Q61 39 60 36" fill="none" stroke="#d4b090" stroke-width="0.4" />
    
    <path d="M57 42 Q60 43.5 63 42" fill="none" stroke="#d4a090" stroke-width="0.5" />
    
    <path d="M57.5 42.2 Q60 43 62.5 42.2" fill="#e0b0a0" opacity="0.3" />
    
    <ellipse cx="53" cy="40" rx="2" ry="1" fill="#e8b0a0" opacity="0.2" />
    <ellipse cx="67" cy="40" rx="2" ry="1" fill="#e8b0a0" opacity="0.2" />

    
    <g id="obstacle-animated-part">
      <g transform="translate(60 18)">
        <g>
          <ellipse cx="0" cy="0" rx="14" ry="4" fill="none" stroke="#d4a030" stroke-width="2.5" opacity="0.85" />
          <ellipse cx="0" cy="0" rx="14" ry="4" fill="none" stroke="#f0d060" stroke-width="1" opacity="0.6" />
          <ellipse cx="0" cy="0" rx="12" ry="3.2" fill="none" stroke="#f8e888" stroke-width="0.5" opacity="0.5" />
          
          <circle cx="-14" cy="0" r="0.8" fill="#f8e888" opacity="0.7" />
          <circle cx="14" cy="0" r="0.8" fill="#f8e888" opacity="0.7" />
          <circle cx="0" cy="-4" r="0.6" fill="#f8e888" opacity="0.5" />
          <circle cx="0" cy="4" r="0.6" fill="#f8e888" opacity="0.5" />
          <animateTransform attributeName="transform" type="scale" values="1 1;1 0.2;1 -1;1 0.2;1 1" dur="12s" repeatCount="indefinite" />
        </g>
      </g>
    </g>

    
    <ellipse cx="60" cy="80" rx="30" ry="50" fill="#f8f0d0" opacity="0.08" />
  </g>
</svg>
