<svg xmlns="http://www.w3.org/2000/svg" id="obstacle-root" viewBox="0 0 120 150">
  <defs>
    <radialGradient id="balloonGrad" cx="0.4" cy="0.35" r="0.55" fx="0.35" fy="0.3">
      <stop offset="0%" stop-color="#FF6B35" />
      <stop offset="40%" stop-color="#FF4500" />
      <stop offset="75%" stop-color="#E03000" />
      <stop offset="100%" stop-color="#B02000" />
    </radialGradient>
    <radialGradient id="shadowGrad" cx="0.5" cy="0.6" r="0.5">
      <stop offset="0%" stop-color="#8B1500" stop-opacity="0.6" />
      <stop offset="100%" stop-color="#8B1500" stop-opacity="0" />
    </radialGradient>
  </defs>
  <g id="obstacle-main">
    
    <path d="M60 105 Q52 112 58 118 Q64 124 56 130 Q48 136 54 142 Q58 146 52 148" fill="none" stroke="#FFD700" stroke-width="2.2" stroke-linecap="round" />
    <path d="M60 105 Q68 112 62 118 Q56 124 64 130 Q72 136 66 142 Q62 146 68 148" fill="none" stroke="#FFEA00" stroke-width="1.8" stroke-linecap="round" />
    
    <path d="M60 105 Q55 110 60 115 Q65 120 58 126 Q51 132 58 138" fill="none" stroke="#FFC400" stroke-width="1.4" stroke-linecap="round" stroke-dasharray="3 2" />

    
    <ellipse cx="62" cy="57" rx="42" ry="44" fill="#8B1500" opacity="0.35" />

    
    <ellipse cx="60" cy="55" rx="42" ry="44" fill="url(#balloonGrad)" />

    
    <ellipse cx="60" cy="60" rx="38" ry="40" fill="url(#shadowGrad)" />

    
    <ellipse cx="48" cy="40" rx="18" ry="14" fill="#FF8C50" opacity="0.3" transform="rotate(-15 48 40)" />

    
    <path d="M92 40 Q100 55 95 72" fill="none" stroke="#FF9060" stroke-width="2" opacity="0.4" stroke-linecap="round" />

    
    <ellipse cx="70" cy="70" rx="8" ry="5" fill="#C02800" opacity="0.15" transform="rotate(20 70 70)" />
    <ellipse cx="42" cy="65" rx="6" ry="4" fill="#C02800" opacity="0.1" transform="rotate(-10 42 65)" />

    
    <path d="M56 97 Q58 100 60 103 Q62 100 64 97 Q62 96 60 98 Q58 96 56 97Z" fill="#C03000" />
    <ellipse cx="60" cy="99" rx="3.5" ry="2.5" fill="#A02500" />
    <ellipse cx="60" cy="98.5" rx="2" ry="1.2" fill="#D04020" opacity="0.5" />

    
    <g id="obstacle-animated-part">
      <ellipse cx="44" cy="36" rx="14" ry="10" fill="#FFFFFF" opacity="0.75" transform="rotate(-25 44 36)">
        <animate attributeName="opacity" values="0.5;1.0;0.5" dur="3s" repeatCount="indefinite" />
      </ellipse>
      
      <ellipse cx="38" cy="30" rx="5" ry="3.5" fill="#FFFFFF" opacity="0.9" transform="rotate(-25 38 30)">
        <animate attributeName="opacity" values="0.7;1.0;0.7" dur="3s" repeatCount="indefinite" />
      </ellipse>
    </g>
  </g>
</svg>