<svg xmlns="http://www.w3.org/2000/svg" id="obstacle-root" viewBox="0 0 120 150">
  <defs>
    <radialGradient id="wingGrad1" cx="50%" cy="50%" r="60%">
      <stop offset="0%" stop-color="#FF6B35" />
      <stop offset="50%" stop-color="#E63946" />
      <stop offset="100%" stop-color="#1D3557" />
    </radialGradient>
    <radialGradient id="wingGrad2" cx="50%" cy="50%" r="60%">
      <stop offset="0%" stop-color="#FFB703" />
      <stop offset="50%" stop-color="#FB8500" />
      <stop offset="100%" stop-color="#8338EC" />
    </radialGradient>
    <radialGradient id="eyeShine" cx="35%" cy="35%" r="50%">
      <stop offset="0%" stop-color="#FFFFFF" />
      <stop offset="100%" stop-color="#2B2D42" />
    </radialGradient>
    <radialGradient id="spotGrad" cx="50%" cy="50%" r="50%">
      <stop offset="0%" stop-color="#A8DADC" />
      <stop offset="70%" stop-color="#457B9D" />
      <stop offset="100%" stop-color="#1D3557" />
    </radialGradient>
  </defs>

  <g id="obstacle-main">
    
    <ellipse cx="60" cy="142" rx="28" ry="5" fill="#00000022" />

    
    <path d="M58 65 Q10 20 8 55 Q6 80 30 90 Q45 95 55 80 Z" fill="#0D1B2A" opacity="0.3" transform="translate(2,2)" />

    
    <path d="M62 65 Q110 20 112 55 Q114 80 90 90 Q75 95 65 80 Z" fill="#0D1B2A" opacity="0.3" transform="translate(2,2)" />

    
    <path d="M55 82 Q20 95 15 115 Q12 130 40 128 Q55 126 57 100 Z" fill="#0D1B2A" opacity="0.3" transform="translate(2,2)" />

    
    <path d="M65 82 Q100 95 105 115 Q108 130 80 128 Q65 126 63 100 Z" fill="#0D1B2A" opacity="0.3" transform="translate(2,2)" />

    <g id="obstacle-animated-part">
      <animateTransform attributeName="transform" type="rotate" values="-2 60 75;2 60 75;-2 60 75" dur="3s" repeatCount="indefinite" />

      
      <path d="M58 65 Q10 20 8 55 Q6 80 30 90 Q45 95 55 80 Z" fill="url(#wingGrad1)" />
      
      <path d="M54 68 Q22 35 18 58 Q16 74 34 83 Q44 87 52 78 Z" fill="#E63946" opacity="0.6" />
      
      <path d="M56 67 L20 45" stroke="#1D3557" stroke-width="0.5" fill="none" opacity="0.5" />
      <path d="M55 72 L15 65" stroke="#1D3557" stroke-width="0.5" fill="none" opacity="0.5" />
      <path d="M54 78 L25 88" stroke="#1D3557" stroke-width="0.5" fill="none" opacity="0.5" />
      
      <ellipse cx="28" cy="55" rx="6" ry="5" fill="url(#spotGrad)" />
      <ellipse cx="28" cy="55" rx="3" ry="2.5" fill="#A8DADC" />
      <ellipse cx="38" cy="72" rx="4" ry="3.5" fill="url(#spotGrad)" />
      <ellipse cx="38" cy="72" rx="2" ry="1.5" fill="#F1FAEE" />
      
      <circle cx="12" cy="50" r="1.5" fill="#FFB703" opacity="0.8" />
      <circle cx="10" cy="60" r="1.2" fill="#FFB703" opacity="0.7" />
      <circle cx="14" cy="70" r="1.3" fill="#FFB703" opacity="0.8" />
      <circle cx="22" cy="82" r="1.1" fill="#FFB703" opacity="0.7" />
      <circle cx="32" cy="88" r="1.4" fill="#FFB703" opacity="0.8" />

      
      <path d="M62 65 Q110 20 112 55 Q114 80 90 90 Q75 95 65 80 Z" fill="url(#wingGrad1)" />
      
      <path d="M66 68 Q98 35 102 58 Q104 74 86 83 Q76 87 68 78 Z" fill="#E63946" opacity="0.6" />
      
      <path d="M64 67 L100 45" stroke="#1D3557" stroke-width="0.5" fill="none" opacity="0.5" />
      <path d="M65 72 L105 65" stroke="#1D3557" stroke-width="0.5" fill="none" opacity="0.5" />
      <path d="M66 78 L95 88" stroke="#1D3557" stroke-width="0.5" fill="none" opacity="0.5" />
      
      <ellipse cx="92" cy="55" rx="6" ry="5" fill="url(#spotGrad)" />
      <ellipse cx="92" cy="55" rx="3" ry="2.5" fill="#A8DADC" />
      <ellipse cx="82" cy="72" rx="4" ry="3.5" fill="url(#spotGrad)" />
      <ellipse cx="82" cy="72" rx="2" ry="1.5" fill="#F1FAEE" />
      
      <circle cx="108" cy="50" r="1.5" fill="#FFB703" opacity="0.8" />
      <circle cx="110" cy="60" r="1.2" fill="#FFB703" opacity="0.7" />
      <circle cx="106" cy="70" r="1.3" fill="#FFB703" opacity="0.8" />
      <circle cx="98" cy="82" r="1.1" fill="#FFB703" opacity="0.7" />
      <circle cx="88" cy="88" r="1.4" fill="#FFB703" opacity="0.8" />

      
      <path d="M55 82 Q20 95 15 115 Q12 130 40 128 Q55 126 57 100 Z" fill="url(#wingGrad2)" />
      
      <path d="M54 86 Q28 97 24 112 Q22 122 40 121 Q52 120 54 100 Z" fill="#FB8500" opacity="0.5" />
      
      <path d="M55 85 L22 110" stroke="#8338EC" stroke-width="0.4" fill="none" opacity="0.5" />
      <path d="M54 92 L30 125" stroke="#8338EC" stroke-width="0.4" fill="none" opacity="0.5" />
      
      <ellipse cx="33" cy="110" rx="5" ry="4" fill="url(#spotGrad)" />
      <ellipse cx="33" cy="110" rx="2.5" ry="2" fill="#F1FAEE" />
      
      <circle cx="18" cy="118" r="1.2" fill="#FFB703" opacity="0.7" />
      <circle cx="25" cy="126" r="1.0" fill="#FFB703" opacity="0.7" />
      <circle cx="35" cy="128" r="1.1" fill="#FFB703" opacity="0.7" />

      
      <path d="M65 82 Q100 95 105 115 Q108 130 80 128 Q65 126 63 100 Z" fill="url(#wingGrad2)" />
      
      <path d="M66 86 Q92 97 96 112 Q98 122 80 121 Q68 120 66 100 Z" fill="#FB8500" opacity="0.5" />
      
      <path d="M65 85 L98 110" stroke="#8338EC" stroke-width="0.4" fill="none" opacity="0.5" />
      <path d="M66 92 L90 125" stroke="#8338EC" stroke-width="0.4" fill="none" opacity="0.5" />
      
      <ellipse cx="87" cy="110" rx="5" ry="4" fill="url(#spotGrad)" />
      <ellipse cx="87" cy="110" rx="2.5" ry="2" fill="#F1FAEE" />
      
      <circle cx="102" cy="118" r="1.2" fill="#FFB703" opacity="0.7" />
      <circle cx="95" cy="126" r="1.0" fill="#FFB703" opacity="0.7" />
      <circle cx="85" cy="128" r="1.1" fill="#FFB703" opacity="0.7" />

      
      <path d="M58 65 Q10 20 8 55 Q6 80 30 90 Q45 95 55 80 Z" fill="none" stroke="#2B2D42" stroke-width="0.8" />
      <path d="M62 65 Q110 20 112 55 Q114 80 90 90 Q75 95 65 80 Z" fill="none" stroke="#2B2D42" stroke-width="0.8" />
      <path d="M55 82 Q20 95 15 115 Q12 130 40 128 Q55 126 57 100 Z" fill="none" stroke="#2B2D42" stroke-width="0.8" />
      <path d="M65 82 Q100 95 105 115 Q108 130 80 128 Q65 126 63 100 Z" fill="none" stroke="#2B2D42" stroke-width="0.8" />
    </g>

    
    <ellipse cx="61" cy="90" rx="4.5" ry="22" fill="#0D1B2A" opacity="0.3" />

    
    <ellipse cx="60" cy="105" rx="3.5" ry="14" fill="#2B2D42" />
    <ellipse cx="60" cy="105" rx="2.8" ry="13" fill="#3D405B" />
    
    <path d="M57 97 Q60 96 63 97" stroke="#2B2D42" stroke-width="0.5" fill="none" />
    <path d="M57 101 Q60 100 63 101" stroke="#2B2D42" stroke-width="0.5" fill="none" />
    <path d="M57 105 Q60 104 63 105" stroke="#2B2D42" stroke-width="0.5" fill="none" />
    <path d="M57.5 109 Q60 108 62.5 109" stroke="#2B2D42" stroke-width="0.5" fill="none" />
    <path d="M58 113 Q60 112 62 113" stroke="#2B2D42" stroke-width="0.5" fill="none" />
    
    <ellipse cx="59" cy="103" rx="1" ry="10" fill="#FFFFFF" opacity="0.1" />

    
    <ellipse cx="60" cy="78" rx="4" ry="8" fill="#2B2D42" />
    <ellipse cx="60" cy="78" rx="3.2" ry="7" fill="#3D405B" />
    
    <ellipse cx="59" cy="76" rx="1.2" ry="4" fill="#FFFFFF" opacity="0.12" />
    
    <circle cx="58" cy="74" r="0.6" fill="#4A4E69" opacity="0.7" />
    <circle cx="62" cy="75" r="0.5" fill="#4A4E69" opacity="0.6" />
    <circle cx="59" cy="77" r="0.7" fill="#4A4E69" opacity="0.5" />
    <circle cx="61" cy="80" r="0.5" fill="#4A4E69" opacity="0.6" />

    
    <ellipse cx="60" cy="66" rx="4.5" ry="5" fill="#2B2D42" />
    <ellipse cx="60" cy="66" rx="3.8" ry="4.2" fill="#3D405B" />

    
    <ellipse cx="57" cy="64.5" rx="2" ry="2.2" fill="url(#eyeShine)" />
    <ellipse cx="63" cy="64.5" rx="2" ry="2.2" fill="url(#eyeShine)" />
    
    <circle cx="56.5" cy="64" r="0.8" fill="#0D1B2A" />
    <circle cx="62.5" cy="64" r="0.8" fill="#0D1B2A" />

    
    <path d="M57 62 Q50 42 44 35" stroke="#2B2D42" stroke-width="1" fill="none" stroke-linecap="round" />
    <path d="M63 62 Q70 42 76 35" stroke="#2B2D42" stroke-width="1" fill="none" stroke-linecap="round" />
    
    <circle cx="44" cy="35" r="2" fill="#E63946" />
    <circle cx="44" cy="35" r="1.2" fill="#FF6B35" />
    <circle cx="44" cy="34.5" r="0.5" fill="#FFFFFF" opacity="0.4" />
    <circle cx="76" cy="35" r="2" fill="#E63946" />
    <circle cx="76" cy="35" r="1.2" fill="#FF6B35" />
    <circle cx="76" cy="34.5" r="0.5" fill="#FFFFFF" opacity="0.4" />

    
    <path d="M60 70 Q60 74 58 76 Q55 79 56 82 Q57 84 59 83" stroke="#4A4E69" stroke-width="0.6" fill="none" stroke-linecap="round" />

    
    <path d="M58 82 L54 88 L52 92" stroke="#2B2D42" stroke-width="0.6" fill="none" />
    <path d="M62 82 L66 88 L68 92" stroke="#2B2D42" stroke-width="0.6" fill="none" />
    <path d="M57 78 L52 82 L50 86" stroke="#2B2D42" stroke-width="0.6" fill="none" />
    <path d="M63 78 L68 82 L70 86" stroke="#2B2D42" stroke-width="0.6" fill="none" />
    <path d="M57 75 L51 76 L49 80" stroke="#2B2D42" stroke-width="0.6" fill="none" />
    <path d="M63 75 L69 76 L71 80" stroke="#2B2D42" stroke-width="0.6" fill="none" />
  </g>
</svg>