<svg xmlns="http://www.w3.org/2000/svg" id="obstacle-root" viewBox="0 0 120 150">
  <g id="obstacle-main">
    
    <ellipse cx="60" cy="118" rx="42" ry="10" fill="#1a0f0a" opacity="0.35" />

    
    
    <path d="M30 95 L8 108 L5 115" stroke="#B85C38" stroke-width="3" fill="none" stroke-linecap="round" />
    <path d="M34 100 L14 118 L10 126" stroke="#A04E2E" stroke-width="3" fill="none" stroke-linecap="round" />
    <path d="M38 103 L22 122 L20 132" stroke="#B85C38" stroke-width="2.5" fill="none" stroke-linecap="round" />
    <path d="M44 105 L32 124 L32 134" stroke="#A04E2E" stroke-width="2.5" fill="none" stroke-linecap="round" />

    
    <path d="M90 95 L112 108 L115 115" stroke="#B85C38" stroke-width="3" fill="none" stroke-linecap="round" />
    <path d="M86 100 L106 118 L110 126" stroke="#A04E2E" stroke-width="3" fill="none" stroke-linecap="round" />
    <path d="M82 103 L98 122 L100 132" stroke="#B85C38" stroke-width="2.5" fill="none" stroke-linecap="round" />
    <path d="M76 105 L88 124 L88 134" stroke="#A04E2E" stroke-width="2.5" fill="none" stroke-linecap="round" />

    
    <circle cx="8" cy="108" r="1.5" fill="#C96A40" />
    <circle cx="14" cy="118" r="1.5" fill="#C96A40" />
    <circle cx="22" cy="122" r="1.5" fill="#C96A40" />
    <circle cx="32" cy="124" r="1.5" fill="#C96A40" />
    <circle cx="112" cy="108" r="1.5" fill="#C96A40" />
    <circle cx="106" cy="118" r="1.5" fill="#C96A40" />
    <circle cx="98" cy="122" r="1.5" fill="#C96A40" />
    <circle cx="88" cy="124" r="1.5" fill="#C96A40" />

    
    <ellipse cx="60" cy="90" rx="35" ry="22" fill="#D4763A" />
    
    <ellipse cx="60" cy="96" rx="33" ry="14" fill="#B85C28" />

    
    <ellipse cx="50" cy="82" rx="8" ry="5" fill="#E8956A" opacity="0.8" />
    <ellipse cx="70" cy="84" rx="7" ry="4.5" fill="#F0A070" opacity="0.7" />
    <ellipse cx="60" cy="78" rx="6" ry="4" fill="#FF8C5A" opacity="0.6" />
    <ellipse cx="55" cy="90" rx="9" ry="4" fill="#CC6E3A" opacity="0.5" />
    <ellipse cx="68" cy="92" rx="7" ry="3.5" fill="#D98050" opacity="0.5" />

    
    <circle cx="45" cy="86" r="3" fill="#E8A840" opacity="0.6" />
    <circle cx="75" cy="86" r="2.5" fill="#E8A840" opacity="0.5" />
    <circle cx="60" cy="85" r="2" fill="#F0B860" opacity="0.7" />
    <circle cx="52" cy="76" r="1.5" fill="#FFD080" opacity="0.5" />
    <circle cx="67" cy="78" r="1.8" fill="#FFD080" opacity="0.5" />

    
    <path d="M38 82 Q50 70 60 72 Q70 70 82 82" stroke="#FFD8A8" stroke-width="1" fill="none" opacity="0.5" />
    <path d="M42 88 Q52 78 60 80 Q68 78 78 88" stroke="#FFD8A8" stroke-width="0.8" fill="none" opacity="0.4" />
    <ellipse cx="52" cy="74" rx="4" ry="2" fill="#FFE8C8" opacity="0.3" />
    <ellipse cx="65" cy="75" rx="3" ry="1.5" fill="#FFE8C8" opacity="0.25" />

    
    <path d="M28 90 Q40 72 60 68 Q80 72 92 90" stroke="#FFD0A0" stroke-width="1.2" fill="none" opacity="0.6" />

    
    
    <path d="M32 88 L18 78 L10 68" stroke="#C96A40" stroke-width="3.5" fill="none" stroke-linecap="round" stroke-linejoin="round" />
    
    <path d="M88 88 L102 78 L110 68" stroke="#C96A40" stroke-width="3.5" fill="none" stroke-linecap="round" stroke-linejoin="round" />

    
    <g>
      
      <ellipse cx="8" cy="64" rx="7" ry="5" fill="#D4763A" transform="rotate(-20 8 64)" />
      
      <path d="M4 60 L-2 52 L4 54 Z" fill="#E88850" />
      <path d="M4 60 L-2 52 L4 54" stroke="#B85C28" stroke-width="0.8" fill="none" />
      
      <path d="M4 60 L-3 58 L-2 52" fill="#D4763A" />
      <path d="M4 60 L-3 58 L-2 52" stroke="#A04E2E" stroke-width="0.8" fill="none" />
      
      <ellipse cx="6" cy="62" rx="3" ry="2" fill="#F0A070" opacity="0.5" />
      
      <circle cx="0" cy="53" r="1" fill="#FFD0A0" />
      <circle cx="2" cy="54" r="0.8" fill="#FFD0A0" />
    </g>

    
    <g>
      <ellipse cx="112" cy="64" rx="7" ry="5" fill="#D4763A" transform="rotate(20 112 64)" />
      
      <path d="M116 60 L122 52 L116 54 Z" fill="#E88850" />
      <path d="M116 60 L122 52 L116 54" stroke="#B85C28" stroke-width="0.8" fill="none" />
      
      <path d="M116 60 L123 58 L122 52" fill="#D4763A" />
      <path d="M116 60 L123 58 L122 52" stroke="#A04E2E" stroke-width="0.8" fill="none" />
      
      <ellipse cx="114" cy="62" rx="3" ry="2" fill="#F0A070" opacity="0.5" />
      
      <circle cx="120" cy="53" r="1" fill="#FFD0A0" />
      <circle cx="118" cy="54" r="0.8" fill="#FFD0A0" />
    </g>

    
    <ellipse cx="60" cy="100" rx="8" ry="3" fill="#A04E2E" />
    <path d="M54 100 Q60 103 66 100" stroke="#8B3E1E" stroke-width="0.8" fill="none" />

    
    <g id="obstacle-animated-part">
      <animateTransform attributeName="transform" type="rotate" values="-5 60 75;5 60 75;-5 60 75" dur="2.5s" repeatCount="indefinite" keyTimes="0;0.5;1" calcMode="spline" keySplines="0.4 0 0.6 1;0.4 0 0.6 1" />

      
      <g>
        
        <path d="M50 78 L44 55 L43 48" stroke="#C96A40" stroke-width="3" fill="none" stroke-linecap="round" />
        <path d="M50 78 L44 55 L43 48" stroke="#E8A060" stroke-width="1.5" fill="none" stroke-linecap="round" opacity="0.4" />
        
        <circle cx="43" cy="46" r="5" fill="#FFFDE8" />
        <circle cx="43" cy="46" r="5" stroke="#8B3E1E" stroke-width="0.8" fill="none" />
        
        <circle cx="43" cy="46" r="3" fill="#1A1A2E" />
        
        <circle cx="42.5" cy="45.5" r="1.5" fill="#000000" />
        
        <circle cx="44.5" cy="44.5" r="1.2" fill="#FFFFFF" opacity="0.9" />
        <circle cx="42" cy="47.5" r="0.5" fill="#FFFFFF" opacity="0.5" />
      </g>

      
      <g>
        
        <path d="M70 78 L76 55 L77 48" stroke="#C96A40" stroke-width="3" fill="none" stroke-linecap="round" />
        <path d="M70 78 L76 55 L77 48" stroke="#E8A060" stroke-width="1.5" fill="none" stroke-linecap="round" opacity="0.4" />
        
        <circle cx="77" cy="46" r="5" fill="#FFFDE8" />
        <circle cx="77" cy="46" r="5" stroke="#8B3E1E" stroke-width="0.8" fill="none" />
        
        <circle cx="77" cy="46" r="3" fill="#1A1A2E" />
        
        <circle cx="76.5" cy="45.5" r="1.5" fill="#000000" />
        
        <circle cx="78.5" cy="44.5" r="1.2" fill="#FFFFFF" opacity="0.9" />
        <circle cx="76" cy="47.5" r="0.5" fill="#FFFFFF" opacity="0.5" />
      </g>
    </g>

    
    <ellipse cx="55" cy="74" rx="10" ry="4" fill="#FFE0B8" opacity="0.2" />

    
    <circle cx="42" cy="80" r="0.8" fill="#8B3E1E" opacity="0.4" />
    <circle cx="78" cy="82" r="0.8" fill="#8B3E1E" opacity="0.4" />
    <circle cx="58" cy="94" r="0.7" fill="#8B3E1E" opacity="0.3" />
    <circle cx="65" cy="88" r="0.6" fill="#8B3E1E" opacity="0.3" />
    <circle cx="48" cy="92" r="0.7" fill="#8B3E1E" opacity="0.35" />
    <circle cx="72" cy="94" r="0.6" fill="#8B3E1E" opacity="0.3" />
  </g>
</svg>