<svg xmlns="http://www.w3.org/2000/svg" id="obstacle-root" viewBox="0 0 120 150">
  <g id="obstacle-main">
    
    <ellipse cx="60" cy="130" rx="40" ry="8" fill="#1a6b8a" opacity="0.4" />
    <ellipse cx="55" cy="128" rx="30" ry="5" fill="#2196c4" opacity="0.5" />
    <ellipse cx="65" cy="132" rx="25" ry="4" fill="#1a8ab5" opacity="0.3" />

    
    <path d="M30 125 Q25 115 28 105" stroke="#4fc3f7" stroke-width="1.2" fill="none" opacity="0.6" />
    <path d="M90 125 Q95 112 91 102" stroke="#4fc3f7" stroke-width="1.2" fill="none" opacity="0.6" />
    <path d="M45 128 Q40 118 43 108" stroke="#4fc3f7" stroke-width="1" fill="none" opacity="0.5" />
    <path d="M78 127 Q82 116 79 106" stroke="#4fc3f7" stroke-width="1" fill="none" opacity="0.5" />

    
    <g id="obstacle-animated-part" transform-origin="18 108">
      <animateTransform attributeName="transform" type="rotate" values="1,1,10;8,18,10;1,1,10" dur="1.5s" repeatCount="indefinite" />
      
      <path d="M18 108 Q2 118 5 130 Q12 122 18 112 Z" fill="#3a7a9e" />
      <path d="M18 108 Q4 119 7 128 Q13 121 18 113 Z" fill="#4a8fb3" />
      
      <path d="M18 108 Q10 125 18 135 Q22 124 20 112 Z" fill="#35708f" />
      <path d="M18 108 Q12 124 19 132 Q21 122 20 113 Z" fill="#4589a8" />
      
      <path d="M14 118 Q10 122 12 126" stroke="#6bc4e8" stroke-width="0.6" fill="none" opacity="0.5" />
    </g>

    
    <path d="M18 108 Q30 95 50 78 Q65 65 80 52 Q90 44 95 38 L92 42 Q82 55 68 68 Q55 78 42 90 Q30 100 22 108 Z" fill="#b8d8e8" />
    <path d="M20 106 Q32 94 50 80 Q62 70 75 58 Q85 48 90 42 L88 46 Q78 58 65 70 Q52 80 40 92 Q30 100 24 107 Z" fill="#cce6f0" />

    
    <path d="M18 105 Q28 88 45 72 Q58 58 72 48 Q82 40 92 34 Q96 32 98 30 L96 36 Q88 42 78 50 Q65 60 52 72 Q38 84 26 98 Q20 104 18 108 Z" fill="#2a6e8f" />
    <path d="M20 102 Q30 86 46 70 Q60 56 74 46 Q84 38 94 32 L92 36 Q84 42 74 50 Q60 62 48 74 Q34 88 24 100 Z" fill="#357fa3" />

    
    <path d="M35 90 Q48 76 62 64 Q72 55 82 47 L80 50 Q70 58 60 67 Q48 78 37 90 Z" fill="#2d7494" opacity="0.6" />

    
    <path d="M55 68 Q52 52 58 40 Q62 48 64 60 Q62 66 58 70 Z" fill="#1e5a75" />
    <path d="M56 66 Q54 54 58 44 Q60 50 62 60 Q60 65 58 68 Z" fill="#266a88" />
    
    <path d="M57 58 Q56 52 58 46" stroke="#4a9ec0" stroke-width="0.5" fill="none" opacity="0.6" />

    
    <path d="M58 78 Q50 88 42 96 Q46 92 52 84 Q56 80 58 78 Z" fill="#1e5a75" />
    <path d="M60 76 Q52 86 44 94 Q48 88 55 80 Z" fill="#266a88" />
    
    <path d="M62 72 Q54 82 44 95 Q42 96 40 98 Q46 94 54 84 Q60 76 62 72 Z" fill="#1e5a75" opacity="0.8" />

    
    <path d="M88 38 Q94 32 100 28 Q104 25 108 24 Q106 28 102 32 Q98 36 94 38 Q92 40 88 42 Z" fill="#357fa3" />
    <path d="M86 40 Q92 34 98 30 Q102 27 106 26 Q104 30 100 34 Q96 37 92 40 Z" fill="#4a9ec0" />

    
    <path d="M98 30 Q104 26 110 22 Q112 21 114 20 Q112 23 108 26 Q104 29 100 32 Z" fill="#4a9ec0" />
    <path d="M100 28 Q106 24 112 20 L110 23 Q106 26 102 30 Z" fill="#5ab0d4" />
    
    <path d="M110 21 Q112 20 114 20 Q112 22 110 23 Z" fill="#7cc8e4" />

    
    <ellipse cx="100" cy="29" rx="5" ry="4" fill="#4a9ec0" opacity="0.7" />

    
    <path d="M104 30 Q108 28 112 24" stroke="#1e5a75" stroke-width="0.6" fill="none" opacity="0.7" />
    <path d="M102 32 Q106 30 110 26" stroke="#1e5a75" stroke-width="0.4" fill="none" opacity="0.5" />

    
    <ellipse cx="98" cy="32" rx="2.2" ry="1.8" fill="#0d2f3f" />
    <ellipse cx="98" cy="32" rx="1.5" ry="1.2" fill="#1a4a5e" />
    
    <ellipse cx="97.3" cy="31.3" rx="0.7" ry="0.5" fill="#ffffff" opacity="0.9" />
    
    <circle cx="98.8" cy="31.8" r="0.3" fill="#ffffff" opacity="0.6" />

    
    <path d="M30 98 Q45 82 60 68 Q72 56 84 46" stroke="#7cc8e4" stroke-width="1" fill="none" opacity="0.4" />
    <path d="M35 94 Q48 80 62 66 Q74 54 86 44" stroke="#a0daf0" stroke-width="0.6" fill="none" opacity="0.3" />

    
    <path d="M24 105 Q36 92 52 78 Q64 68 76 56" stroke="#d4eef8" stroke-width="1.5" fill="none" opacity="0.3" />

    
    <ellipse cx="40" cy="65" rx="1.5" ry="2" fill="#4fc3f7" opacity="0.7" />
    <ellipse cx="75" cy="40" rx="1" ry="1.5" fill="#4fc3f7" opacity="0.6" />
    <ellipse cx="30" cy="80" rx="1.2" ry="1.8" fill="#4fc3f7" opacity="0.5" />
    <ellipse cx="95" cy="50" rx="1" ry="1.3" fill="#4fc3f7" opacity="0.6" />
    <ellipse cx="50" cy="55" rx="0.8" ry="1.2" fill="#81d4fa" opacity="0.5" />
    <ellipse cx="85" cy="60" rx="1.3" ry="1" fill="#4fc3f7" opacity="0.4" />
    <ellipse cx="15" cy="95" rx="1" ry="1.5" fill="#4fc3f7" opacity="0.5" />
    <ellipse cx="105" cy="35" rx="0.8" ry="1" fill="#81d4fa" opacity="0.6" />
    <ellipse cx="68" cy="45" rx="1.2" ry="0.8" fill="#4fc3f7" opacity="0.5" />
    <ellipse cx="25" cy="70" rx="0.7" ry="1.1" fill="#81d4fa" opacity="0.4" />
    <ellipse cx="110" cy="28" rx="0.6" ry="0.9" fill="#b3e5fc" opacity="0.5" />
    <ellipse cx="48" cy="95" rx="1" ry="0.7" fill="#4fc3f7" opacity="0.4" />
    <ellipse cx="12" cy="110" rx="1.3" ry="1" fill="#4fc3f7" opacity="0.3" />
    <ellipse cx="60" cy="50" rx="0.9" ry="1.4" fill="#81d4fa" opacity="0.5" />
    <ellipse cx="35" cy="105" rx="0.8" ry="1.2" fill="#4fc3f7" opacity="0.4" />
    <ellipse cx="80" cy="35" rx="1.1" ry="0.7" fill="#b3e5fc" opacity="0.5" />
    <ellipse cx="22" cy="115" rx="1.5" ry="1" fill="#4fc3f7" opacity="0.3" />
    <ellipse cx="100" cy="45" rx="0.7" ry="1" fill="#81d4fa" opacity="0.4" />

    
    <ellipse cx="45" cy="60" rx="1" ry="1.5" fill="#4fc3f7" opacity="0.6">
      <animate attributeName="cy" values="60;130" dur="2s" repeatCount="indefinite" />
      <animate attributeName="opacity" values="0.6;0" dur="2s" repeatCount="indefinite" />
    </ellipse>
    <ellipse cx="70" cy="42" rx="0.8" ry="1.2" fill="#81d4fa" opacity="0.5">
      <animate attributeName="cy" values="42;130" dur="2.5s" repeatCount="indefinite" />
      <animate attributeName="opacity" values="0.5;0" dur="2.5s" repeatCount="indefinite" />
    </ellipse>
    <ellipse cx="88" cy="55" rx="0.9" ry="1.3" fill="#4fc3f7" opacity="0.5">
      <animate attributeName="cy" values="55;130" dur="1.8s" repeatCount="indefinite" />
      <animate attributeName="opacity" values="0.5;0" dur="1.8s" repeatCount="indefinite" />
    </ellipse>

    
    <path d="M40 88 Q50 78 60 70" stroke="#2a6e8f" stroke-width="0.3" fill="none" opacity="0.4" />
    <path d="M45 84 Q55 74 65 66" stroke="#2a6e8f" stroke-width="0.3" fill="none" opacity="0.3" />
    <path d="M50 80 Q58 72 68 64" stroke="#2a6e8f" stroke-width="0.3" fill="none" opacity="0.3" />

    
    <path d="M22 107 Q34 94 50 80 Q62 70 74 58" stroke="#1a4a5e" stroke-width="0.8" fill="none" opacity="0.3" />
  </g>
</svg>