<svg xmlns="http://www.w3.org/2000/svg" id="obstacle-root" viewBox="0 0 120 150">
  <defs>
    <radialGradient id="glow1" cx="50%" cy="50%" r="50%">
      <stop offset="0%" stop-color="#ffffff" stop-opacity="0.9" />
      <stop offset="100%" stop-color="#e8d5f0" stop-opacity="0" />
    </radialGradient>
    <radialGradient id="wingGrad1" cx="30%" cy="30%" r="70%">
      <stop offset="0%" stop-color="#a8e6cf" stop-opacity="0.6" />
      <stop offset="40%" stop-color="#55c9d8" stop-opacity="0.45" />
      <stop offset="100%" stop-color="#7b68ee" stop-opacity="0.3" />
    </radialGradient>
    <radialGradient id="wingGrad2" cx="70%" cy="30%" r="70%">
      <stop offset="0%" stop-color="#88d8b0" stop-opacity="0.55" />
      <stop offset="40%" stop-color="#4fc3f7" stop-opacity="0.4" />
      <stop offset="100%" stop-color="#9575cd" stop-opacity="0.25" />
    </radialGradient>
    <radialGradient id="skinGrad" cx="50%" cy="40%" r="50%">
      <stop offset="0%" stop-color="#fde8d0" />
      <stop offset="100%" stop-color="#f0c9a0" />
    </radialGradient>
    <radialGradient id="hairGrad" cx="50%" cy="80%" r="60%">
      <stop offset="0%" stop-color="#c9a0dc" />
      <stop offset="100%" stop-color="#8e5baa" />
    </radialGradient>
    <radialGradient id="moteGrad" cx="50%" cy="50%" r="50%">
      <stop offset="0%" stop-color="#ffffcc" stop-opacity="1" />
      <stop offset="100%" stop-color="#ffee88" stop-opacity="0" />
    </radialGradient>
    <radialGradient id="bodyGlow" cx="50%" cy="50%" r="50%">
      <stop offset="0%" stop-color="#f5e6ff" stop-opacity="0.4" />
      <stop offset="100%" stop-color="#f5e6ff" stop-opacity="0" />
    </radialGradient>
  </defs>

  <g id="obstacle-main">
    
    <ellipse cx="60" cy="75" rx="38" ry="45" fill="url(#bodyGlow)" />

    
    <path d="M58 68 Q30 30 18 55 Q12 70 40 72 Z" fill="#3a3a5c" opacity="0.15" transform="translate(3,4)" />
    <path d="M62 68 Q90 30 102 55 Q108 70 80 72 Z" fill="#3a3a5c" opacity="0.15" transform="translate(3,4)" />
    <path d="M56 75 Q28 80 22 100 Q20 110 48 95 Z" fill="#3a3a5c" opacity="0.12" transform="translate(3,4)" />
    <path d="M64 75 Q92 80 98 100 Q100 110 72 95 Z" fill="#3a3a5c" opacity="0.12" transform="translate(3,4)" />

    
    <path d="M56 75 Q25 78 20 100 Q17 112 46 96 Z" fill="url(#wingGrad1)" stroke="#7bc8a4" stroke-width="0.5" opacity="0.7" />
    <path d="M64 75 Q95 78 100 100 Q103 112 74 96 Z" fill="url(#wingGrad2)" stroke="#7bc8a4" stroke-width="0.5" opacity="0.7" />
    
    <path d="M56 75 Q35 88 30 100" fill="none" stroke="#55c9d8" stroke-width="0.4" opacity="0.5" />
    <path d="M56 75 Q40 82 25 95" fill="none" stroke="#88d8b0" stroke-width="0.3" opacity="0.4" />
    <path d="M64 75 Q85 88 90 100" fill="none" stroke="#55c9d8" stroke-width="0.4" opacity="0.5" />
    <path d="M64 75 Q80 82 95 95" fill="none" stroke="#88d8b0" stroke-width="0.3" opacity="0.4" />

    
    
    <path d="M52 82 Q48 100 44 118 Q52 122 60 122 Q68 122 76 118 Q72 100 68 82 Z" fill="#8b6aad" opacity="0.3" />
    
    <path d="M51 80 Q47 98 43 115 Q51 120 60 120 Q69 120 77 115 Q73 98 69 80 Z" fill="#c9a0dc" />
    
    <path d="M54 82 Q52 95 50 110 Q55 114 60 114 Q65 114 70 110 Q68 95 66 82 Z" fill="#f5e6d0" opacity="0.6" />
    
    <path d="M55 90 Q57 100 54 112" fill="none" stroke="#a87cc4" stroke-width="0.6" opacity="0.5" />
    <path d="M65 90 Q63 100 66 112" fill="none" stroke="#a87cc4" stroke-width="0.6" opacity="0.5" />
    
    <path d="M43 115 Q40 118 43 121 Q46 118 47 115" fill="#6abf69" opacity="0.8" />
    <path d="M49 118 Q47 122 50 124 Q53 121 52 117" fill="#7dd87d" opacity="0.7" />
    <path d="M57 120 Q56 124 59 125 Q62 123 61 119" fill="#6abf69" opacity="0.8" />
    <path d="M67 118 Q66 122 69 124 Q72 121 70 117" fill="#7dd87d" opacity="0.7" />
    <path d="M75 115 Q73 118 76 121 Q79 118 77 115" fill="#6abf69" opacity="0.8" />

    
    <path d="M55 72 Q55 78 54 82 L66 82 Q65 78 65 72 Z" fill="url(#skinGrad)" />


    <g id="obstacle-animated-part">

      <g transform-origin="58 68">
        <path d="M58 68 Q28 28 16 52 Q10 68 40 72 Z" fill="url(#wingGrad1)" stroke="#55c9d8" stroke-width="0.6" opacity="0.75" />

        <path d="M58 68 Q38 45 22 55" fill="none" stroke="#4fc3f7" stroke-width="0.4" opacity="0.6" />
        <path d="M58 68 Q42 50 28 58" fill="none" stroke="#88d8b0" stroke-width="0.35" opacity="0.5" />
        <path d="M58 68 Q35 55 20 62" fill="none" stroke="#7bc8a4" stroke-width="0.3" opacity="0.4" />

        <path d="M40 50 Q35 55 30 58" fill="none" stroke="#ffffff" stroke-width="0.5" opacity="0.3" />
        <ellipse cx="35" cy="52" rx="4" ry="3" fill="#a8e6cf" opacity="0.2" />
      </g>

      <g transform-origin="62 68">
        <path d="M62 68 Q92 28 104 52 Q110 68 80 72 Z" fill="url(#wingGrad2)" stroke="#55c9d8" stroke-width="0.6" opacity="0.75" />

        <path d="M62 68 Q82 45 98 55" fill="none" stroke="#4fc3f7" stroke-width="0.4" opacity="0.6" />
        <path d="M62 68 Q78 50 92 58" fill="none" stroke="#88d8b0" stroke-width="0.35" opacity="0.5" />
        <path d="M62 68 Q85 55 100 62" fill="none" stroke="#7bc8a4" stroke-width="0.3" opacity="0.4" />

        <path d="M80 50 Q85 55 90 58" fill="none" stroke="#ffffff" stroke-width="0.5" opacity="0.3" />
        <ellipse cx="85" cy="52" rx="4" ry="3" fill="#a8e6cf" opacity="0.2" />
      </g>
      <animateTransform attributeName="transform" type="rotate" values="-3 60 68;3 60 68;-3 60 68" dur="0.8s" repeatCount="indefinite" />
    </g>


    <path d="M54 82 Q48 88 44 95 Q43 96 44 97 Q46 96 50 90 Q53 86 55 84" fill="url(#skinGrad)" stroke="#e0b88a" stroke-width="0.4" />
    
    <ellipse cx="44" cy="96" rx="2.5" ry="2" fill="url(#skinGrad)" stroke="#e0b88a" stroke-width="0.3" />

    
    <path d="M66 82 Q70 80 72 76 Q73 74 72 72 Q71 71 70 72 Q68 75 66 78 Q65 80 65 82" fill="url(#skinGrad)" stroke="#e0b88a" stroke-width="0.4" />
    
    <ellipse cx="71" cy="72" rx="2.5" ry="2.2" fill="url(#skinGrad)" stroke="#e0b88a" stroke-width="0.3" />
    
    <path d="M70 70 Q71 69 70.5 68" fill="none" stroke="#e0b88a" stroke-width="0.4" />
    <path d="M72 70.5 Q73 69.5 72.5 68.5" fill="none" stroke="#e0b88a" stroke-width="0.4" />

    
    
    <ellipse cx="61" cy="65" rx="10" ry="11" fill="#d4a07a" opacity="0.15" />
    
    <ellipse cx="60" cy="64" rx="10" ry="11" fill="url(#skinGrad)" />
    
    <ellipse cx="53" cy="67" rx="3" ry="1.8" fill="#f0a0a0" opacity="0.3" />
    <ellipse cx="67" cy="66" rx="3" ry="1.8" fill="#f0a0a0" opacity="0.3" />

    
    
    <ellipse cx="55" cy="63" rx="2.2" ry="2.5" fill="#ffffff" />
    <ellipse cx="65" cy="62" rx="2.2" ry="2.5" fill="#ffffff" />
    
    <ellipse cx="55.5" cy="63.5" rx="1.4" ry="1.6" fill="#6a5acd" />
    <ellipse cx="65.5" cy="62.5" rx="1.4" ry="1.6" fill="#6a5acd" />
    
    <ellipse cx="55.8" cy="63.8" rx="0.7" ry="0.8" fill="#2a1a4a" />
    <ellipse cx="65.8" cy="62.8" rx="0.7" ry="0.8" fill="#2a1a4a" />
    
    <ellipse cx="54.8" cy="62.5" rx="0.5" ry="0.5" fill="#ffffff" opacity="0.9" />
    <ellipse cx="64.8" cy="61.5" rx="0.5" ry="0.5" fill="#ffffff" opacity="0.9" />

    
    <path d="M52 60 Q55 58.5 58 59.5" fill="none" stroke="#7a5a8a" stroke-width="0.6" opacity="0.6" />
    <path d="M62 58.5 Q65 57.5 68 59" fill="none" stroke="#7a5a8a" stroke-width="0.6" opacity="0.6" />

    
    <path d="M59.5 65 Q60 66.5 60.5 65" fill="none" stroke="#d4a88a" stroke-width="0.5" />

    
    <path d="M57 69 Q60 70.5 63 69" fill="none" stroke="#c47a7a" stroke-width="0.7" />
    <path d="M58 69.2 Q60 68.5 62 69.2" fill="#e8a0a0" opacity="0.3" />

    
    <path d="M49 62 Q45 58 44 54 Q46 57 50 60" fill="url(#skinGrad)" stroke="#e0b88a" stroke-width="0.4" />
    <path d="M71 61 Q75 57 76 53 Q74 56 70 59" fill="url(#skinGrad)" stroke="#e0b88a" stroke-width="0.4" />

    
    <path d="M50 60 Q48 50 44 40 Q46 38 50 42 Q52 48 53 55" fill="url(#hairGrad)" />
    <path d="M52 57 Q50 45 48 35 Q51 33 54 38 Q55 46 55 55" fill="url(#hairGrad)" />
    <path d="M56 55 Q55 43 56 32 Q59 30 60 35 Q59 44 58 54" fill="url(#hairGrad)" />
    <path d="M62 54 Q63 42 65 33 Q68 31 67 37 Q65 45 63 54" fill="url(#hairGrad)" />
    <path d="M66 56 Q68 44 72 36 Q74 35 72 40 Q69 48 67 56" fill="url(#hairGrad)" />
    <path d="M69 59 Q72 50 76 42 Q77 41 75 46 Q72 53 70 59" fill="url(#hairGrad)" />

    
    <path d="M50 60 Q52 54 56 53 Q58 52 60 53 Q64 53 67 55 Q70 58 70 60 Q66 56 60 55 Q54 56 50 60 Z" fill="#a87cc4" />

    
    <path d="M53 45 Q54 40 55 36" fill="none" stroke="#d4b0e8" stroke-width="0.8" opacity="0.6" />
    <path d="M64 43 Q65 38 66 35" fill="none" stroke="#d4b0e8" stroke-width="0.8" opacity="0.6" />

    
    <circle cx="47" cy="38" r="1.5" fill="#ffffaa" opacity="0.9">
      <animate attributeName="opacity" values="0.9;0.3;0.9" dur="2s" repeatCount="indefinite" />
    </circle>
    <circle cx="47" cy="38" r="3" fill="url(#moteGrad)" opacity="0.5">
      <animate attributeName="opacity" values="0.5;0.15;0.5" dur="2s" repeatCount="indefinite" />
    </circle>

    <circle cx="57" cy="32" r="1.2" fill="#ffffcc" opacity="0.85">
      <animate attributeName="opacity" values="0.85;0.25;0.85" dur="1.7s" repeatCount="indefinite" />
    </circle>
    <circle cx="57" cy="32" r="2.5" fill="url(#moteGrad)" opacity="0.4">
      <animate attributeName="opacity" values="0.4;0.1;0.4" dur="1.7s" repeatCount="indefinite" />
    </circle>

    <circle cx="67" cy="34" r="1.3" fill="#ffffaa" opacity="0.9">
      <animate attributeName="opacity" values="0.9;0.2;0.9" dur="2.3s" repeatCount="indefinite" />
    </circle>
    <circle cx="67" cy="34" r="2.8" fill="url(#moteGrad)" opacity="0.45">
      <animate attributeName="opacity" values="0.45;0.1;0.45" dur="2.3s" repeatCount="indefinite" />
    </circle>

    <circle cx="75" cy="43" r="1" fill="#eeffaa" opacity="0.8">
      <animate attributeName="opacity" values="0.8;0.2;0.8" dur="1.5s" repeatCount="indefinite" />
    </circle>
    <circle cx="75" cy="43" r="2.2" fill="url(#moteGrad)" opacity="0.35">
      <animate attributeName="opacity" values="0.35;0.08;0.35" dur="1.5s" repeatCount="indefinite" />
    </circle>

    <circle cx="52" cy="42" r="0.9" fill="#ccffee" opacity="0.75">
      <animate attributeName="opacity" values="0.75;0.2;0.75" dur="1.9s" repeatCount="indefinite" />
    </circle>

    <circle cx="62" cy="30" r="1" fill="#ddffcc" opacity="0.7">
      <animate attributeName="opacity" values="0.7;0.15;0.7" dur="2.1s" repeatCount="indefinite" />
    </circle>

    


    <circle cx="55" cy="128" r="0.8" fill="#ffffcc" opacity="0.6">
      <animate attributeName="opacity" values="0.6;0;0.6" dur="1.4s" repeatCount="indefinite" />
      <animate attributeName="cy" values="128;132;128" dur="1.4s" repeatCount="indefinite" />
    </circle>
    <circle cx="60" cy="130" r="0.6" fill="#eeffdd" opacity="0.5">
      <animate attributeName="opacity" values="0.5;0;0.5" dur="1.8s" repeatCount="indefinite" />
      <animate attributeName="cy" values="130;135;130" dur="1.8s" repeatCount="indefinite" />
    </circle>
    <circle cx="65" cy="127" r="0.7" fill="#ffffaa" opacity="0.55">
      <animate attributeName="opacity" values="0.55;0;0.55" dur="1.6s" repeatCount="indefinite" />
      <animate attributeName="cy" values="127;131;127" dur="1.6s" repeatCount="indefinite" />
    </circle>

    
    <ellipse cx="55" cy="120" rx="2.5" ry="1.2" fill="#f0c9a0" stroke="#d4a88a" stroke-width="0.3" />
    <ellipse cx="65" cy="119.5" rx="2.5" ry="1.2" fill="#f0c9a0" stroke="#d4a88a" stroke-width="0.3" />
  </g>
</svg>