<svg xmlns="http://www.w3.org/2000/svg" id="obstacle-root" viewBox="0 0 120 150">
  <defs>
    <radialGradient id="haloGrad" cx="50%" cy="50%" r="50%">
      <stop offset="0%" stop-color="#FFFDE0" stop-opacity="0.7" />
      <stop offset="40%" stop-color="#FFE87C" stop-opacity="0.35" />
      <stop offset="70%" stop-color="#FFD700" stop-opacity="0.15" />
      <stop offset="100%" stop-color="#FFD700" stop-opacity="0" />
    </radialGradient>
    <linearGradient id="trailGrad" x1="0%" y1="0%" x2="100%" y2="100%">
      <stop offset="0%" stop-color="#FFFFFF" stop-opacity="0.9" />
      <stop offset="20%" stop-color="#FFE87C" stop-opacity="0.8" />
      <stop offset="50%" stop-color="#FFD700" stop-opacity="0.5" />
      <stop offset="75%" stop-color="#FF9F43" stop-opacity="0.25" />
      <stop offset="100%" stop-color="#FF7F50" stop-opacity="0" />
    </linearGradient>
    <linearGradient id="trailGrad2" x1="0%" y1="0%" x2="100%" y2="100%">
      <stop offset="0%" stop-color="#FFFACD" stop-opacity="0.7" />
      <stop offset="40%" stop-color="#FFD700" stop-opacity="0.4" />
      <stop offset="100%" stop-color="#FF8C00" stop-opacity="0" />
    </linearGradient>
    <linearGradient id="innerTrailGrad" x1="0%" y1="0%" x2="100%" y2="100%">
      <stop offset="0%" stop-color="#FFFFFF" stop-opacity="1" />
      <stop offset="30%" stop-color="#FFFDE0" stop-opacity="0.9" />
      <stop offset="70%" stop-color="#FFE87C" stop-opacity="0.5" />
      <stop offset="100%" stop-color="#FFD700" stop-opacity="0" />
    </linearGradient>
    <radialGradient id="coreGrad" cx="40%" cy="40%" r="55%">
      <stop offset="0%" stop-color="#FFFFFF" />
      <stop offset="30%" stop-color="#FFFEF0" />
      <stop offset="60%" stop-color="#FFE87C" />
      <stop offset="100%" stop-color="#FFD700" />
    </radialGradient>
    <filter id="glow1" x="-50%" y="-50%" width="200%" height="200%">
      <feGaussianBlur stdDeviation="3" result="blur" />
      <feMerge>
        <feMergeNode in="blur" />
        <feMergeNode in="SourceGraphic" />
      </feMerge>
    </filter>
    <filter id="glow2" x="-80%" y="-80%" width="260%" height="260%">
      <feGaussianBlur stdDeviation="5" result="blur" />
      <feMerge>
        <feMergeNode in="blur" />
        <feMergeNode in="SourceGraphic" />
      </feMerge>
    </filter>
    <filter id="softGlow" x="-30%" y="-30%" width="160%" height="160%">
      <feGaussianBlur stdDeviation="1.5" />
    </filter>
  </defs>

  <g id="obstacle-main">
    
    <ellipse cx="28" cy="38" rx="28" ry="26" fill="url(#haloGrad)" filter="url(#glow2)" />
    <ellipse cx="28" cy="38" rx="20" ry="18" fill="url(#haloGrad)" opacity="0.5" />

    
    <path d="M32 44 Q55 62 78 85 Q90 100 108 128 Q112 135 115 142 L110 140 Q100 125 88 108 Q72 88 55 68 Q42 54 30 42 Z" fill="url(#trailGrad2)" opacity="0.4" filter="url(#softGlow)" />

    
    <path d="M30 42 Q48 56 65 75 Q80 92 95 115 Q102 126 108 138 L105 136 Q96 122 85 106 Q70 86 56 70 Q42 54 28 40 Z" fill="url(#trailGrad)" opacity="0.7" />

    
    <path d="M29 40 Q44 52 58 68 Q72 84 84 102 Q92 114 100 130 L97 128 Q88 112 78 96 Q65 78 52 63 Q40 50 28 38 Z" fill="url(#trailGrad2)" opacity="0.6" />

    
    <path d="M28 39 Q40 48 52 62 Q64 76 75 92 Q83 104 92 120 L90 118 Q80 102 70 86 Q58 70 46 56 Q36 46 27 37 Z" fill="url(#innerTrailGrad)" opacity="0.85" filter="url(#glow1)" />

    
    <path d="M27 38 Q36 44 45 55 Q55 66 64 80 Q70 90 78 104 L76 102 Q68 88 60 76 Q50 62 40 50 Q33 42 26 36 Z" fill="#FFFEF0" opacity="0.7" filter="url(#glow1)" />

    
    <ellipse cx="50" cy="60" rx="1.2" ry="1" fill="#FFE87C" opacity="0.5" />
    <ellipse cx="62" cy="72" rx="0.8" ry="0.7" fill="#FFFACD" opacity="0.4" />
    <ellipse cx="70" cy="85" rx="1" ry="0.8" fill="#FFD700" opacity="0.45" />
    <ellipse cx="80" cy="98" rx="0.9" ry="0.7" fill="#FF9F43" opacity="0.35" />
    <ellipse cx="88" cy="110" rx="1.1" ry="0.8" fill="#FFD700" opacity="0.3" />
    <ellipse cx="95" cy="122" rx="0.7" ry="0.6" fill="#FF8C00" opacity="0.25" />
    <ellipse cx="42" cy="52" rx="0.9" ry="0.7" fill="#FFFDE0" opacity="0.5" />
    <ellipse cx="55" cy="68" rx="0.6" ry="0.5" fill="#FFE87C" opacity="0.4" />
    <ellipse cx="75" cy="90" rx="1.3" ry="0.9" fill="#FFD700" opacity="0.35" />
    <ellipse cx="100" cy="130" rx="0.8" ry="0.6" fill="#FF7F50" opacity="0.2" />

    
    <ellipse cx="38" cy="55" rx="0.7" ry="0.6" fill="#FFE87C" opacity="0.35" />
    <ellipse cx="58" cy="78" rx="0.8" ry="0.6" fill="#FFD700" opacity="0.3" />
    <ellipse cx="68" cy="95" rx="0.6" ry="0.5" fill="#FF9F43" opacity="0.25" />
    <ellipse cx="92" cy="118" rx="0.9" ry="0.7" fill="#FF8C00" opacity="0.2" />
    <ellipse cx="46" cy="63" rx="0.5" ry="0.4" fill="#FFFACD" opacity="0.4" />
    <ellipse cx="84" cy="105" rx="0.7" ry="0.5" fill="#FFD700" opacity="0.3" />

    
    <g id="obstacle-animated-part">
      <animate attributeName="opacity" values="0.9;0.1;0.9" dur="0.8s" repeatCount="indefinite" />
      
      <ellipse cx="22" cy="32" rx="1.4" ry="1.1" fill="#FFFEF0" />
      <ellipse cx="35" cy="34" rx="1.1" ry="0.8" fill="#FFE87C" />
      <ellipse cx="20" cy="44" rx="1.0" ry="0.7" fill="#FFD700" />
      <ellipse cx="38" cy="46" rx="0.9" ry="0.7" fill="#FFFACD" />
      
      <ellipse cx="44" cy="48" rx="1.3" ry="1.0" fill="#FFFFFF" />
      <ellipse cx="36" cy="58" rx="0.8" ry="0.6" fill="#FFE87C" />
      <ellipse cx="52" cy="55" rx="1.0" ry="0.8" fill="#FFD700" />
      <ellipse cx="48" cy="65" rx="0.7" ry="0.5" fill="#FFFDE0" />
      
      <ellipse cx="60" cy="66" rx="1.2" ry="0.9" fill="#FFFACD" />
      <ellipse cx="56" cy="76" rx="0.9" ry="0.7" fill="#FFD700" />
      <ellipse cx="66" cy="78" rx="1.1" ry="0.8" fill="#FFE87C" />
      <ellipse cx="72" cy="82" rx="0.8" ry="0.6" fill="#FF9F43" />
      
      <ellipse cx="78" cy="94" rx="1.0" ry="0.7" fill="#FFD700" />
      <ellipse cx="82" cy="102" rx="0.7" ry="0.5" fill="#FFFACD" />
      <ellipse cx="86" cy="112" rx="0.9" ry="0.6" fill="#FF9F43" />
      <ellipse cx="90" cy="106" rx="0.6" ry="0.5" fill="#FFE87C" />
      
      <ellipse cx="32" cy="50" rx="0.6" ry="0.5" fill="#FFFFFF" />
      <ellipse cx="16" cy="38" rx="0.8" ry="0.6" fill="#FFD700" />
      <ellipse cx="42" cy="42" rx="0.7" ry="0.5" fill="#FFFDE0" />
      <ellipse cx="64" cy="88" rx="0.8" ry="0.6" fill="#FF8C00" />
      <ellipse cx="94" cy="116" rx="0.7" ry="0.5" fill="#FFD700" />
      <ellipse cx="98" cy="126" rx="0.6" ry="0.4" fill="#FF7F50" />
      <ellipse cx="74" cy="72" rx="0.5" ry="0.4" fill="#FFFEF0" />
      <ellipse cx="50" cy="72" rx="0.6" ry="0.5" fill="#FFE87C" />
    </g>

    
    <path d="M24 35 Q28 30 32 35 Q36 42 30 44 Q24 42 24 35 Z" fill="url(#coreGrad)" filter="url(#glow1)" opacity="0.9" />

    
    <g filter="url(#glow2)">
      
      <polygon points="27,32 30,28 34,31 36,36 33,40 29,42 25,39 23,35" fill="#FFFFFF" opacity="0.95" />
      
      <polygon points="28,33 30,29 33,32 31,36" fill="#FFFEF0" opacity="0.9" />
      <polygon points="25,36 28,33 31,36 29,40" fill="#FFE87C" opacity="0.7" />
      <polygon points="31,36 34,32 36,36 33,39" fill="#FFFACD" opacity="0.75" />
      
      <polygon points="28,34 30,31 32,34 30,37" fill="#FFFFFF" />
      
      <path d="M27,32 L30,28 L29,30 Z" fill="#FFFFFF" opacity="0.8" />
      <path d="M34,31 L36,36 L34,34 Z" fill="#FFFDE0" opacity="0.7" />
      <path d="M25,39 L23,35 L25,36 Z" fill="#FFE87C" opacity="0.6" />
      
      <ellipse cx="29" cy="33" rx="1.5" ry="1.2" fill="#FFFFFF" opacity="0.95" />
      <ellipse cx="29" cy="33" rx="0.8" ry="0.6" fill="#FFFFFF" />
    </g>

    
    <line x1="28" y1="26" x2="29" y2="30" stroke="#FFFEF0" stroke-width="0.5" opacity="0.6" />
    <line x1="38" y1="34" x2="34" y2="35" stroke="#FFFEF0" stroke-width="0.5" opacity="0.6" />
    <line x1="21" y1="36" x2="25" y2="36" stroke="#FFFEF0" stroke-width="0.5" opacity="0.5" />
    <line x1="26" y1="44" x2="28" y2="41" stroke="#FFE87C" stroke-width="0.4" opacity="0.5" />
    <line x1="35" y1="28" x2="33" y2="31" stroke="#FFFACD" stroke-width="0.4" opacity="0.5" />
    <line x1="20" y1="32" x2="24" y2="34" stroke="#FFD700" stroke-width="0.4" opacity="0.4" />
  </g>
</svg>