<svg xmlns="http://www.w3.org/2000/svg" id="obstacle-root" viewBox="0 0 120 150">
  <g id="obstacle-main">
    
    <g id="obstacle-animated-part">
      <animateTransform attributeName="transform" type="rotate" values="-8,18,80;8,18,80;-8,18,80" dur="1.2s" repeatCount="indefinite" />
      
      <path d="M22,68 Q8,52 2,40 Q6,48 14,55 Q10,50 5,42 Q12,54 20,65 Z" fill="#4A7BA7" stroke="#3A6B97" stroke-width="0.5" />
      <path d="M22,68 Q10,54 5,42 Q8,50 16,58" fill="#5A8BB7" opacity="0.6" />
      
      <path d="M22,82 Q8,98 2,110 Q6,102 14,95 Q10,100 5,108 Q12,96 20,85 Z" fill="#4A7BA7" stroke="#3A6B97" stroke-width="0.5" />
      <path d="M22,82 Q10,96 5,108 Q8,100 16,92" fill="#5A8BB7" opacity="0.6" />
      
      <path d="M20,65 Q24,75 20,85 Q18,75 20,65" fill="#5A8BB7" />
      
      <line x1="18" y1="68" x2="6" y2="46" stroke="#3A6B97" stroke-width="0.3" opacity="0.5" />
      <line x1="18" y1="72" x2="4" y2="52" stroke="#3A6B97" stroke-width="0.3" opacity="0.5" />
      <line x1="18" y1="78" x2="4" y2="98" stroke="#3A6B97" stroke-width="0.3" opacity="0.5" />
      <line x1="18" y1="82" x2="6" y2="104" stroke="#3A6B97" stroke-width="0.3" opacity="0.5" />
    </g>

    
    <ellipse cx="26" cy="75" rx="8" ry="10" fill="#6A9DC7" />

    
    <path d="M26,85 Q50,105 80,95 Q95,88 105,78 Q95,92 80,98 Q55,108 30,90 Z" fill="#5A8DB5" stroke="#4A7DA5" stroke-width="0.3" />

    
    <path d="M22,75 Q30,50 55,42 Q75,36 95,45 Q108,55 110,70 Q108,82 95,90 Q75,98 55,95 Q35,92 25,82 Z" fill="#7AB0D4" />

    
    <path d="M30,58 Q50,44 75,40 Q90,42 100,52 Q90,44 75,43 Q55,46 35,58 Z" fill="#9AC8E2" opacity="0.7" />

    
    <g opacity="0.35">
      <path d="M35,60 Q38,58 41,60 Q38,62 35,60" fill="#B8DCF0" />
      <path d="M42,58 Q45,56 48,58 Q45,60 42,58" fill="#B8DCF0" />
      <path d="M49,56 Q52,54 55,56 Q52,58 49,56" fill="#B8DCF0" />
      <path d="M56,55 Q59,53 62,55 Q59,57 56,55" fill="#B8DCF0" />
      <path d="M63,54 Q66,52 69,54 Q66,56 63,54" fill="#B8DCF0" />
      <path d="M70,55 Q73,53 76,55 Q73,57 70,55" fill="#B8DCF0" />
      <path d="M77,57 Q80,55 83,57 Q80,59 77,57" fill="#B8DCF0" />
      <path d="M84,60 Q87,58 90,60 Q87,62 84,60" fill="#B8DCF0" />
      
      <path d="M38,65 Q41,63 44,65 Q41,67 38,65" fill="#A8CCE0" />
      <path d="M45,63 Q48,61 51,63 Q48,65 45,63" fill="#A8CCE0" />
      <path d="M52,62 Q55,60 58,62 Q55,64 52,62" fill="#A8CCE0" />
      <path d="M59,61 Q62,59 65,61 Q62,63 59,61" fill="#A8CCE0" />
      <path d="M66,61 Q69,59 72,61 Q69,63 66,61" fill="#A8CCE0" />
      <path d="M73,62 Q76,60 79,62 Q76,64 73,62" fill="#A8CCE0" />
      <path d="M80,64 Q83,62 86,64 Q83,66 80,64" fill="#A8CCE0" />
      <path d="M87,67 Q90,65 93,67 Q90,69 87,67" fill="#A8CCE0" />
      
      <path d="M40,72 Q43,70 46,72 Q43,74 40,72" fill="#98BCD0" />
      <path d="M47,70 Q50,68 53,70 Q50,72 47,70" fill="#98BCD0" />
      <path d="M54,69 Q57,67 60,69 Q57,71 54,69" fill="#98BCD0" />
      <path d="M61,68 Q64,66 67,68 Q64,70 61,68" fill="#98BCD0" />
      <path d="M68,68 Q71,66 74,68 Q71,70 68,68" fill="#98BCD0" />
      <path d="M75,69 Q78,67 81,69 Q78,71 75,69" fill="#98BCD0" />
      <path d="M82,71 Q85,69 88,71 Q85,73 82,71" fill="#98BCD0" />
      
      <path d="M42,79 Q45,77 48,79 Q45,81 42,79" fill="#88ACC0" />
      <path d="M49,77 Q52,75 55,77 Q52,79 49,77" fill="#88ACC0" />
      <path d="M56,76 Q59,74 62,76 Q59,78 56,76" fill="#88ACC0" />
      <path d="M63,76 Q66,74 69,76 Q66,78 63,76" fill="#88ACC0" />
      <path d="M70,76 Q73,74 76,76 Q73,78 70,76" fill="#88ACC0" />
      <path d="M77,77 Q80,75 83,77 Q80,79 77,77" fill="#88ACC0" />
      
      <path d="M48,84 Q51,82 54,84 Q51,86 48,84" fill="#7AA0B5" />
      <path d="M55,83 Q58,81 61,83 Q58,85 55,83" fill="#7AA0B5" />
      <path d="M62,83 Q65,81 68,83 Q65,85 62,83" fill="#7AA0B5" />
      <path d="M69,83 Q72,81 75,83 Q72,85 69,83" fill="#7AA0B5" />
    </g>

    
    <path d="M40,88 Q60,96 85,90 Q95,85 100,78 Q96,88 85,93 Q60,100 40,90 Z" fill="#C0DFF0" opacity="0.4" />

    
    <path d="M30,75 Q55,70 90,68" fill="none" stroke="#4A7DA5" stroke-width="0.6" opacity="0.5" />

    
    <path d="M45,92 Q52,108 60,92 Q55,100 50,100 Z" fill="#5A8DB5" stroke="#4A7DA5" stroke-width="0.3" />
    <line x1="48" y1="93" x2="50" y2="104" stroke="#4A7DA5" stroke-width="0.3" opacity="0.4" />
    <line x1="53" y1="93" x2="54" y2="104" stroke="#4A7DA5" stroke-width="0.3" opacity="0.4" />
    <line x1="57" y1="93" x2="56" y2="102" stroke="#4A7DA5" stroke-width="0.3" opacity="0.4" />

    
    <path d="M65,88 Q68,100 75,95 Q70,96 68,92 Z" fill="#6A9DC7" stroke="#4A7DA5" stroke-width="0.3" />

    
    <path d="M82,78 Q90,92 98,88 Q92,90 86,84 Z" fill="#5A8DB5" opacity="0.7" stroke="#4A7DA5" stroke-width="0.3" />

    
    <path d="M85,72 Q95,82 102,78 Q98,82 92,80 Q96,86 100,88 Q94,86 88,80 Z" fill="#6A9DC7" stroke="#4A7DA5" stroke-width="0.4" />
    <line x1="86" y1="73" x2="96" y2="82" stroke="#4A7DA5" stroke-width="0.3" opacity="0.4" />
    <line x1="87" y1="75" x2="98" y2="86" stroke="#4A7DA5" stroke-width="0.3" opacity="0.4" />

    
    <path d="M45,48 Q50,28 58,25 Q62,28 65,35 Q68,30 72,28 Q74,34 75,42 Q78,36 82,34 Q82,40 80,48 Q65,44 50,46 Z" fill="#4A7BA7" stroke="#3A6B97" stroke-width="0.5" />
    
    <line x1="50" y1="46" x2="54" y2="28" stroke="#3A6B97" stroke-width="0.4" opacity="0.5" />
    <line x1="55" y1="45" x2="58" y2="26" stroke="#3A6B97" stroke-width="0.4" opacity="0.5" />
    <line x1="60" y1="44" x2="62" y2="30" stroke="#3A6B97" stroke-width="0.4" opacity="0.5" />
    <line x1="65" y1="44" x2="68" y2="30" stroke="#3A6B97" stroke-width="0.4" opacity="0.5" />
    <line x1="70" y1="44" x2="72" y2="30" stroke="#3A6B97" stroke-width="0.4" opacity="0.5" />
    <line x1="75" y1="45" x2="78" y2="36" stroke="#3A6B97" stroke-width="0.4" opacity="0.5" />
    
    <path d="M52,44 Q55,32 58,27 Q56,34 54,42 Z" fill="#7AB0D4" opacity="0.4" />

    
    <path d="M95,55 Q108,60 115,70 Q108,80 95,85 Q100,75 100,70 Q100,62 95,55 Z" fill="#7AB0D4" stroke="#5A90B4" stroke-width="0.3" />
    
    <path d="M95,55 Q102,58 108,63 Q104,58 98,55 Z" fill="#5A8DB5" opacity="0.5" />
    
    <ellipse cx="104" cy="72" rx="4" ry="5" fill="#9AC8E2" opacity="0.4" />

    
    <path d="M92,60 Q90,70 92,80" fill="none" stroke="#4A7DA5" stroke-width="0.8" opacity="0.6" />
    <path d="M93,62 Q91,70 93,78" fill="none" stroke="#5A8DB5" stroke-width="0.4" opacity="0.4" />

    
    <path d="M112,70 Q116,72 115,74 Q112,73 110,72" fill="#3A6080" stroke="#2A5070" stroke-width="0.4" />

    
    <path d="M110,72 Q112,76 108,80" fill="none" stroke="#4A7DA5" stroke-width="0.5" opacity="0.5" />

    
    <circle cx="106" cy="64" r="4.5" fill="#1A2030" />
    
    <circle cx="106" cy="64" r="3.5" fill="#2A4060" />
    
    <circle cx="106" cy="64" r="3.5" fill="url(#eyeGrad)" opacity="0.8" />
    
    <circle cx="106.5" cy="63.5" r="2" fill="#0A0A15" />
    
    <circle cx="107.5" cy="62.5" r="1" fill="#FFFFFF" opacity="0.9" />
    <circle cx="105" cy="65" r="0.5" fill="#FFFFFF" opacity="0.5" />
    
    <circle cx="106" cy="64" r="4.5" fill="none" stroke="#8AB0C8" stroke-width="0.4" opacity="0.6" />

    
    <ellipse cx="111" cy="66" rx="0.8" ry="0.5" fill="#3A5A78" />

    
    <g opacity="0.8">
      
      <ellipse cx="10" cy="30" rx="2" ry="2.5" fill="#A0D4F0" transform="rotate(-20,10,30)" />
      <ellipse cx="10" cy="30" rx="1" ry="1.2" fill="#C8E8FF" opacity="0.6" transform="rotate(-20,10,30)" />
      
      <ellipse cx="25" cy="18" rx="1.8" ry="2.2" fill="#90C8E8" transform="rotate(-10,25,18)" />
      <ellipse cx="25" cy="18" rx="0.8" ry="1" fill="#C8E8FF" opacity="0.6" transform="rotate(-10,25,18)" />
      
      <ellipse cx="42" cy="12" rx="2.2" ry="2.8" fill="#A0D4F0" transform="rotate(5,42,12)" />
      <ellipse cx="42" cy="12" rx="1.1" ry="1.4" fill="#D0F0FF" opacity="0.6" transform="rotate(5,42,12)" />
      
      <ellipse cx="60" cy="10" rx="1.5" ry="2" fill="#90C8E8" transform="rotate(10,60,10)" />
      <ellipse cx="60" cy="10" rx="0.7" ry="0.9" fill="#C8E8FF" opacity="0.6" transform="rotate(10,60,10)" />
      
      <ellipse cx="78" cy="15" rx="2" ry="2.5" fill="#A0D4F0" transform="rotate(15,78,15)" />
      <ellipse cx="78" cy="15" rx="1" ry="1.2" fill="#D0F0FF" opacity="0.6" transform="rotate(15,78,15)" />
      
      <ellipse cx="95" cy="28" rx="1.6" ry="2" fill="#90C8E8" transform="rotate(25,95,28)" />
      <ellipse cx="95" cy="28" rx="0.7" ry="0.9" fill="#C8E8FF" opacity="0.6" transform="rotate(25,95,28)" />
      
      <ellipse cx="108" cy="42" rx="1.8" ry="2.3" fill="#A0D4F0" transform="rotate(30,108,42)" />
      <ellipse cx="108" cy="42" rx="0.9" ry="1.1" fill="#D0F0FF" opacity="0.6" transform="rotate(30,108,42)" />

      
      <circle cx="16" cy="24" r="1" fill="#B0DCF4" />
      <circle cx="34" cy="14" r="0.8" fill="#B0DCF4" />
      <circle cx="50" cy="8" r="1.2" fill="#B0DCF4" />
      <circle cx="68" cy="8" r="0.7" fill="#B0DCF4" />
      <circle cx="86" cy="18" r="1" fill="#B0DCF4" />
      <circle cx="102" cy="35" r="0.9" fill="#B0DCF4" />
      
      
      <circle cx="20" cy="35" r="0.5" fill="#C8E8FF" />
      <circle cx="38" cy="20" r="0.6" fill="#C8E8FF" />
      <circle cx="55" cy="15" r="0.5" fill="#C8E8FF" />
      <circle cx="72" cy="12" r="0.4" fill="#C8E8FF" />
      <circle cx="90" cy="22" r="0.5" fill="#C8E8FF" />
      <circle cx="112" cy="50" r="0.5" fill="#C8E8FF" />
      
      
      <ellipse cx="15" cy="120" rx="1.5" ry="2" fill="#90C8E8" opacity="0.6" />
      <ellipse cx="35" cy="130" rx="1" ry="1.5" fill="#A0D4F0" opacity="0.5" />
      <ellipse cx="55" cy="135" rx="1.3" ry="1.8" fill="#90C8E8" opacity="0.5" />
      <ellipse cx="80" cy="128" rx="1" ry="1.4" fill="#A0D4F0" opacity="0.5" />
      <ellipse cx="100" cy="118" rx="1.2" ry="1.6" fill="#90C8E8" opacity="0.6" />
      
      <circle cx="25" cy="125" r="0.6" fill="#C8E8FF" opacity="0.5" />
      <circle cx="45" cy="138" r="0.5" fill="#C8E8FF" opacity="0.4" />
      <circle cx="70" cy="132" r="0.7" fill="#C8E8FF" opacity="0.5" />
      <circle cx="90" cy="122" r="0.5" fill="#C8E8FF" opacity="0.4" />
    </g>

    
    <path d="M30,55 Q50,44 75,40 Q88,40 95,48" fill="none" stroke="#C0E4F8" stroke-width="0.6" opacity="0.5" />

    
    <path d="M40,62 Q60,58 85,60" fill="none" stroke="#D0F0FF" stroke-width="1" opacity="0.3" stroke-linecap="round" />
    <path d="M45,66 Q65,63 82,65" fill="none" stroke="#D0F0FF" stroke-width="0.6" opacity="0.2" stroke-linecap="round" />
  </g>
  
  <defs>
    <radialGradient id="eyeGrad" cx="50%" cy="45%" r="50%">
      <stop offset="0%" stop-color="#4A80A0" />
      <stop offset="60%" stop-color="#2A5070" />
      <stop offset="100%" stop-color="#1A3050" />
    </radialGradient>
  </defs>
</svg>