<svg xmlns="http://www.w3.org/2000/svg" id="obstacle-root" viewBox="0 0 120 150">
  <g id="obstacle-main">
    
    <g>
      
      <path d="M10 140 Q12 120 8 105" fill="none" stroke="#2d8a2d" stroke-width="2.5" stroke-linecap="round" />
      <path d="M18 142 Q20 118 15 100" fill="none" stroke="#3a9e3a" stroke-width="2" stroke-linecap="round" />
      <path d="M25 143 Q28 125 22 108" fill="none" stroke="#2d8a2d" stroke-width="2.2" stroke-linecap="round" />
      <path d="M95 141 Q92 120 97 103" fill="none" stroke="#3a9e3a" stroke-width="2.3" stroke-linecap="round" />
      <path d="M102 142 Q100 122 105 107" fill="none" stroke="#2d8a2d" stroke-width="2" stroke-linecap="round" />
      <path d="M110 140 Q108 125 112 110" fill="none" stroke="#3a9e3a" stroke-width="2.5" stroke-linecap="round" />
      <path d="M35 144 Q38 130 33 115" fill="none" stroke="#258025" stroke-width="1.8" stroke-linecap="round" />
      <path d="M85 143 Q82 128 87 112" fill="none" stroke="#258025" stroke-width="2" stroke-linecap="round" />
    </g>

    
    <ellipse cx="60" cy="146" rx="50" ry="6" fill="#3d7a2e" />
    <ellipse cx="60" cy="145" rx="48" ry="5" fill="#4a9636" />

    
    <path d="M42 85 Q40 110 43 140 L77 140 Q80 110 78 85 Z" fill="#c4a86a" />

    
    <path d="M44 83 Q42 100 41 115 Q40 130 44 142 L76 142 Q80 130 79 115 Q78 100 76 83 Z" fill="#f5e6c8" />

    
    <path d="M48 85 Q46 105 45 120 Q44 135 47 142 L52 142 Q50 130 50 115 Q50 100 52 85 Z" fill="#faf3e3" opacity="0.6" />

    
    <path d="M70 85 Q72 105 73 120 Q74 135 72 142 L76 142 Q80 130 79 115 Q78 100 76 83 Z" fill="#b89a5a" opacity="0.4" />

    
    <path d="M50 90 Q49 110 50 130" fill="none" stroke="#d4c49a" stroke-width="0.5" opacity="0.5" />
    <path d="M55 88 Q54 110 55 132" fill="none" stroke="#d4c49a" stroke-width="0.4" opacity="0.4" />
    <path d="M65 88 Q66 110 65 132" fill="none" stroke="#d4c49a" stroke-width="0.4" opacity="0.4" />
    <path d="M70 90 Q71 110 70 130" fill="none" stroke="#d4c49a" stroke-width="0.5" opacity="0.5" />

    
    <g>
      
      <path d="M34 86 Q38 92 45 90 Q50 94 55 90 Q60 95 65 90 Q70 94 75 90 Q82 92 86 86 Q84 90 75 93 Q68 97 60 93 Q52 97 45 93 Q36 90 34 86 Z" fill="#c4a86a" opacity="0.5" />
      
      <path d="M35 83 Q39 90 46 87 Q51 92 57 88 Q61 93 67 88 Q72 92 77 87 Q83 90 85 83 Q82 88 76 90 Q70 94 63 90 Q57 95 50 90 Q44 94 38 90 Q35 88 35 83 Z" fill="#f5e6c8" />
      
      <path d="M37 83 Q40 88 47 86 Q52 90 58 87 Q62 91 68 87 Q73 90 78 86 Q83 88 84 83" fill="none" stroke="#faf3e3" stroke-width="0.8" opacity="0.7" />
      
      <path d="M36 85 Q40 91 47 88 Q52 93 58 89 Q62 94 68 89 Q73 93 78 88 Q84 91 86 85" fill="none" stroke="#d4b87a" stroke-width="0.6" opacity="0.5" />
    </g>

    
    <g id="obstacle-animated-part">
      <animate attributeName="opacity" values="0.96;1.0;0.96" dur="2.8s" repeatCount="indefinite" />
      <animateTransform
        attributeName="transform"
        type="rotate"
        values="-2 60 72;2 60 72;-2 60 72"
        dur="3.2s"
        repeatCount="indefinite"
      />
      
      <ellipse cx="60" cy="72" rx="42" ry="14" fill="#e8a0b0" />
      
      <line x1="60" y1="72" x2="20" y2="76" stroke="#d4808f" stroke-width="0.7" opacity="0.6" />
      <line x1="60" y1="72" x2="25" y2="72" stroke="#d4808f" stroke-width="0.7" opacity="0.6" />
      <line x1="60" y1="72" x2="22" y2="68" stroke="#d4808f" stroke-width="0.7" opacity="0.6" />
      <line x1="60" y1="72" x2="28" y2="64" stroke="#d4808f" stroke-width="0.6" opacity="0.5" />
      <line x1="60" y1="72" x2="35" y2="61" stroke="#d4808f" stroke-width="0.6" opacity="0.5" />
      <line x1="60" y1="72" x2="45" y2="59" stroke="#d4808f" stroke-width="0.6" opacity="0.5" />
      <line x1="60" y1="72" x2="100" y2="76" stroke="#d4808f" stroke-width="0.7" opacity="0.6" />
      <line x1="60" y1="72" x2="95" y2="72" stroke="#d4808f" stroke-width="0.7" opacity="0.6" />
      <line x1="60" y1="72" x2="98" y2="68" stroke="#d4808f" stroke-width="0.7" opacity="0.6" />
      <line x1="60" y1="72" x2="92" y2="64" stroke="#d4808f" stroke-width="0.6" opacity="0.5" />
      <line x1="60" y1="72" x2="85" y2="61" stroke="#d4808f" stroke-width="0.6" opacity="0.5" />
      <line x1="60" y1="72" x2="75" y2="59" stroke="#d4808f" stroke-width="0.6" opacity="0.5" />
      <line x1="60" y1="72" x2="55" y2="58" stroke="#d4808f" stroke-width="0.5" opacity="0.4" />
      <line x1="60" y1="72" x2="65" y2="58" stroke="#d4808f" stroke-width="0.5" opacity="0.4" />
      
      <ellipse cx="60" cy="72" rx="20" ry="7" fill="#d98a9a" opacity="0.4" />

      
      <path d="M8 72 Q8 25 60 10 Q112 25 112 72 Q112 80 60 78 Q8 80 8 72 Z" fill="#8b1a1a" opacity="0.3" />
      
      <path d="M10 70 Q10 22 60 8 Q110 22 110 70 Q110 78 60 76 Q10 78 10 70 Z" fill="#cc2222" />
      
      <path d="M14 68 Q14 26 60 12 Q106 26 106 68 Q106 74 60 73 Q14 74 14 68 Z" fill="#dd3333" opacity="0.7" />
      
      <path d="M30 30 Q40 18 60 14 Q72 18 78 26 Q70 20 60 18 Q45 20 30 30 Z" fill="#ff6666" opacity="0.5" />
      
      <ellipse cx="42" cy="28" rx="10" ry="6" fill="#ff7777" opacity="0.4" transform="rotate(-15 42 28)" />
      
      <path d="M12 70 Q12 74 60 76 Q108 74 108 70 Q108 73 60 75 Q12 73 12 70 Z" fill="#991515" opacity="0.5" />
      
      <ellipse cx="38" cy="35" rx="7" ry="6" fill="#ffffff" transform="rotate(-5 38 35)" />
      <ellipse cx="72" cy="30" rx="6.5" ry="5.5" fill="#ffffff" transform="rotate(8 72 30)" />
      <ellipse cx="55" cy="20" rx="6" ry="5" fill="#ffffff" transform="rotate(-3 55 20)" />
      <ellipse cx="60" cy="50" rx="7" ry="5.5" fill="#ffffff" transform="rotate(5 60 50)" />
      
      <ellipse cx="25" cy="52" rx="5" ry="4.5" fill="#ffffff" transform="rotate(-10 25 52)" />
      <ellipse cx="88" cy="48" rx="5.5" ry="4.5" fill="#ffffff" transform="rotate(12 88 48)" />
      <ellipse cx="42" cy="58" rx="5" ry="4" fill="#ffffff" transform="rotate(-8 42 58)" />
      <ellipse cx="78" cy="58" rx="5" ry="4" fill="#ffffff" transform="rotate(6 78 58)" />
      <ellipse cx="82" cy="35" rx="5" ry="4.5" fill="#ffffff" transform="rotate(3 82 35)" />
      
      <ellipse cx="20" cy="65" rx="3.5" ry="3" fill="#ffffff" transform="rotate(-5 20 65)" />
      <ellipse cx="98" cy="62" rx="3.5" ry="3" fill="#ffffff" transform="rotate(7 98 62)" />
      <ellipse cx="50" cy="40" rx="4" ry="3.5" fill="#ffffff" transform="rotate(2 50 40)" />
      <ellipse cx="68" cy="42" rx="3.5" ry="3" fill="#ffffff" transform="rotate(-4 68 42)" />
      <ellipse cx="35" cy="67" rx="3" ry="2.5" fill="#ffffff" />
      <ellipse cx="75" cy="68" rx="3" ry="2.5" fill="#ffffff" />
      
      <ellipse cx="48" cy="28" rx="2.5" ry="2" fill="#ffffff" />
      <ellipse cx="92" cy="55" rx="2.5" ry="2" fill="#ffffff" />
      <ellipse cx="30" cy="44" rx="3" ry="2.5" fill="#ffffff" />
      
      <ellipse cx="36" cy="33" rx="2" ry="1.5" fill="#ffffff" opacity="0.5" />
      <ellipse cx="70" cy="28" rx="2" ry="1.5" fill="#ffffff" opacity="0.5" />
      <ellipse cx="53" cy="18" rx="1.8" ry="1.3" fill="#ffffff" opacity="0.5" />
    </g>

    
    <g>
      <path d="M40 145 Q42 130 38 118" fill="none" stroke="#3a9e3a" stroke-width="2.2" stroke-linecap="round" />
      <path d="M50 146 Q53 132 48 120" fill="none" stroke="#2d8a2d" stroke-width="2" stroke-linecap="round" />
      <path d="M70 146 Q67 132 72 120" fill="none" stroke="#2d8a2d" stroke-width="2" stroke-linecap="round" />
      <path d="M80 145 Q78 130 82 118" fill="none" stroke="#3a9e3a" stroke-width="2.2" stroke-linecap="round" />
      <path d="M55 147 Q57 138 54 128" fill="none" stroke="#45a845" stroke-width="1.5" stroke-linecap="round" />
      <path d="M65 147 Q63 138 66 128" fill="none" stroke="#45a845" stroke-width="1.5" stroke-linecap="round" />
      
      <path d="M30 146 Q32 138 28 130" fill="none" stroke="#3a9e3a" stroke-width="1.8" stroke-linecap="round" />
      <path d="M90 146 Q88 138 92 130" fill="none" stroke="#3a9e3a" stroke-width="1.8" stroke-linecap="round" />
    </g>

    
    <g opacity="0.7">
      <ellipse cx="32" cy="143" rx="2.5" ry="1.5" fill="#3d9e3d" transform="rotate(-20 32 143)" />
      <ellipse cx="34" cy="142" rx="2.5" ry="1.5" fill="#4aaf4a" transform="rotate(20 34 142)" />
      <ellipse cx="88" cy="143" rx="2.5" ry="1.5" fill="#3d9e3d" transform="rotate(20 88 143)" />
      <ellipse cx="86" cy="142" rx="2.5" ry="1.5" fill="#4aaf4a" transform="rotate(-20 86 142)" />
    </g>
  </g>
</svg>
