<svg xmlns="http://www.w3.org/2000/svg" id="obstacle-root" viewBox="0 0 120 150">
  <g id="obstacle-main">
    
    <ellipse cx="60" cy="140" rx="42" ry="8" fill="#2a1a0a" opacity="0.35" />

    
    <ellipse cx="60" cy="135" rx="22" ry="7" fill="#e8dcc8" />
    <ellipse cx="60" cy="135" rx="22" ry="7" fill="#d4c4a8" opacity="0.5" />

    
    <path d="M42 135 C42 135 40 105 44 90 L76 90 C80 105 78 135 78 135 Z" fill="#f0e6d2" />
    
    <path d="M42 135 C42 135 40 105 44 90 L52 90 C48 105 46 135 50 135 Z" fill="#d9ccb4" opacity="0.5" />
    
    <path d="M78 135 C78 135 80 105 76 90 L70 90 C74 105 76 135 72 135 Z" fill="#d9ccb4" opacity="0.4" />
    
    <path d="M50 95 C51 110 50 125 52 134" stroke="#c8b898" stroke-width="0.7" fill="none" opacity="0.5" />
    <path d="M56 93 C56 112 55 126 56 134" stroke="#c8b898" stroke-width="0.5" fill="none" opacity="0.4" />
    <path d="M64 93 C64 112 65 126 64 134" stroke="#c8b898" stroke-width="0.5" fill="none" opacity="0.4" />
    <path d="M70 95 C69 110 70 125 68 134" stroke="#c8b898" stroke-width="0.7" fill="none" opacity="0.5" />

    
    <ellipse cx="60" cy="118" rx="24" ry="5" fill="#f5edd8" />
    <path d="M36 118 C38 124 42 127 46 125 C50 128 54 126 58 128 C62 126 66 128 70 125 C74 127 78 124 82 118" fill="#f0e6d2" stroke="#d4c4a8" stroke-width="0.5" />
    <path d="M36 118 C38 124 42 127 46 125 C50 128 54 126 58 128 C62 126 66 128 70 125 C74 127 78 124 82 118" fill="none" stroke="#c8b898" stroke-width="0.8" opacity="0.6" />
    
    <ellipse cx="60" cy="117" rx="22" ry="3.5" fill="#faf4e8" opacity="0.6" />

    
    <g id="obstacle-animated-part">
      <animate attributeName="opacity" values="0.96;1.0;0.96" dur="2.8s" repeatCount="indefinite" />
      <animateTransform
        attributeName="transform"
        type="rotate"
        values="-2 60 88;2 60 88;-2 60 88"
        dur="3.2s"
        repeatCount="indefinite"
      />
      
      <path d="M18 88 C18 95 35 102 60 102 C85 102 102 95 102 88" fill="#8b3a3a" opacity="0.7" />
      
      <line x1="30" y1="90" x2="35" y2="99" stroke="#6b2222" stroke-width="0.6" opacity="0.5" />
      <line x1="40" y1="89" x2="42" y2="100" stroke="#6b2222" stroke-width="0.6" opacity="0.5" />
      <line x1="50" y1="88" x2="50" y2="101" stroke="#6b2222" stroke-width="0.6" opacity="0.5" />
      <line x1="60" y1="88" x2="60" y2="102" stroke="#6b2222" stroke-width="0.6" opacity="0.5" />
      <line x1="70" y1="88" x2="70" y2="101" stroke="#6b2222" stroke-width="0.6" opacity="0.5" />
      <line x1="80" y1="89" x2="78" y2="100" stroke="#6b2222" stroke-width="0.6" opacity="0.5" />
      <line x1="90" y1="90" x2="85" y2="99" stroke="#6b2222" stroke-width="0.6" opacity="0.5" />
      
      <ellipse cx="60" cy="88" rx="44" ry="6" fill="#a04040" opacity="0.4" />

      
      <path d="M10 88 C10 40 30 12 60 10 C90 12 110 40 110 88 Z" fill="#cc1a1a" />
      
      <path d="M10 88 C10 40 30 12 60 10 C40 15 22 42 18 88 Z" fill="#a01010" opacity="0.45" />
      <path d="M110 88 C110 40 90 12 60 10 C80 15 98 42 102 88 Z" fill="#a01010" opacity="0.35" />
      
      <path d="M40 25 C45 18 55 14 62 13 C70 14 78 20 82 28 C75 20 65 17 58 17 C50 17 44 20 40 25 Z" fill="#e83030" opacity="0.6" />
      
      <ellipse cx="48" cy="35" rx="12" ry="8" fill="#e84040" opacity="0.3" transform="rotate(-15 48 35)" />
      
      <ellipse cx="42" cy="38" rx="8" ry="7" fill="#ffffff" transform="rotate(-10 42 38)" />
      <ellipse cx="75" cy="32" rx="7" ry="6.5" fill="#ffffff" transform="rotate(8 75 32)" />
      <ellipse cx="58" cy="22" rx="6" ry="5.5" fill="#ffffff" transform="rotate(5 58 22)" />
      
      <ellipse cx="28" cy="60" rx="6.5" ry="5.5" fill="#ffffff" transform="rotate(-20 28 60)" />
      <ellipse cx="90" cy="55" rx="6" ry="5" fill="#ffffff" transform="rotate(15 90 55)" />
      <ellipse cx="60" cy="50" rx="5.5" ry="5" fill="#ffffff" />
      <ellipse cx="78" cy="65" rx="5.5" ry="4.5" fill="#ffffff" transform="rotate(10 78 65)" />
      
      <ellipse cx="45" cy="65" rx="4.5" ry="4" fill="#ffffff" transform="rotate(-5 45 65)" />
      <ellipse cx="35" cy="78" rx="5" ry="4" fill="#ffffff" transform="rotate(-25 35 78)" />
      <ellipse cx="68" cy="78" rx="4.5" ry="3.5" fill="#ffffff" transform="rotate(12 68 78)" />
      <ellipse cx="52" cy="80" rx="4" ry="3" fill="#ffffff" transform="rotate(-8 52 80)" />
      <ellipse cx="92" cy="75" rx="4" ry="3" fill="#ffffff" transform="rotate(20 92 75)" />
      
      <ellipse cx="18" cy="78" rx="5" ry="4" fill="#ffffff" opacity="0.8" transform="rotate(-30 18 78)" />
      <ellipse cx="100" cy="78" rx="4.5" ry="3.5" fill="#ffffff" opacity="0.8" transform="rotate(25 100 78)" />

      
      <ellipse cx="38" cy="42" rx="2" ry="1" fill="#ffffff" opacity="0.7" transform="rotate(-10 38 42)" />
      <ellipse cx="72" cy="36" rx="1.8" ry="0.9" fill="#ffffff" opacity="0.65" transform="rotate(5 72 36)" />
      <ellipse cx="55" cy="26" rx="1.5" ry="0.8" fill="#ffffff" opacity="0.7" />
      <ellipse cx="85" cy="58" rx="2" ry="0.8" fill="#ffffff" opacity="0.6" transform="rotate(12 85 58)" />
      <ellipse cx="25" cy="65" rx="1.8" ry="0.7" fill="#ffffff" opacity="0.55" transform="rotate(-18 25 65)" />
      <ellipse cx="63" cy="55" rx="1.5" ry="0.7" fill="#ffffff" opacity="0.6" />
      <ellipse cx="48" cy="70" rx="1.3" ry="0.6" fill="#ffffff" opacity="0.5" />
      <ellipse cx="78" cy="72" rx="1.6" ry="0.7" fill="#ffffff" opacity="0.55" transform="rotate(8 78 72)" />
      
      <ellipse cx="45" cy="30" rx="3.5" ry="1.2" fill="#ffffff" opacity="0.35" transform="rotate(-12 45 30)" />
      <ellipse cx="70" cy="45" rx="3" ry="1" fill="#ffffff" opacity="0.3" transform="rotate(10 70 45)" />
      <ellipse cx="30" cy="50" rx="2.5" ry="0.8" fill="#ffffff" opacity="0.25" transform="rotate(-22 30 50)" />

      
      <circle cx="15" cy="85" r="1.2" fill="#ffffff" opacity="0.5" />
      <circle cx="25" cy="84" r="0.9" fill="#ffffff" opacity="0.45" />
      <circle cx="95" cy="84" r="1" fill="#ffffff" opacity="0.45" />
      <circle cx="105" cy="85" r="1.1" fill="#ffffff" opacity="0.4" />
    </g>

    
    <path d="M30 140 C31 133 33 130 34 133 C35 129 37 131 36 140" fill="#3a7a2a" opacity="0.7" />
    <path d="M85 140 C86 134 88 131 89 134 C90 130 92 132 91 140" fill="#3a7a2a" opacity="0.6" />
    <path d="M38 141 C39 136 40 134 41 137 C42 133 43 136 42 141" fill="#4a8a3a" opacity="0.5" />
    <path d="M78 141 C79 137 80 135 81 138 C82 134 83 137 82 141" fill="#4a8a3a" opacity="0.5" />
    
    <ellipse cx="94" cy="139" rx="3" ry="1" fill="#d4c4a8" opacity="0.6" />
    <path d="M93 139 C93 137 93.5 135 94 135 C94.5 135 95 137 95 139" fill="#f0e6d2" opacity="0.6" />
    <path d="M91 135 C91 133 93 131 94 131 C95 131 97 133 97 135 Z" fill="#cc6633" opacity="0.5" />
  </g>
</svg>
