<svg xmlns="http://www.w3.org/2000/svg" id="obstacle-root" viewBox="0 0 120 150">
  <defs>
    <radialGradient id="faceGrad" cx="50%" cy="40%" r="50%">
      <stop offset="0%" stop-color="#FFE0BD" />
      <stop offset="100%" stop-color="#F5C8A0" />
    </radialGradient>
    <linearGradient id="capeGrad" x1="0" y1="0" x2="0" y2="1">
      <stop offset="0%" stop-color="#8B0000" />
      <stop offset="50%" stop-color="#B22222" />
      <stop offset="100%" stop-color="#6B0000" />
    </linearGradient>
    <linearGradient id="tunicGrad" x1="0" y1="0" x2="0" y2="1">
      <stop offset="0%" stop-color="#1E3A8A" />
      <stop offset="100%" stop-color="#1E2D6A" />
    </linearGradient>
    <linearGradient id="crownGrad" x1="0" y1="0" x2="0" y2="1">
      <stop offset="0%" stop-color="#FFD700" />
      <stop offset="60%" stop-color="#DAA520" />
      <stop offset="100%" stop-color="#B8860B" />
    </linearGradient>
    <linearGradient id="bootGrad" x1="0" y1="0" x2="0" y2="1">
      <stop offset="0%" stop-color="#4A3728" />
      <stop offset="100%" stop-color="#2E1F14" />
    </linearGradient>
    <linearGradient id="sashGrad" x1="0" y1="0" x2="1" y2="1">
      <stop offset="0%" stop-color="#FFD700" />
      <stop offset="100%" stop-color="#DAA520" />
    </linearGradient>
  </defs>

  <g id="obstacle-main">
    
    <ellipse cx="60" cy="147" rx="22" ry="3" fill="#00000030" />

    
    <path d="M38 52 C35 55 28 80 30 110 C32 125 36 135 40 140 L80 140 C84 135 88 125 90 110 C92 80 85 55 82 52 Z" fill="url(#capeGrad)" />
    <path d="M38 52 C36 60 32 85 34 110 C35 120 37 130 40 137" fill="none" stroke="#6B0000" stroke-width="0.5" />
    <path d="M82 52 C84 60 88 85 86 110 C85 120 83 130 80 137" fill="none" stroke="#6B0000" stroke-width="0.5" />
    
    <path d="M30 108 C32 112 35 114 38 112 C41 114 44 112 47 114 C50 112 53 114 56 112 C59 114 62 112 65 114 C68 112 71 114 74 112 C77 114 80 112 83 114 C86 112 88 110 90 108" fill="#E8E0D0" stroke="#C8C0B0" stroke-width="0.3" />

    
    <rect x="47" y="108" width="10" height="28" rx="2" fill="#1A1A3A" />
    <rect x="63" y="108" width="10" height="28" rx="2" fill="#1A1A3A" />
    
    <rect x="48" y="110" width="3" height="24" rx="1" fill="#2A2A5A" opacity="0.4" />
    <rect x="64" y="110" width="3" height="24" rx="1" fill="#2A2A5A" opacity="0.4" />

    
    <path d="M45 133 L45 142 C45 145 48 146 52 146 L59 146 C61 146 61 144 59 142 L57 133 Z" fill="url(#bootGrad)" />
    <path d="M61 133 L61 142 C61 145 64 146 68 146 L75 146 C77 146 77 144 75 142 L73 133 Z" fill="url(#bootGrad)" />
    
    <path d="M47 135 L48 142 C48 144 50 145 53 145" fill="none" stroke="#6B5040" stroke-width="0.6" />
    <path d="M63 135 L64 142 C64 144 66 145 69 145" fill="none" stroke="#6B5040" stroke-width="0.6" />
    
    <rect x="45" y="132" width="12" height="3" rx="1" fill="#5A4030" />
    <rect x="61" y="132" width="12" height="3" rx="1" fill="#5A4030" />

    
    <path d="M42 52 C40 55 39 65 40 80 L40 112 L80 112 L80 80 C81 65 80 55 78 52 Z" fill="url(#tunicGrad)" />
    
    <line x1="60" y1="55" x2="60" y2="112" stroke="#162D5A" stroke-width="0.8" />
    
    <rect x="39" y="95" width="42" height="5" rx="1" fill="#4A3728" />
    <rect x="39" y="95" width="42" height="1" fill="#6B5040" opacity="0.5" />
    
    <rect x="56" y="94" width="8" height="7" rx="1" fill="#FFD700" stroke="#B8860B" stroke-width="0.5" />
    <rect x="58" y="95.5" width="4" height="4" rx="0.5" fill="#DAA520" />
    
    <circle cx="60" cy="97.5" r="1.2" fill="#E53E3E" />
    <circle cx="60" cy="97.2" r="0.5" fill="#FF6B6B" opacity="0.6" />

    
    <path d="M72 52 L42 100 L45 102 L75 54 Z" fill="url(#sashGrad)" opacity="0.85" />
    <path d="M72 52 L42 100" stroke="#B8860B" stroke-width="0.3" />

    
    <path d="M42 52 L78 52" stroke="#FFD700" stroke-width="1.2" />
    <path d="M40 112 L80 112" stroke="#FFD700" stroke-width="1" />

    
    <ellipse cx="42" cy="53" rx="6" ry="3.5" fill="#FFD700" />
    <ellipse cx="42" cy="52" rx="5.5" ry="3" fill="#DAA520" />
    <path d="M37 54 L37 60 M39 55 L39 61 M41 55.5 L41 62 M43 55.5 L43 62 M45 55 L45 61 M47 54 L47 60" stroke="#FFD700" stroke-width="0.6" />
    <ellipse cx="78" cy="53" rx="6" ry="3.5" fill="#FFD700" />
    <ellipse cx="78" cy="52" rx="5.5" ry="3" fill="#DAA520" />
    <path d="M73 54 L73 60 M75 55 L75 61 M77 55.5 L77 62 M79 55.5 L79 62 M81 55 L81 61 M83 54 L83 60" stroke="#FFD700" stroke-width="0.6" />

    
    <path d="M42 54 C36 58 32 68 30 78 C29 83 30 86 33 87" fill="url(#tunicGrad)" stroke="#162D5A" stroke-width="0.5" />
    <path d="M78 54 C84 58 88 68 90 78 C91 83 90 86 87 87" fill="url(#tunicGrad)" stroke="#162D5A" stroke-width="0.5" />
    
    <ellipse cx="31.5" cy="86" rx="4" ry="2.5" fill="#FFD700" />
    <ellipse cx="88.5" cy="86" rx="4" ry="2.5" fill="#FFD700" />
    
    <ellipse cx="30" cy="89" rx="3" ry="3.5" fill="#F5C8A0" />
    <ellipse cx="90" cy="89" rx="3" ry="3.5" fill="#F5C8A0" />
    <path d="M28 90 C28 92 29 93 30 93" stroke="#E0B090" stroke-width="0.4" fill="none" />
    <path d="M88 90 C88 92 89 93 90 93" stroke="#E0B090" stroke-width="0.4" fill="none" />

    
    <circle cx="52" cy="68" r="2.5" fill="#FFD700" stroke="#B8860B" stroke-width="0.4" />
    <circle cx="52" cy="68" r="1.5" fill="#DAA520" />
    <circle cx="52" cy="67.5" r="0.6" fill="#FFE44D" />
    <circle cx="48" cy="74" r="2" fill="#C0C0C0" stroke="#808080" stroke-width="0.4" />
    <circle cx="48" cy="74" r="1.2" fill="#D8D8D8" />
    <circle cx="55" cy="75" r="2" fill="#CD7F32" stroke="#8B5A2B" stroke-width="0.4" />

    
    <rect x="54" y="40" width="12" height="14" rx="3" fill="#F5C8A0" />
    <rect x="55" y="40" width="10" height="12" rx="2" fill="#FFE0BD" opacity="0.5" />

    
    <ellipse cx="60" cy="30" rx="16" ry="18" fill="url(#faceGrad)" />
    
    <ellipse cx="44.5" cy="31" rx="3" ry="4" fill="#F5C8A0" />
    <ellipse cx="45" cy="31" rx="2" ry="3" fill="#E8B898" />
    
    <ellipse cx="75.5" cy="31" rx="3" ry="4" fill="#F5C8A0" />
    <ellipse cx="75" cy="31" rx="2" ry="3" fill="#E8B898" />

    
    <path d="M44 22 C44 10 52 6 60 6 C68 6 76 10 76 22 C76 18 74 14 68 13 C62 12 58 12 52 13 C46 14 44 18 44 22 Z" fill="#4A2800" />
    <path d="M44 22 C43 26 43 28 44 30 C44 26 46 22 50 20 C54 18 58 17 62 18 C66 19 70 20 73 23 C75 25 76 28 76 30 C77 28 77 26 76 22" fill="#5C3400" opacity="0.7" />
    
    <path d="M44 24 C42 26 42 30 43 33" stroke="#4A2800" stroke-width="2" fill="none" stroke-linecap="round" />
    <path d="M76 24 C78 26 78 30 77 33" stroke="#4A2800" stroke-width="2" fill="none" stroke-linecap="round" />
    
    <path d="M52 9 C56 8 62 8 66 10" stroke="#6B4400" stroke-width="0.8" fill="none" />
    <path d="M48 12 C52 10 58 10 64 11" stroke="#6B4400" stroke-width="0.5" fill="none" />

    
    <path d="M50 24 C52 22 56 22 57 24" stroke="#3A2000" stroke-width="1.2" fill="none" stroke-linecap="round" />
    <path d="M63 24 C64 22 68 22 70 24" stroke="#3A2000" stroke-width="1.2" fill="none" stroke-linecap="round" />

    
    <ellipse cx="53.5" cy="28" rx="3.5" ry="3" fill="white" />
    <ellipse cx="66.5" cy="28" rx="3.5" ry="3" fill="white" />
    <circle cx="54" cy="28.2" r="2" fill="#2563EB" />
    <circle cx="67" cy="28.2" r="2" fill="#2563EB" />
    <circle cx="54" cy="28.2" r="1.2" fill="#1E1E1E" />
    <circle cx="67" cy="28.2" r="1.2" fill="#1E1E1E" />
    <circle cx="54.6" cy="27.4" r="0.5" fill="white" />
    <circle cx="67.6" cy="27.4" r="0.5" fill="white" />
    
    <path d="M50 27 C51 25.5 56 25.5 57 27" stroke="#F5C8A0" stroke-width="0.8" fill="#F5C8A0" opacity="0.3" />
    <path d="M63 27 C64 25.5 69 25.5 70 27" stroke="#F5C8A0" stroke-width="0.8" fill="#F5C8A0" opacity="0.3" />
    
    <path d="M50.5 29.5 C52 30.5 55 30.5 56.5 29.5" stroke="#3A2000" stroke-width="0.3" fill="none" />
    <path d="M63.5 29.5 C65 30.5 68 30.5 69.5 29.5" stroke="#3A2000" stroke-width="0.3" fill="none" />

    
    <path d="M59 30 C59 33 58 35 57 36 C58.5 36.5 61.5 36.5 63 36 C62 35 61 33 61 30" fill="none" stroke="#D4A574" stroke-width="0.6" />
    
    <path d="M59.5 31 L60 34" stroke="#FFE8D0" stroke-width="0.4" opacity="0.5" />

    
    <path d="M55 39 C57 41 63 41 65 39" stroke="#C0504D" stroke-width="1" fill="none" stroke-linecap="round" />
    <path d="M56 39.5 C58 40.5 62 40.5 64 39.5" fill="#D4606A" opacity="0.5" />
    
    <path d="M55 39 C54.5 38.5 54.5 38.5 55 38" stroke="#D4A574" stroke-width="0.3" fill="none" />
    <path d="M65 39 C65.5 38.5 65.5 38.5 65 38" stroke="#D4A574" stroke-width="0.3" fill="none" />

    
    <ellipse cx="49" cy="35" rx="3" ry="2" fill="#FFB6B6" opacity="0.25" />
    <ellipse cx="71" cy="35" rx="3" ry="2" fill="#FFB6B6" opacity="0.25" />

    
    <ellipse cx="60" cy="43" rx="3" ry="1.5" fill="#FFE8D0" opacity="0.3" />

    
    <g id="obstacle-animated-part">
      <animateTransform attributeName="transform" type="rotate" values="-2,60,18;2,60,18;-2,60,18" dur="3s" repeatCount="indefinite" />
      
      <rect x="46" y="10" width="28" height="8" rx="1" fill="url(#crownGrad)" />
      
      <rect x="45" y="15" width="30" height="3" rx="1" fill="#FFD700" stroke="#B8860B" stroke-width="0.3" />
      
      <circle cx="50" cy="16.5" r="1" fill="#E53E3E" />
      <circle cx="56" cy="16.5" r="1" fill="#2563EB" />
      <circle cx="60" cy="16.5" r="1.2" fill="#E53E3E" />
      <circle cx="64" cy="16.5" r="1" fill="#2563EB" />
      <circle cx="70" cy="16.5" r="1" fill="#E53E3E" />
      
      <polygon points="48,10 50,2 52,10" fill="url(#crownGrad)" />
      <polygon points="54,10 57,0 60,10" fill="url(#crownGrad)" />
      <polygon points="60,10 63,0 66,10" fill="url(#crownGrad)" />
      <polygon points="68,10 70,2 72,10" fill="url(#crownGrad)" />
      
      <circle cx="50" cy="3" r="1.2" fill="#E53E3E" stroke="#B8860B" stroke-width="0.3" />
      <circle cx="50" cy="2.5" r="0.4" fill="#FF8080" opacity="0.7" />
      <circle cx="57" cy="1" r="1.2" fill="#3B82F6" stroke="#B8860B" stroke-width="0.3" />
      <circle cx="57" cy="0.5" r="0.4" fill="#80B0FF" opacity="0.7" />
      <circle cx="63" cy="1" r="1.2" fill="#10B981" stroke="#B8860B" stroke-width="0.3" />
      <circle cx="63" cy="0.5" r="0.4" fill="#60DDB0" opacity="0.7" />
      <circle cx="70" cy="3" r="1.2" fill="#E53E3E" stroke="#B8860B" stroke-width="0.3" />
      <circle cx="70" cy="2.5" r="0.4" fill="#FF8080" opacity="0.7" />
      
      <rect x="48" y="11" width="24" height="1.5" rx="0.5" fill="#FFE44D" opacity="0.4" />
      
      <path d="M48 12 L52 14 M52 12 L56 14 M56 12 L60 14 M60 12 L64 14 M64 12 L68 14 M68 12 L72 14" stroke="#B8860B" stroke-width="0.2" opacity="0.5" />
    </g>

    
    <g>
      
      <rect x="24" y="92" width="3" height="30" rx="1" fill="#4A3728" transform="rotate(10, 25, 92)" />
      <rect x="24.5" y="92" width="1" height="28" rx="0.5" fill="#6B5040" opacity="0.4" transform="rotate(10, 25, 92)" />
      
      <rect x="24" y="86" width="3" height="8" rx="0.5" fill="#8B4513" transform="rotate(10, 25, 92)" />
      
      <rect x="20" y="86" width="11" height="2" rx="1" fill="#FFD700" transform="rotate(10, 25, 92)" />
      
      <circle cx="25.5" cy="85" r="2" fill="#FFD700" stroke="#B8860B" stroke-width="0.3" transform="rotate(10, 25, 92)" />
      <circle cx="25.5" cy="84.7" r="0.8" fill="#E53E3E" transform="rotate(10, 25, 92)" />
    </g>
  </g>
</svg>