<svg xmlns="http://www.w3.org/2000/svg" id="obstacle-root" viewBox="0 0 120 150">
  <g id="obstacle-main">
    
    <g id="obstacle-animated-part">
      <ellipse cx="60" cy="138" rx="56" ry="10" fill="#4a9ec2" opacity="0.7">
        <animate attributeName="opacity" values="0.5;0.9;0.5" dur="2.5s" repeatCount="indefinite" />
      </ellipse>
      <ellipse cx="60" cy="138" rx="52" ry="8" fill="#5bb8d4" opacity="0.6">
        <animate attributeName="opacity" values="0.9;0.5;0.9" dur="2.5s" repeatCount="indefinite" />
      </ellipse>
      
      <ellipse cx="40" cy="136" rx="12" ry="2" fill="#8de0f7" opacity="0.4">
        <animate attributeName="opacity" values="0.3;0.7;0.3" dur="1.8s" repeatCount="indefinite" />
      </ellipse>
      <ellipse cx="75" cy="139" rx="10" ry="1.5" fill="#8de0f7" opacity="0.4">
        <animate attributeName="opacity" values="0.6;0.2;0.6" dur="2.1s" repeatCount="indefinite" />
      </ellipse>
    </g>

    
    <ellipse cx="60" cy="132" rx="50" ry="12" fill="#d4a843" />
    <ellipse cx="60" cy="132" rx="48" ry="10" fill="#dbb455" />
    <ellipse cx="60" cy="130" rx="44" ry="8" fill="#e0be60" />

    
    <rect x="18" y="90" width="84" height="42" rx="2" fill="#c9a03a" />
    
    <rect x="18" y="95" width="84" height="2" fill="#b8922f" opacity="0.6" />
    <rect x="18" y="101" width="84" height="2" fill="#b8922f" opacity="0.6" />
    <rect x="18" y="107" width="84" height="2" fill="#b8922f" opacity="0.6" />
    <rect x="18" y="113" width="84" height="2" fill="#b8922f" opacity="0.6" />
    <rect x="18" y="119" width="84" height="2" fill="#b8922f" opacity="0.6" />
    <rect x="18" y="125" width="84" height="2" fill="#b8922f" opacity="0.6" />

    
    <rect x="18" y="90" width="6" height="42" fill="#b08a28" opacity="0.4" />
    
    <rect x="96" y="90" width="6" height="42" fill="#e8cc6a" opacity="0.3" />

    
    <rect x="32" y="58" width="56" height="74" rx="1" fill="#d4a843" />
    
    <rect x="32" y="63" width="56" height="2" fill="#b8922f" opacity="0.5" />
    <rect x="32" y="69" width="56" height="2" fill="#b8922f" opacity="0.5" />
    <rect x="32" y="75" width="56" height="2" fill="#b8922f" opacity="0.5" />
    <rect x="32" y="81" width="56" height="2" fill="#b8922f" opacity="0.5" />
    <rect x="32" y="87" width="56" height="2" fill="#b8922f" opacity="0.5" />
    <rect x="32" y="93" width="56" height="2" fill="#b8922f" opacity="0.5" />
    <rect x="32" y="99" width="56" height="2" fill="#b8922f" opacity="0.5" />
    
    <rect x="32" y="58" width="5" height="74" fill="#b08a28" opacity="0.35" />
    
    <rect x="83" y="58" width="5" height="74" fill="#e8cc6a" opacity="0.25" />

    
    <rect x="32" y="55" width="8" height="6" fill="#d4a843" />
    <rect x="44" y="55" width="8" height="6" fill="#d4a843" />
    <rect x="56" y="55" width="8" height="6" fill="#d4a843" />
    <rect x="68" y="55" width="8" height="6" fill="#d4a843" />
    <rect x="80" y="55" width="8" height="6" fill="#d4a843" />

    
    <rect x="48" y="108" width="24" height="24" fill="#6b4e1f" />
    <ellipse cx="60" cy="108" rx="12" ry="10" fill="#6b4e1f" />
    
    <rect x="50" y="110" width="20" height="22" fill="#4a3512" />
    <ellipse cx="60" cy="110" rx="10" ry="8" fill="#4a3512" />
    
    <path d="M49 108 Q60 96 71 108" fill="none" stroke="#dbb455" stroke-width="1.5" />

    
    <rect x="12" y="42" width="20" height="90" rx="10" fill="#c9a03a" />
    <rect x="14" y="42" width="16" height="90" rx="8" fill="#d4a843" />
    
    <rect x="12" y="50" width="20" height="1.5" rx="1" fill="#b8922f" opacity="0.5" />
    <rect x="12" y="57" width="20" height="1.5" rx="1" fill="#b8922f" opacity="0.5" />
    <rect x="12" y="64" width="20" height="1.5" rx="1" fill="#b8922f" opacity="0.5" />
    <rect x="12" y="71" width="20" height="1.5" rx="1" fill="#b8922f" opacity="0.5" />
    <rect x="12" y="78" width="20" height="1.5" rx="1" fill="#b8922f" opacity="0.5" />
    <rect x="12" y="85" width="20" height="1.5" rx="1" fill="#b8922f" opacity="0.5" />
    <rect x="12" y="92" width="20" height="1.5" rx="1" fill="#b8922f" opacity="0.5" />
    <rect x="12" y="99" width="20" height="1.5" rx="1" fill="#b8922f" opacity="0.5" />
    <rect x="12" y="106" width="20" height="1.5" rx="1" fill="#b8922f" opacity="0.5" />
    <rect x="12" y="113" width="20" height="1.5" rx="1" fill="#b8922f" opacity="0.5" />
    
    <rect x="26" y="42" width="4" height="90" rx="2" fill="#e8cc6a" opacity="0.25" />
    
    <ellipse cx="22" cy="42" rx="10" ry="4" fill="#dbb455" />
    
    <circle cx="13" cy="40" r="3" fill="#d4a843" />
    <circle cx="19" cy="38" r="3" fill="#d4a843" />
    <circle cx="25" cy="38" r="3" fill="#d4a843" />
    <circle cx="31" cy="40" r="3" fill="#d4a843" />
    <ellipse cx="22" cy="39" rx="10" ry="3" fill="#dbb455" />

    
    <rect x="88" y="42" width="20" height="90" rx="10" fill="#c9a03a" />
    <rect x="90" y="42" width="16" height="90" rx="8" fill="#d4a843" />
    
    <rect x="88" y="50" width="20" height="1.5" rx="1" fill="#b8922f" opacity="0.5" />
    <rect x="88" y="57" width="20" height="1.5" rx="1" fill="#b8922f" opacity="0.5" />
    <rect x="88" y="64" width="20" height="1.5" rx="1" fill="#b8922f" opacity="0.5" />
    <rect x="88" y="71" width="20" height="1.5" rx="1" fill="#b8922f" opacity="0.5" />
    <rect x="88" y="78" width="20" height="1.5" rx="1" fill="#b8922f" opacity="0.5" />
    <rect x="88" y="85" width="20" height="1.5" rx="1" fill="#b8922f" opacity="0.5" />
    <rect x="88" y="92" width="20" height="1.5" rx="1" fill="#b8922f" opacity="0.5" />
    <rect x="88" y="99" width="20" height="1.5" rx="1" fill="#b8922f" opacity="0.5" />
    <rect x="88" y="106" width="20" height="1.5" rx="1" fill="#b8922f" opacity="0.5" />
    <rect x="88" y="113" width="20" height="1.5" rx="1" fill="#b8922f" opacity="0.5" />
    
    <rect x="102" y="42" width="4" height="90" rx="2" fill="#e8cc6a" opacity="0.25" />
    
    <ellipse cx="98" cy="42" rx="10" ry="4" fill="#dbb455" />
    
    <circle cx="89" cy="40" r="3" fill="#d4a843" />
    <circle cx="95" cy="38" r="3" fill="#d4a843" />
    <circle cx="101" cy="38" r="3" fill="#d4a843" />
    <circle cx="107" cy="40" r="3" fill="#d4a843" />
    <ellipse cx="98" cy="39" rx="10" ry="3" fill="#dbb455" />

    
    <rect x="24" y="34" width="16" height="30" rx="8" fill="#b8922f" />
    <ellipse cx="32" cy="34" rx="8" ry="3.5" fill="#c9a03a" />
    <circle cx="25" cy="32" r="2.5" fill="#b8922f" />
    <circle cx="30" cy="31" r="2.5" fill="#b8922f" />
    <circle cx="35" cy="31" r="2.5" fill="#b8922f" />
    <circle cx="39" cy="32" r="2.5" fill="#b8922f" />
    <ellipse cx="32" cy="32" rx="8" ry="2.5" fill="#c9a03a" />

    
    <rect x="80" y="34" width="16" height="30" rx="8" fill="#b8922f" />
    <ellipse cx="88" cy="34" rx="8" ry="3.5" fill="#c9a03a" />
    <circle cx="81" cy="32" r="2.5" fill="#b8922f" />
    <circle cx="86" cy="31" r="2.5" fill="#b8922f" />
    <circle cx="91" cy="31" r="2.5" fill="#b8922f" />
    <circle cx="95" cy="32" r="2.5" fill="#b8922f" />
    <ellipse cx="88" cy="32" rx="8" ry="2.5" fill="#c9a03a" />

    
    <rect x="59" y="18" width="2" height="37" fill="#8b6914" />
    
    <polygon points="61,18 61,28 72,23" fill="#c0392b" />
    <polygon points="61,19 61,27 70,23" fill="#e74c3c" />

    
    
    <ellipse cx="25" cy="100" rx="2.5" ry="1.8" fill="#f5e6c8" stroke="#c9a03a" stroke-width="0.3" />
    <path d="M24 100 Q25 98.5 26.5 100" fill="none" stroke="#c9a03a" stroke-width="0.4" />

    <ellipse cx="95" cy="75" rx="2.5" ry="1.8" fill="#f0ddb8" stroke="#c9a03a" stroke-width="0.3" />
    <path d="M94 75 Q95 73.5 96.5 75" fill="none" stroke="#c9a03a" stroke-width="0.4" />

    
    <path d="M40 80 L38 77 L40 76 L42 77 Z" fill="#f5e6c8" stroke="#b8922f" stroke-width="0.3" />
    <line x1="40" y1="80" x2="38.5" y2="77" stroke="#c9a03a" stroke-width="0.2" />
    <line x1="40" y1="80" x2="40" y2="76.5" stroke="#c9a03a" stroke-width="0.2" />
    <line x1="40" y1="80" x2="41.5" y2="77" stroke="#c9a03a" stroke-width="0.2" />

    <path d="M78 95 L76 92 L78 91 L80 92 Z" fill="#eddcb5" stroke="#b8922f" stroke-width="0.3" />
    <line x1="78" y1="95" x2="76.5" y2="92" stroke="#c9a03a" stroke-width="0.2" />
    <line x1="78" y1="95" x2="78" y2="91.5" stroke="#c9a03a" stroke-width="0.2" />
    <line x1="78" y1="95" x2="79.5" y2="92" stroke="#c9a03a" stroke-width="0.2" />

    
    <circle cx="50" cy="70" r="2" fill="#f5e6c8" stroke="#c9a03a" stroke-width="0.3" />
    <path d="M48.5 70 Q50 68 51.5 70" fill="none" stroke="#dbb455" stroke-width="0.3" />

    <circle cx="70" cy="68" r="1.8" fill="#eddcb5" stroke="#c9a03a" stroke-width="0.3" />
    <path d="M68.7 68 Q70 66.5 71.3 68" fill="none" stroke="#dbb455" stroke-width="0.3" />

    
    <ellipse cx="30" cy="115" rx="2" ry="1.5" fill="#f5e6c8" stroke="#b8922f" stroke-width="0.3" />
    <ellipse cx="90" cy="110" rx="2" ry="1.5" fill="#eddcb5" stroke="#b8922f" stroke-width="0.3" />
    <circle cx="55" cy="85" r="1.5" fill="#f0ddb8" stroke="#c9a03a" stroke-width="0.3" />
    <circle cx="65" cy="82" r="1.5" fill="#f5e6c8" stroke="#c9a03a" stroke-width="0.3" />

    
    <ellipse cx="20" cy="65" rx="1.8" ry="1.3" fill="#f5e6c8" stroke="#b8922f" stroke-width="0.3" />
    <ellipse cx="100" cy="60" rx="1.8" ry="1.3" fill="#eddcb5" stroke="#b8922f" stroke-width="0.3" />
    <ellipse cx="22" cy="80" rx="1.5" ry="1.2" fill="#f0ddb8" stroke="#b8922f" stroke-width="0.3" />
    <ellipse cx="98" cy="85" rx="1.5" ry="1.2" fill="#f5e6c8" stroke="#b8922f" stroke-width="0.3" />

    
    <polygon points="45,105 44,102 46,103 45,100 47,102.5 48,100 47.5,103 50,102 48,104 50,105.5 47.5,105 48,107.5 46.5,105.5 45,108 45.5,105.5 43,106.5 44.5,104.5 42,104.5" fill="#e8c88a" stroke="#c9a03a" stroke-width="0.2" />

    
    <ellipse cx="75" cy="118" rx="2.5" ry="1.2" fill="#f5e6c8" stroke="#b8922f" stroke-width="0.3" />
    <line x1="73" y1="118" x2="77" y2="118" stroke="#c9a03a" stroke-width="0.4" />

    
    <line x1="18" y1="90" x2="102" y2="90" stroke="#e8cc6a" stroke-width="0.8" opacity="0.5" />
    <line x1="32" y1="58" x2="88" y2="58" stroke="#e8cc6a" stroke-width="0.8" opacity="0.4" />

    
    <circle cx="25" cy="128" r="0.5" fill="#c9a03a" opacity="0.4" />
    <circle cx="35" cy="130" r="0.5" fill="#c9a03a" opacity="0.4" />
    <circle cx="50" cy="127" r="0.5" fill="#c9a03a" opacity="0.4" />
    <circle cx="70" cy="129" r="0.5" fill="#c9a03a" opacity="0.4" />
    <circle cx="85" cy="128" r="0.5" fill="#c9a03a" opacity="0.4" />
    <circle cx="95" cy="130" r="0.5" fill="#c9a03a" opacity="0.4" />
    <circle cx="42" cy="133" r="0.4" fill="#b8922f" opacity="0.3" />
    <circle cx="78" cy="133" r="0.4" fill="#b8922f" opacity="0.3" />
    <circle cx="60" cy="134" r="0.4" fill="#b8922f" opacity="0.3" />

    
    <rect x="40" y="65" width="2" height="6" rx="1" fill="#8b6914" />
    <rect x="78" y="65" width="2" height="6" rx="1" fill="#8b6914" />
    <rect x="40" y="78" width="2" height="6" rx="1" fill="#8b6914" />
    <rect x="78" y="78" width="2" height="6" rx="1" fill="#8b6914" />

    
    <ellipse cx="60" cy="138" rx="50" ry="9" fill="none" stroke="#c9a03a" stroke-width="1.5" opacity="0.5" />
  </g>
</svg>