<svg xmlns="http://www.w3.org/2000/svg" id="obstacle-root" viewBox="0 0 120 150">
  <g id="obstacle-main">
    
    <ellipse cx="25" cy="95" rx="8" ry="12" fill="#1a4a8a" opacity="0.3" />
    <ellipse cx="95" cy="95" rx="8" ry="12" fill="#1a4a8a" opacity="0.3" />
    <ellipse cx="25" cy="93" rx="5" ry="9" fill="#3388dd" opacity="0.4" />
    <ellipse cx="95" cy="93" rx="5" ry="9" fill="#3388dd" opacity="0.4" />
    <ellipse cx="25" cy="91" rx="3" ry="6" fill="#66bbff" opacity="0.6" />
    <ellipse cx="95" cy="91" rx="3" ry="6" fill="#66bbff" opacity="0.6" />
    <ellipse cx="25" cy="90" rx="2" ry="4" fill="#aaddff" opacity="0.8" />
    <ellipse cx="95" cy="90" rx="2" ry="4" fill="#aaddff" opacity="0.8" />

    
    <path d="M18 50 L22 45 L30 45 L32 50 L32 88 L30 92 L22 92 L18 88 Z" fill="#3a3d4a" />
    <path d="M20 52 L23 47 L29 47 L31 52 L31 86 L29 90 L23 90 L20 86 Z" fill="#4a4e5e" />
    <path d="M22 48 L28 48 L29 52 L29 85 L22 85 L21 52 Z" fill="#555a6a" />
    
    <line x1="21" y1="55" x2="31" y2="55" stroke="#2a2d3a" stroke-width="0.4" />
    <line x1="21" y1="65" x2="31" y2="65" stroke="#2a2d3a" stroke-width="0.4" />
    <line x1="21" y1="75" x2="31" y2="75" stroke="#2a2d3a" stroke-width="0.4" />
    
    <path d="M23 49 L26 49 L26 85 L23 85 Z" fill="#6a6e7e" opacity="0.4" />

    
    <path d="M88 50 L92 45 L100 45 L102 50 L102 88 L100 92 L92 92 L88 88 Z" fill="#3a3d4a" />
    <path d="M89 52 L93 47 L99 47 L101 52 L101 86 L99 90 L93 90 L89 86 Z" fill="#4a4e5e" />
    <path d="M92 48 L98 48 L99 52 L99 85 L92 85 L91 52 Z" fill="#555a6a" />
    
    <line x1="89" y1="55" x2="101" y2="55" stroke="#2a2d3a" stroke-width="0.4" />
    <line x1="89" y1="65" x2="101" y2="65" stroke="#2a2d3a" stroke-width="0.4" />
    <line x1="89" y1="75" x2="101" y2="75" stroke="#2a2d3a" stroke-width="0.4" />
    
    <path d="M93 49 L96 49 L96 85 L93 85 Z" fill="#6a6e7e" opacity="0.4" />

    
    <path d="M32 60 L42 58 L42 62 L32 64 Z" fill="#3a3d4a" />
    <path d="M88 60 L78 58 L78 62 L88 64 Z" fill="#3a3d4a" />
    <path d="M32 75 L42 73 L42 77 L32 79 Z" fill="#3a3d4a" />
    <path d="M88 75 L78 73 L78 77 L88 79 Z" fill="#3a3d4a" />

    
    <path d="M60 18 L78 40 L80 55 L78 95 L72 110 L60 118 L48 110 L42 95 L40 55 L42 40 Z" fill="#2e3140" />

    
    <path d="M60 20 L76 42 L78 55 L76 93 L70 108 L60 115 L50 108 L44 93 L42 55 L44 42 Z" fill="#4a4f62" />

    
    <path d="M60 25 L70 44 L72 56 L70 90 L66 103 L60 108 L54 103 L50 90 L48 56 L50 44 Z" fill="#575d72" />

    
    <path d="M55 28 L58 26 L60 26 L62 44 L62 100 L60 105 L58 100 L56 44 Z" fill="#6e7488" opacity="0.5" />

    
    <line x1="50" y1="45" x2="70" y2="45" stroke="#363a4d" stroke-width="0.5" />
    <line x1="48" y1="55" x2="72" y2="55" stroke="#363a4d" stroke-width="0.5" />
    <line x1="46" y1="65" x2="74" y2="65" stroke="#363a4d" stroke-width="0.5" />
    <line x1="46" y1="75" x2="74" y2="75" stroke="#363a4d" stroke-width="0.5" />
    <line x1="48" y1="85" x2="72" y2="85" stroke="#363a4d" stroke-width="0.5" />
    <line x1="50" y1="95" x2="70" y2="95" stroke="#363a4d" stroke-width="0.5" />
    
    <line x1="52" y1="35" x2="50" y2="105" stroke="#363a4d" stroke-width="0.4" />
    <line x1="68" y1="35" x2="70" y2="105" stroke="#363a4d" stroke-width="0.4" />
    <line x1="60" y1="22" x2="60" y2="115" stroke="#363a4d" stroke-width="0.3" />

    
    <path d="M42 70 L15 85 L18 90 L42 80 Z" fill="#3a3d4a" />
    <path d="M42 72 L20 86 L21 88 L42 78 Z" fill="#555a6a" opacity="0.6" />
    
    <ellipse cx="17" cy="87" rx="2" ry="1.5" fill="#cc3333" opacity="0.8" />

    
    <path d="M78 70 L105 85 L102 90 L78 80 Z" fill="#3a3d4a" />
    <path d="M78 72 L100 86 L99 88 L78 78 Z" fill="#555a6a" opacity="0.6" />
    
    <ellipse cx="103" cy="87" rx="2" ry="1.5" fill="#cc3333" opacity="0.8" />

    
    <path d="M58 35 L60 15 L62 35 Z" fill="#4a4f62" />
    <path d="M59 33 L60 18 L61 33 Z" fill="#575d72" />
    <line x1="60" y1="18" x2="60" y2="35" stroke="#363a4d" stroke-width="0.3" />

    
    <ellipse cx="60" cy="38" rx="10" ry="7" fill="#8b6914" opacity="0.5" />
    
    <ellipse cx="60" cy="37" rx="9" ry="6" fill="#2a2a3a" opacity="0.8" />
    
    <ellipse cx="60" cy="37" rx="7" ry="4.5" fill="#cc8822" opacity="0.25" />
    <ellipse cx="60" cy="36" rx="5" ry="3" fill="#ddaa33" opacity="0.2" />
    <ellipse cx="59" cy="35" rx="3" ry="2" fill="#eebb44" opacity="0.15" />
    
    <path d="M53 34 Q56 31 60 33 Q57 32 54 35 Z" fill="#ffffff" opacity="0.2" />
    <path d="M55 35 Q58 33 62 34 Z" fill="#ffffff" opacity="0.1" />
    
    <ellipse cx="60" cy="37" rx="9" ry="6" fill="none" stroke="#5a5e6e" stroke-width="0.6" />
    
    <line x1="60" y1="31" x2="60" y2="43" stroke="#5a5e6e" stroke-width="0.4" />
    <line x1="51" y1="37" x2="69" y2="37" stroke="#5a5e6e" stroke-width="0.4" />

    
    <rect x="35" y="90" width="6" height="2" rx="0.5" fill="#333644" />
    <rect x="79" y="90" width="6" height="2" rx="0.5" fill="#333644" />
    <rect x="36" y="92" width="4" height="1" rx="0.3" fill="#3388dd" opacity="0.3" />
    <rect x="80" y="92" width="4" height="1" rx="0.3" fill="#3388dd" opacity="0.3" />

    
    <ellipse cx="60" cy="116" rx="6" ry="3" fill="#2a2d3a" />
    <ellipse cx="60" cy="116" rx="4" ry="2" fill="#3388dd" opacity="0.3" />
    <ellipse cx="60" cy="116" rx="2" ry="1" fill="#66bbff" opacity="0.4" />

    
    <line x1="48" y1="30" x2="44" y2="22" stroke="#6e7488" stroke-width="0.5" />
    <circle cx="44" cy="22" r="0.8" fill="#cc3333" opacity="0.7" />

    
    <g id="obstacle-animated-part">
      <ellipse cx="48" cy="55" rx="1.2" ry="1.2" fill="#44ff44">
        <animate attributeName="opacity" values="0.2;1.0;0.2" dur="1.2s" repeatCount="indefinite" />
      </ellipse>
      <ellipse cx="53" cy="55" rx="1.0" ry="1.0" fill="#ff4444">
        <animate attributeName="opacity" values="1.0;0.2;1.0" dur="1.2s" repeatCount="indefinite" />
      </ellipse>
      <ellipse cx="57" cy="55" rx="1.0" ry="1.0" fill="#44ff44">
        <animate attributeName="opacity" values="0.2;1.0;0.2" dur="1.2s" begin="0.3s" repeatCount="indefinite" />
      </ellipse>
      <ellipse cx="60" cy="55" rx="1.2" ry="1.2" fill="#ffffff">
        <animate attributeName="opacity" values="1.0;0.2;1.0" dur="1.2s" begin="0.15s" repeatCount="indefinite" />
      </ellipse>
      <ellipse cx="63" cy="55" rx="1.0" ry="1.0" fill="#44ff44">
        <animate attributeName="opacity" values="0.2;1.0;0.2" dur="1.2s" begin="0.6s" repeatCount="indefinite" />
      </ellipse>
      <ellipse cx="67" cy="55" rx="1.0" ry="1.0" fill="#ff4444">
        <animate attributeName="opacity" values="1.0;0.2;1.0" dur="1.2s" begin="0.45s" repeatCount="indefinite" />
      </ellipse>
      <ellipse cx="72" cy="55" rx="1.2" ry="1.2" fill="#44ff44">
        <animate attributeName="opacity" values="0.2;1.0;0.2" dur="1.2s" begin="0.9s" repeatCount="indefinite" />
      </ellipse>
      
      <ellipse cx="50" cy="75" rx="1.0" ry="1.0" fill="#ffaa22">
        <animate attributeName="opacity" values="0.2;1.0;0.2" dur="1.2s" begin="0.2s" repeatCount="indefinite" />
      </ellipse>
      <ellipse cx="55" cy="75" rx="0.8" ry="0.8" fill="#ffaa22">
        <animate attributeName="opacity" values="1.0;0.2;1.0" dur="1.2s" begin="0.5s" repeatCount="indefinite" />
      </ellipse>
      <ellipse cx="60" cy="75" rx="1.0" ry="1.0" fill="#ffffff">
        <animate attributeName="opacity" values="0.2;1.0;0.2" dur="1.2s" begin="0.8s" repeatCount="indefinite" />
      </ellipse>
      <ellipse cx="65" cy="75" rx="0.8" ry="0.8" fill="#ffaa22">
        <animate attributeName="opacity" values="1.0;0.2;1.0" dur="1.2s" begin="0.1s" repeatCount="indefinite" />
      </ellipse>
      <ellipse cx="70" cy="75" rx="1.0" ry="1.0" fill="#ffaa22">
        <animate attributeName="opacity" values="0.2;1.0;0.2" dur="1.2s" begin="0.7s" repeatCount="indefinite" />
      </ellipse>
    </g>

    
    <circle cx="46" cy="50" r="0.5" fill="#363a4d" />
    <circle cx="74" cy="50" r="0.5" fill="#363a4d" />
    <circle cx="46" cy="60" r="0.5" fill="#363a4d" />
    <circle cx="74" cy="60" r="0.5" fill="#363a4d" />
    <circle cx="46" cy="70" r="0.5" fill="#363a4d" />
    <circle cx="74" cy="70" r="0.5" fill="#363a4d" />
    <circle cx="46" cy="80" r="0.5" fill="#363a4d" />
    <circle cx="74" cy="80" r="0.5" fill="#363a4d" />
    <circle cx="48" cy="90" r="0.5" fill="#363a4d" />
    <circle cx="72" cy="90" r="0.5" fill="#363a4d" />

    
    <path d="M56 82 L60 78 L64 82 L60 80 Z" fill="#6688aa" opacity="0.4" />
    <path d="M57 83 L60 80 L63 83 Z" fill="#7799bb" opacity="0.3" />
  </g>
</svg>