<svg xmlns="http://www.w3.org/2000/svg" viewBox="0 0 800 200" fill="none"><defs><radialGradient id="bodyGlow" cx="50%" cy="40%" r="60%"><stop offset="0%" stop-color="#aaf4ff" stop-opacity="0.9" /><stop offset="50%" stop-color="#88eeff" stop-opacity="0.6" /><stop offset="100%" stop-color="#44ddee" stop-opacity="0.2" /></radialGradient><radialGradient id="innerGlow" cx="50%" cy="50%" r="50%"><stop offset="0%" stop-color="#ffffff" stop-opacity="0.4" /><stop offset="100%" stop-color="#44ddee" stop-opacity="0.0" /></radialGradient><radialGradient id="eyeGrad" cx="40%" cy="35%" r="50%"><stop offset="0%" stop-color="#ffffff" /><stop offset="100%" stop-color="#e8e8f0" /></radialGradient><radialGradient id="pupilGlow" cx="50%" cy="50%" r="50%"><stop offset="0%" stop-color="#88ffff" /><stop offset="40%" stop-color="#00eeff" /><stop offset="100%" stop-color="#006688" /></radialGradient><filter id="blur1"><feGaussianBlur stdDeviation="3" /></filter><filter id="blur2"><feGaussianBlur stdDeviation="5" /></filter><filter id="blur3"><feGaussianBlur stdDeviation="8" /></filter><filter id="blurSmall"><feGaussianBlur stdDeviation="1.5" /></filter><clipPath id="cloud-body-clip"><path d="M55 95 Q45 60 70 38 Q85 28 105 25 Q130 22 148 38 Q165 55 160 80 Q158 100 150 120 Q140 142 120 148 Q100 155 80 148 Q60 140 55 120 Z" /></clipPath><clipPath id="cloud-eye-left-clip"><ellipse cx="95" cy="72" rx="12" ry="14" /></clipPath><clipPath id="cloud-eye-right-clip"><ellipse cx="122" cy="70" rx="13" ry="15" /></clipPath></defs><svg id="background-root" viewBox="0 0 800 200" x="0" y="0" width="800" height="200">
  <defs>
    <linearGradient id="spaceGrad" x1="0" y1="0" x2="0" y2="1">
      <stop offset="0%" stop-color="#0a1128" />
      <stop offset="40%" stop-color="#060d1f" />
      <stop offset="100%" stop-color="#020408" />
    </linearGradient>
    <radialGradient id="nebulaGrad1" cx="0.65" cy="0.25" r="0.35">
      <stop offset="0%" stop-color="#7b4fa6" stop-opacity="0.3" />
      <stop offset="50%" stop-color="#4a3070" stop-opacity="0.15" />
      <stop offset="100%" stop-color="#0a1128" stop-opacity="0" />
    </radialGradient>
    <radialGradient id="nebulaGrad2" cx="0.75" cy="0.2" r="0.25">
      <stop offset="0%" stop-color="#4fc3c3" stop-opacity="0.2" />
      <stop offset="60%" stop-color="#2a6b6b" stop-opacity="0.1" />
      <stop offset="100%" stop-color="#0a1128" stop-opacity="0" />
    </radialGradient>
    <radialGradient id="planetGrad" cx="0.6" cy="0.3" r="0.7">
      <stop offset="0%" stop-color="#1a6b5a" />
      <stop offset="40%" stop-color="#0f4a3f" />
      <stop offset="80%" stop-color="#082e28" />
      <stop offset="100%" stop-color="#041a16" />
    </radialGradient>
    <radialGradient id="planetGlow" cx="0.6" cy="0.3" r="0.75">
      <stop offset="0%" stop-color="#4fc3c3" stop-opacity="0" />
      <stop offset="70%" stop-color="#4fc3c3" stop-opacity="0.1" />
      <stop offset="90%" stop-color="#3ae0e0" stop-opacity="0.4" />
      <stop offset="100%" stop-color="#3ae0e0" stop-opacity="0.6" />
    </radialGradient>
    <radialGradient id="starGlow" cx="0.5" cy="0.5" r="0.5">
      <stop offset="0%" stop-color="#ffffff" stop-opacity="1" />
      <stop offset="100%" stop-color="#ffffff" stop-opacity="0" />
    </radialGradient>
  </defs>
  <g id="background-main">
    
    <rect x="0" y="0" width="800" height="200" fill="url(#spaceGrad)" />

    
    <circle cx="45" cy="18" r="0.5" fill="#ffffff" opacity="0.6" />
    <circle cx="120" cy="42" r="0.4" fill="#ffffff" opacity="0.4" />
    <circle cx="190" cy="12" r="0.6" fill="#ffffff" opacity="0.7" />
    <circle cx="230" cy="78" r="0.3" fill="#ffffff" opacity="0.3" />
    <circle cx="280" cy="35" r="0.5" fill="#ffffff" opacity="0.5" />
    <circle cx="310" cy="95" r="0.4" fill="#ffffff" opacity="0.4" />
    <circle cx="355" cy="22" r="0.6" fill="#ffffff" opacity="0.6" />
    <circle cx="390" cy="130" r="0.3" fill="#ffffff" opacity="0.35" />
    <circle cx="420" cy="55" r="0.5" fill="#ffffff" opacity="0.55" />
    <circle cx="460" cy="15" r="0.4" fill="#ffffff" opacity="0.45" />
    <circle cx="505" cy="88" r="0.5" fill="#ffffff" opacity="0.5" />
    <circle cx="540" cy="40" r="0.3" fill="#ffffff" opacity="0.3" />
    <circle cx="580" cy="110" r="0.6" fill="#ffffff" opacity="0.65" />
    <circle cx="615" cy="28" r="0.4" fill="#ffffff" opacity="0.4" />
    <circle cx="650" cy="72" r="0.5" fill="#ffffff" opacity="0.5" />
    <circle cx="690" cy="18" r="0.3" fill="#ffffff" opacity="0.35" />
    <circle cx="720" cy="95" r="0.5" fill="#ffffff" opacity="0.55" />
    <circle cx="760" cy="45" r="0.4" fill="#ffffff" opacity="0.4" />
    <circle cx="785" cy="140" r="0.3" fill="#ffffff" opacity="0.3" />
    <circle cx="70" cy="105" r="0.4" fill="#ffffff" opacity="0.4" />
    <circle cx="155" cy="155" r="0.5" fill="#ffffff" opacity="0.5" />
    <circle cx="250" cy="145" r="0.3" fill="#ffffff" opacity="0.35" />
    <circle cx="340" cy="168" r="0.4" fill="#ffffff" opacity="0.4" />
    <circle cx="470" cy="160" r="0.5" fill="#ffffff" opacity="0.45" />
    <circle cx="560" cy="175" r="0.3" fill="#ffffff" opacity="0.3" />
    <circle cx="680" cy="155" r="0.4" fill="#ffffff" opacity="0.4" />
    <circle cx="750" cy="170" r="0.3" fill="#ffffff" opacity="0.35" />
    <circle cx="100" cy="80" r="0.6" fill="#ffffff" opacity="0.5" />
    <circle cx="490" cy="42" r="0.4" fill="#ffffff" opacity="0.45" />
    <circle cx="370" cy="60" r="0.5" fill="#ffffff" opacity="0.5" />

    
    <circle cx="200" cy="50" r="3" fill="#ffffff" opacity="0.08" />
    <circle cx="200" cy="50" r="1.2" fill="#ffffff" opacity="0.7" />
    <circle cx="450" cy="30" r="2.5" fill="#ffffff" opacity="0.06" />
    <circle cx="450" cy="30" r="1" fill="#ffffff" opacity="0.6" />
    <circle cx="650" cy="60" r="3" fill="#ffffff" opacity="0.07" />
    <circle cx="650" cy="60" r="1.1" fill="#ffffff" opacity="0.65" />
    <circle cx="100" cy="140" r="2" fill="#ffffff" opacity="0.05" />
    <circle cx="100" cy="140" r="0.8" fill="#ffffff" opacity="0.5" />
    <circle cx="550" cy="130" r="2.5" fill="#ffffff" opacity="0.06" />
    <circle cx="550" cy="130" r="1" fill="#ffffff" opacity="0.55" />
    <circle cx="330" cy="110" r="2" fill="#ffffff" opacity="0.05" />
    <circle cx="330" cy="110" r="0.9" fill="#ffffff" opacity="0.5" />

    
    <rect x="0" y="0" width="800" height="200" fill="url(#nebulaGrad1)" />
    <rect x="0" y="0" width="800" height="200" fill="url(#nebulaGrad2)" />

    
    <ellipse cx="520" cy="45" rx="120" ry="30" fill="#7b4fa6" opacity="0.08" />
    <ellipse cx="600" cy="35" rx="80" ry="25" fill="#4fc3c3" opacity="0.06" />
    <ellipse cx="480" cy="60" rx="100" ry="20" fill="#5a3d8a" opacity="0.07" />
    <ellipse cx="680" cy="55" rx="70" ry="22" fill="#3a9999" opacity="0.05" />

    
    <circle cx="60" cy="260" r="120" fill="url(#planetGrad)" />
    
    <circle cx="60" cy="260" r="123" fill="none" stroke="#3ae0e0" stroke-width="2" opacity="0.3" />
    <circle cx="60" cy="260" r="126" fill="none" stroke="#4fc3c3" stroke-width="1.5" opacity="0.15" />
    
    <ellipse cx="85" cy="195" rx="40" ry="8" fill="#1a8070" opacity="0.2" />
    <ellipse cx="40" cy="210" rx="30" ry="5" fill="#15695c" opacity="0.15" />

    
    <circle cx="60" cy="260" r="130" fill="url(#planetGlow)" opacity="0.5" />

    
    <circle cx="380" cy="25" r="4" fill="#ffffff" opacity="0.1" />
    <circle cx="380" cy="25" r="1.5" fill="#ffffff" opacity="0.8" />
    <circle cx="720" cy="80" r="3.5" fill="#ffffff" opacity="0.08" />
    <circle cx="720" cy="80" r="1.3" fill="#ffffff" opacity="0.75" />

    
    <g id="background-animated-part">
      
      <circle cx="380" cy="25" r="5" fill="#ffffff" opacity="0.2">
        <animate attributeName="opacity" values="0.2;1.0;0.2" dur="2.5s" repeatCount="indefinite" />
      </circle>
      <circle cx="380" cy="25" r="2" fill="#ffffff" opacity="0.2">
        <animate attributeName="opacity" values="0.2;1.0;0.2" dur="2.5s" repeatCount="indefinite" />
      </circle>

      
      <circle cx="720" cy="80" r="4.5" fill="#ffffff" opacity="0.1">
        <animate attributeName="opacity" values="0.1;0.9;0.1" dur="3.8s" begin="1.2s" repeatCount="indefinite" />
      </circle>
      <circle cx="720" cy="80" r="1.8" fill="#ffffff" opacity="0.1">
        <animate attributeName="opacity" values="0.1;0.9;0.1" dur="3.8s" begin="1.2s" repeatCount="indefinite" />
      </circle>

      
      <ellipse cx="560" cy="50" rx="140" ry="35" fill="#7b4fa6" opacity="0.15">
        <animate attributeName="fill" values="#7b4fa6;#4fc3c3;#7b4fa6" dur="5s" repeatCount="indefinite" />
      </ellipse>
      <ellipse cx="620" cy="40" rx="90" ry="28" fill="#4fc3c3" opacity="0.1">
        <animate attributeName="fill" values="#4fc3c3;#7b4fa6;#4fc3c3" dur="5s" repeatCount="indefinite" />
      </ellipse>

      
      <circle cx="60" cy="260" r="128" fill="none" stroke="#3ae0e0" stroke-width="4" opacity="0.3">
        <animate attributeName="opacity" values="0.3;0.7;0.3" dur="4s" repeatCount="indefinite" />
      </circle>
      <circle cx="60" cy="260" r="132" fill="none" stroke="#4fc3c3" stroke-width="2" opacity="0.3">
        <animate attributeName="opacity" values="0.3;0.7;0.3" dur="4s" begin="0.5s" repeatCount="indefinite" />
      </circle>

      
      <g opacity="0.15">
        <animate attributeName="opacity" values="0.15;0.6;0.15" dur="6s" repeatCount="indefinite" />
        <circle cx="140" cy="25" r="1.2" fill="#ffffff" />
        <circle cx="152" cy="18" r="0.8" fill="#ffffff" />
        <circle cx="148" cy="32" r="0.9" fill="#ffffff" />
        <circle cx="160" cy="26" r="0.7" fill="#ffffff" />
        <circle cx="135" cy="15" r="1.0" fill="#ffffff" />
        <circle cx="165" cy="20" r="0.6" fill="#ffffff" />
        <circle cx="143" cy="10" r="0.8" fill="#ffffff" />
        <circle cx="155" cy="35" r="0.7" fill="#ffffff" />
        <circle cx="130" cy="30" r="0.5" fill="#ffffff" />
        <circle cx="170" cy="30" r="0.9" fill="#ffffff" />
        
        <circle cx="150" cy="24" r="20" fill="#aabbff" opacity="0.08" />
      </g>
    </g>
  </g>
</svg><svg id="obstacle-root" viewBox="0 0 120 150" x="350" y="18" width="120" height="150">
  <g id="obstacle-main" transform="translate(60,75) rotate(-3) translate(-60,-75)">
    
    
    <g id="obstacle-animated-part">
      <ellipse cx="60" cy="142" rx="14" ry="8" fill="#FF4500" opacity="0.5">
        <animate attributeName="opacity" values="0.4;1.0;0.4" dur="1.5s" repeatCount="indefinite" />
      </ellipse>
      <ellipse cx="60" cy="140" rx="10" ry="6" fill="#FF6600" opacity="0.6">
        <animate attributeName="opacity" values="0.5;1.0;0.5" dur="1.5s" repeatCount="indefinite" />
      </ellipse>
      <ellipse cx="60" cy="138" rx="7" ry="4" fill="#FFAA00" opacity="0.7">
        <animate attributeName="opacity" values="0.4;1.0;0.4" dur="1.5s" repeatCount="indefinite" />
      </ellipse>
      <ellipse cx="60" cy="136" rx="4" ry="3" fill="#FFDD44" opacity="0.8">
        <animate attributeName="opacity" values="0.5;1.0;0.5" dur="1.5s" repeatCount="indefinite" />
      </ellipse>
      
      <ellipse cx="58" cy="146" rx="8" ry="3" fill="#FF3300" opacity="0.3">
        <animate attributeName="opacity" values="0.2;0.7;0.2" dur="1.2s" repeatCount="indefinite" />
      </ellipse>
      <ellipse cx="62" cy="148" rx="6" ry="2" fill="#FF5500" opacity="0.25">
        <animate attributeName="opacity" values="0.15;0.6;0.15" dur="1.0s" repeatCount="indefinite" />
      </ellipse>
    </g>

    
    <path d="M50,128 L52,135 L68,135 L70,128 Z" fill="#555555" />
    <path d="M53,135 L54,140 L66,140 L67,135 Z" fill="#444444" />
    <path d="M55,135 L54.5,138 L65.5,138 L65,135 Z" fill="#666666" />

    
    <path d="M38,105 L28,132 L32,134 L48,120 Z" fill="#CC2200" />
    <path d="M38,105 L30,130 L32,131 L46,118 Z" fill="#DD3311" opacity="0.6" />

    
    <path d="M82,105 L92,132 L88,134 L72,120 Z" fill="#AA1800" />
    <path d="M82,105 L90,130 L88,131 L74,118 Z" fill="#CC2200" opacity="0.5" />

    
    <path d="M42,108 L33,130 L38,132 L50,118 Z" fill="#DD3300" />
    <path d="M43,110 L36,128 L39,129 L49,117 Z" fill="#EE4411" opacity="0.5" />

    
    <path d="M78,108 L87,130 L82,132 L70,118 Z" fill="#BB2200" />
    <path d="M77,110 L84,128 L81,129 L71,117 Z" fill="#DD3311" opacity="0.4" />

    
    <path d="M46,30 C46,30 44,35 44,50 L44,128 L76,128 L76,50 C76,35 74,30 74,30 Z" fill="#B0B0B0" />

    
    <path d="M46,30 C46,30 45,35 45,50 L45,128 L73,128 L73,50 C73,35 72,30 72,30 Z" fill="#F0F0F5" />

    
    <rect x="45" y="50" width="4" height="78" fill="#C8C8D0" opacity="0.7" />

    
    <rect x="69" y="50" width="4" height="78" fill="#A8A8B0" opacity="0.5" />

    
    <rect x="45" y="55" width="28" height="5" rx="1" fill="#DD2200" />
    <rect x="45" y="55" width="28" height="2" rx="1" fill="#EE3311" opacity="0.5" />

    
    <rect x="45" y="63" width="28" height="3" rx="1" fill="#FF6600" />
    <rect x="45" y="63" width="28" height="1.5" rx="1" fill="#FF8833" opacity="0.5" />

    
    <rect x="45" y="95" width="28" height="5" rx="1" fill="#DD2200" />
    <rect x="45" y="95" width="28" height="2" rx="1" fill="#EE3311" opacity="0.5" />

    
    <rect x="45" y="103" width="28" height="3" rx="1" fill="#FF6600" />

    
    <rect x="44" y="120" width="30" height="8" rx="1" fill="#CC1100" />
    <rect x="44" y="120" width="30" height="3" rx="1" fill="#DD2211" opacity="0.6" />

    
    <circle cx="59" cy="78" r="6" fill="#334455" />
    <circle cx="59" cy="78" r="5.2" fill="#445566" />
    
    
    <circle cx="59" cy="78" r="4.5" fill="#2244AA" />
    <circle cx="59" cy="78" r="4.5" fill="url(#windowGrad)" />
    
    
    <ellipse cx="57.5" cy="76.5" rx="2" ry="1.5" fill="#88BBFF" opacity="0.6" />
    <ellipse cx="57" cy="76" rx="1" ry="0.7" fill="#FFFFFF" opacity="0.7" />

    
    <circle cx="59" cy="78" r="5.5" fill="none" stroke="#888899" stroke-width="0.8" />

    
    <circle cx="59" cy="45" r="2.5" fill="#334455" />
    <circle cx="59" cy="45" r="2" fill="#2255BB" />
    <ellipse cx="58.2" cy="44.2" rx="0.8" ry="0.6" fill="#88CCFF" opacity="0.5" />

    
    <path d="M60,5 C60,5 54,18 48,30 C47,32 46,34 46,35 L74,35 C74,34 73,32 72,30 C66,18 60,5 60,5 Z" fill="#E8E8EE" />
    
    
    <path d="M60,5 C60,5 56,14 53,22 L67,22 C64,14 60,5 60,5 Z" fill="#DD2200" />
    <path d="M60,5 C60,5 57,12 55,18 L65,18 C63,12 60,5 60,5 Z" fill="#EE3311" opacity="0.5" />

    
    <path d="M60,5 C58,10 55,20 52,28 L48,35 L50,35 C52,28 56,14 58,8 Z" fill="#FFFFFF" opacity="0.25" />

    
    <path d="M48,35 L48,128 L51,128 L51,35 Z" fill="#FFFFFF" opacity="0.15" />
    <path d="M49,40 L49,125 L50,125 L50,40 Z" fill="#FFFFFF" opacity="0.2" />

    
    <path d="M68,35 L68,128 L73,128 L73,35 Z" fill="#000000" opacity="0.08" />

    
    <circle cx="48" cy="42" r="0.5" fill="#999999" />
    <circle cx="48" cy="52" r="0.5" fill="#999999" />
    <circle cx="48" cy="62" r="0.5" fill="#999999" />
    <circle cx="48" cy="72" r="0.5" fill="#999999" />
    <circle cx="48" cy="88" r="0.5" fill="#999999" />
    <circle cx="48" cy="98" r="0.5" fill="#999999" />
    <circle cx="48" cy="108" r="0.5" fill="#999999" />
    <circle cx="70" cy="42" r="0.5" fill="#888888" />
    <circle cx="70" cy="52" r="0.5" fill="#888888" />
    <circle cx="70" cy="62" r="0.5" fill="#888888" />
    <circle cx="70" cy="72" r="0.5" fill="#888888" />
    <circle cx="70" cy="88" r="0.5" fill="#888888" />
    <circle cx="70" cy="98" r="0.5" fill="#888888" />
    <circle cx="70" cy="108" r="0.5" fill="#888888" />

    
    <line x1="45" y1="50" x2="73" y2="50" stroke="#CCCCCC" stroke-width="0.3" />
    <line x1="45" y1="90" x2="73" y2="90" stroke="#CCCCCC" stroke-width="0.3" />
    <line x1="45" y1="115" x2="73" y2="115" stroke="#CCCCCC" stroke-width="0.3" />

    
    <line x1="60" y1="5" x2="60" y2="2" stroke="#888888" stroke-width="0.8" />
    <circle cx="60" cy="1.5" r="1" fill="#DD2200" />
    <circle cx="60" cy="1.5" r="0.5" fill="#FF4422" />

    
    <animateTransform attributeName="transform" type="rotate" values="-3,60,75;-1,60,75;-3,60,75" dur="4s" repeatCount="indefinite" additive="sum" />
  </g>

  <defs>
    <radialGradient id="windowGrad" cx="45%" cy="40%">
      <stop offset="0%" stop-color="#4488DD" stop-opacity="0.8" />
      <stop offset="100%" stop-color="#112244" stop-opacity="1" />
    </radialGradient>
  </defs>
</svg><g id="linai"><g id="linai-trails"><path d="M70 140 Q65 155 55 170 Q50 180 48 190" stroke="#44ddee" stroke-width="4" fill="none" opacity="0.1" stroke-linecap="round" filter="url(#blur2)" /><path d="M90 145 Q85 160 80 175 Q78 185 75 195" stroke="#88eeff" stroke-width="5" fill="none" opacity="0.12" stroke-linecap="round" filter="url(#blur2)" /><path d="M110 148 Q112 165 108 180 Q106 190 105 200" stroke="#44ddee" stroke-width="6" fill="none" opacity="0.1" stroke-linecap="round" filter="url(#blur2)" /><path d="M130 142 Q135 158 140 172 Q142 182 145 192" stroke="#88eeff" stroke-width="4" fill="none" opacity="0.08" stroke-linecap="round" filter="url(#blur2)" /><path d="M100 150 Q98 168 95 185 Q93 195 92 200" stroke="#aaf4ff" stroke-width="7" fill="none" opacity="0.15" stroke-linecap="round" filter="url(#blur3)" /><ellipse cx="100" cy="155" rx="25" ry="10" fill="#44ddee" opacity="0.1" filter="url(#blur3)" /><animateTransform attributeName="transform" type="translate" values="0 0;0 -2;0 0;0 2;0 0;-4 0;0 0;4 0;0 0;0 0" keyTimes="0;0.1;0.25;0.3;0.425;0.5;0.6;0.7;0.8;1" dur="8000ms" repeatCount="indefinite" /><animate attributeName="opacity" values="1;1;1;1;1;0.7;0.9;0.6;1;1" keyTimes="0;0.1;0.25;0.3;0.425;0.5;0.6;0.7;0.8;1" dur="8000ms" repeatCount="indefinite" /></g><g id="linai-body"><ellipse cx="108" cy="90" rx="70" ry="60" fill="#44ddee" opacity="0.15" filter="url(#blur3)" /><path d="M55 95 Q45 60 70 38 Q85 28 105 25 Q130 22 148 38 Q165 55 160 80 Q158 100 150 120 Q140 142 120 148 Q100 155 80 148 Q60 140 55 120 Z" fill="#44ddee" opacity="0.35" filter="url(#blur1)" /><path d="M60 92 Q52 62 75 42 Q90 32 108 30 Q132 28 147 42 Q160 58 156 82 Q153 102 145 118 Q136 138 118 143 Q100 148 82 142 Q65 135 60 112 Z" fill="#88eeff" opacity="0.4" /><path d="M68 90 Q62 68 80 50 Q92 40 108 38 Q128 36 140 48 Q152 62 148 82 Q145 100 138 114 Q130 130 115 135 Q100 140 87 133 Q72 125 68 108 Z" fill="#aaf4ff" opacity="0.5" /><ellipse cx="95" cy="75" rx="35" ry="28" fill="#aaf4ff" opacity="0.3" /><ellipse cx="115" cy="85" rx="28" ry="22" fill="#88eeff" opacity="0.25" /><ellipse cx="105" cy="80" rx="30" ry="25" fill="url(#innerGlow)" opacity="0.6" /><ellipse cx="80" cy="40" rx="18" ry="14" fill="#aaf4ff" opacity="0.4" filter="url(#blurSmall)" /><ellipse cx="105" cy="30" rx="20" ry="12" fill="#88eeff" opacity="0.45" filter="url(#blurSmall)" /><ellipse cx="130" cy="38" rx="16" ry="13" fill="#aaf4ff" opacity="0.35" filter="url(#blurSmall)" /><animateTransform attributeName="transform" type="scale" values="1 1;1.03 0.98;1 1;0.96 1.04;1 1;1 1.06;0.97 1;1.04 0.96;1 1;1 1" keyTimes="0;0.1;0.25;0.3;0.425;0.5;0.6;0.7;0.8;1" additive="sum" dur="8000ms" repeatCount="indefinite" /><animate attributeName="opacity" values="1;1;1;1;1;1;1;1;1;1" dur="8000ms" repeatCount="indefinite" /><g data-linai-body-content-wrapper="true"><g id="linai-particles" clip-path="url(#cloud-body-clip)"><circle cx="88" cy="68" r="2" fill="#ffffff" opacity="0.7" filter="url(#blurSmall)" /><circle cx="88" cy="68" r="1" fill="#ffffff" opacity="0.9" /><circle cx="120" cy="75" r="1.8" fill="#ffffff" opacity="0.6" filter="url(#blurSmall)" /><circle cx="100" cy="110" r="1.5" fill="#aaf4ff" opacity="0.7" filter="url(#blurSmall)" /><circle cx="130" cy="95" r="1.8" fill="#ffffff" opacity="0.5" filter="url(#blurSmall)" /><circle cx="78" cy="88" r="1.3" fill="#88eeff" opacity="0.6" filter="url(#blurSmall)" /><circle cx="112" cy="55" r="1.5" fill="#ffffff" opacity="0.5" filter="url(#blurSmall)" /><circle cx="140" cy="68" r="1.2" fill="#aaf4ff" opacity="0.6" filter="url(#blurSmall)" /><animateTransform attributeName="transform" type="scale" values="1;1;1;1.8;1;1;1;1.5;1;1" keyTimes="0;0.1;0.25;0.3;0.425;0.5;0.6;0.7;0.8;1" dur="8000ms" repeatCount="indefinite" /><animate attributeName="opacity" values="0.6;0.6;0.6;1;0.6;0.6;0.6;1;0.5;0.5" keyTimes="0;0.1;0.25;0.3;0.425;0.5;0.6;0.7;0.8;1" dur="8000ms" repeatCount="indefinite" /></g><g id="linai-mouth" clip-path="url(#cloud-body-clip)"><path d="M112 98 Q118 104 125 100" stroke="#2299aa" stroke-width="1.8" fill="none" opacity="0.6" stroke-linecap="round"><animate attributeName="d" values="M112 98 Q118 104 125 100;M112 98 Q118 104 125 100;M112 98 Q118 104 125 100;M110 98 Q118 108 126 98;M110 98 Q118 108 126 98;M110 98 Q118 108 126 98;M112 100 Q118 104 124 100;M113 100 Q118 101 123 100;M113 100 Q118 101 123 100;M113 100 Q118 101 123 100" keyTimes="0;0.1;0.25;0.3;0.425;0.5;0.6;0.7;0.8;1" dur="8000ms" repeatCount="indefinite" /></path></g><g id="linai-eye-left" clip-path="url(#cloud-body-clip)"><g data-eye-socket-wrapper="true" clip-path="url(#cloud-eye-left-clip)"><ellipse cx="95" cy="72" rx="12" ry="14" fill="url(#eyeGrad)" /><ellipse cx="95" cy="74" rx="11" ry="12" fill="#ddeeff" opacity="0.3" /><ellipse cx="97" cy="73" rx="7" ry="8.5" fill="#113344"><animate attributeName="ry" values="8.5;9.5;8.5;10;8.5;8.5;8.5;8.5;8.5;8.5" keyTimes="0;0.1;0.25;0.3;0.425;0.5;0.6;0.7;0.8;1" dur="8000ms" repeatCount="indefinite" /></ellipse><ellipse cx="98" cy="73" rx="4" ry="5" fill="url(#pupilGlow)" /><ellipse cx="98" cy="73" rx="3" ry="3.5" fill="#00eeff" opacity="0.8" /><ellipse cx="93" cy="68" rx="3" ry="3.5" fill="#ffffff" opacity="0.95" /><ellipse cx="100" cy="77" rx="1.5" ry="1.8" fill="#ffffff" opacity="0.6" /><circle cx="98" cy="72" r="1.2" fill="#aaffff" opacity="0.7" /></g></g><g id="linai-eye-right" clip-path="url(#cloud-body-clip)"><g data-eye-socket-wrapper="true" clip-path="url(#cloud-eye-right-clip)"><ellipse cx="122" cy="70" rx="13" ry="15" fill="url(#eyeGrad)" /><ellipse cx="122" cy="72" rx="12" ry="13" fill="#ddeeff" opacity="0.3" /><ellipse cx="124" cy="71" rx="7.5" ry="9" fill="#113344"><animate attributeName="ry" values="9;10;9;11;9;9;9;9;9;9" keyTimes="0;0.1;0.25;0.3;0.425;0.5;0.6;0.7;0.8;1" dur="8000ms" repeatCount="indefinite" /></ellipse><ellipse cx="125" cy="71" rx="4.5" ry="5.5" fill="url(#pupilGlow)" /><ellipse cx="125" cy="71" rx="3.2" ry="3.8" fill="#00eeff" opacity="0.8" /><ellipse cx="120" cy="66" rx="3.2" ry="3.8" fill="#ffffff" opacity="0.95" /><ellipse cx="127" cy="75" rx="1.6" ry="2" fill="#ffffff" opacity="0.6" /><circle cx="125" cy="70" r="1.3" fill="#aaffff" opacity="0.7" /></g></g><g id="linai-inner-patterns" clip-path="url(#cloud-body-clip)"><g id="linai-inner-patterns-sparkles"><circle cx="100" cy="118" r="2" fill="#ffffff" opacity="0.5"><animate attributeName="opacity" values="0.5;0.8;0.5;0.2;0.6;0.4;0.6;0.3;0.5;0.5" keyTimes="0;0.1;0.25;0.3;0.425;0.5;0.6;0.7;0.8;1" dur="8000ms" repeatCount="indefinite" /></circle><circle cx="90" cy="125" r="1.5" fill="#aaf4ff" opacity="0.4"><animate attributeName="opacity" values="0.4;0.7;0.4;0.2;0.5;0.3;0.5;0.2;0.4;0.4" keyTimes="0;0.1;0.25;0.3;0.425;0.5;0.6;0.7;0.8;1" dur="8000ms" repeatCount="indefinite" /></circle><circle cx="112" cy="122" r="1.5" fill="#88eeff" opacity="0.4"><animate attributeName="opacity" values="0.4;0.6;0.4;0.2;0.5;0.3;0.5;0.2;0.4;0.4" keyTimes="0;0.1;0.25;0.3;0.425;0.5;0.6;0.7;0.8;1" dur="8000ms" repeatCount="indefinite" /></circle><g id="linai-inner-patterns-exclaim" opacity="0"><rect x="98" y="112" width="4" height="10" rx="2" fill="#ffffff" opacity="0.9" /><circle cx="100" cy="126" r="2" fill="#ffffff" opacity="0.9" /><animate attributeName="opacity" values="0;0;0;1;0.3;0;0;0;0;0" keyTimes="0;0.1;0.25;0.3;0.425;0.5;0.6;0.7;0.8;1" dur="8000ms" repeatCount="indefinite" /></g><g id="linai-inner-patterns-qmark" opacity="0"><path d="M96 112 Q96 108 100 108 Q104 108 104 112 Q104 116 100 118" stroke="#aaf4ff" stroke-width="2" fill="none" stroke-linecap="round" /><circle cx="100" cy="122" r="1.5" fill="#aaf4ff" /><animate attributeName="opacity" values="0;0;0;0;0;0;0;0;0.7;0.7" keyTimes="0;0.1;0.25;0.3;0.425;0.5;0.6;0.7;0.8;1" dur="8000ms" repeatCount="indefinite" /></g></g></g></g></g><animateTransform href="#linai" attributeName="transform" type="translate" values="40 0;120 -2;175 0;170 4;165 -40;155 -20;160 -5;155 2;160 0;160 0" keyTimes="0;0.25;0.425;0.55;0.65;0.7125;0.775;0.8375;0.925;1" dur="8000ms" repeatCount="indefinite" /></g></svg>