<svg xmlns="http://www.w3.org/2000/svg" id="background-root" viewBox="0 0 800 200">
  <defs>
    <linearGradient id="waterGrad" x1="0" y1="0" x2="0" y2="1">
      <stop offset="0%" stop-color="#050510" />
      <stop offset="25%" stop-color="#0a0a2e" />
      <stop offset="50%" stop-color="#0c1a3a" />
      <stop offset="70%" stop-color="#0e2a3d" />
      <stop offset="85%" stop-color="#1a3a3a" />
      <stop offset="100%" stop-color="#3d3a2a" />
    </linearGradient>
    <linearGradient id="lightShaft" x1="0.5" y1="0" x2="0.5" y2="1">
      <stop offset="0%" stop-color="#ffd780" stop-opacity="0.5" />
      <stop offset="50%" stop-color="#ffd780" stop-opacity="0.2" />
      <stop offset="100%" stop-color="#ffd780" stop-opacity="0" />
    </linearGradient>
    <radialGradient id="orbGlow1" cx="50%" cy="50%" r="50%">
      <stop offset="0%" stop-color="#66ffcc" stop-opacity="1" />
      <stop offset="100%" stop-color="#66ffcc" stop-opacity="0" />
    </radialGradient>
    <radialGradient id="orbGlow2" cx="50%" cy="50%" r="50%">
      <stop offset="0%" stop-color="#44aaff" stop-opacity="1" />
      <stop offset="100%" stop-color="#44aaff" stop-opacity="0" />
    </radialGradient>
    <radialGradient id="orbGlow3" cx="50%" cy="50%" r="50%">
      <stop offset="0%" stop-color="#88ddff" stop-opacity="1" />
      <stop offset="100%" stop-color="#88ddff" stop-opacity="0" />
    </radialGradient>
    <linearGradient id="sandGrad" x1="0" y1="0" x2="0" y2="1">
      <stop offset="0%" stop-color="#2a2a1e" />
      <stop offset="100%" stop-color="#3d3828" />
    </linearGradient>
  </defs>

  <g id="background-main">
    
    <rect x="0" y="0" width="800" height="200" fill="url(#waterGrad)" />

    
    <rect x="0" y="0" width="800" height="120" fill="#070718" opacity="0.4" />

    
    <rect x="580" y="80" width="8" height="60" fill="#0e1520" opacity="0.6" />
    <rect x="620" y="70" width="6" height="70" fill="#0e1520" opacity="0.5" />
    <rect x="575" y="78" width="55" height="6" fill="#0e1520" opacity="0.5" />
    <polygon points="650,100 660,140 640,140" fill="#0e1520" opacity="0.4" />

    
    <rect x="0" y="155" width="800" height="45" fill="url(#sandGrad)" />
    <rect x="0" y="160" width="800" height="40" fill="#3a3525" opacity="0.8" />

    
    <path d="M0,170 Q40,167 80,170 Q120,173 160,170 Q200,167 240,170 Q280,173 320,170 Q360,167 400,170 Q440,173 480,170 Q520,167 560,170 Q600,173 640,170 Q680,167 720,170 Q760,173 800,170" fill="none" stroke="#4a4535" stroke-width="1" opacity="0.6" />
    <path d="M0,178 Q50,175 100,178 Q150,181 200,178 Q250,175 300,178 Q350,181 400,178 Q450,175 500,178 Q550,181 600,178 Q650,175 700,178 Q750,181 800,178" fill="none" stroke="#4a4535" stroke-width="0.8" opacity="0.5" />
    <path d="M0,185 Q45,182 90,185 Q135,188 180,185 Q225,182 270,185 Q315,188 360,185 Q405,182 450,185 Q495,188 540,185 Q585,182 630,185 Q675,188 720,185 Q765,182 800,185" fill="none" stroke="#4a4535" stroke-width="0.7" opacity="0.4" />

    
    <ellipse cx="200" cy="175" rx="4" ry="2.5" fill="#5a5040" opacity="0.7" />
    <ellipse cx="350" cy="180" rx="3" ry="2" fill="#6a6050" opacity="0.6" />
    <ellipse cx="500" cy="172" rx="3.5" ry="2" fill="#5e5545" opacity="0.65" />
    <ellipse cx="680" cy="178" rx="2.5" ry="1.5" fill="#6a5e48" opacity="0.6" />
    <circle cx="150" cy="182" r="2" fill="#4a4438" opacity="0.5" />
    <circle cx="450" cy="176" r="1.5" fill="#555040" opacity="0.55" />

    
    <ellipse cx="300" cy="183" rx="5" ry="3" fill="#3a3530" opacity="0.7" />
    <ellipse cx="420" cy="179" rx="4" ry="2.5" fill="#3e3a32" opacity="0.6" />
    <circle cx="550" cy="185" r="3" fill="#35322c" opacity="0.65" />
    <ellipse cx="130" cy="178" rx="3" ry="2" fill="#3c3830" opacity="0.55" />
    <circle cx="720" cy="182" r="2.5" fill="#38352e" opacity="0.6" />

    
    <g opacity="0.6">
      <circle cx="260" cy="170" r="3" fill="#4a4a40" />
      <circle cx="264" cy="172" r="2.5" fill="#454540" />
      <circle cx="257" cy="172" r="2" fill="#505045" />
      <circle cx="261" cy="168" r="1.5" fill="#555550" />
    </g>
    <g opacity="0.5">
      <circle cx="600" cy="168" r="2.5" fill="#4a4a40" />
      <circle cx="603" cy="170" r="2" fill="#454540" />
      <circle cx="597" cy="170" r="1.8" fill="#505045" />
    </g>

    
    <rect x="30" y="90" width="18" height="75" fill="#2a2a28" opacity="0.9" />
    <rect x="110" y="95" width="16" height="70" fill="#282826" opacity="0.9" />
    
    <path d="M30,95 Q75,55 126,95" fill="#2a2a28" stroke="none" opacity="0.85" />
    <path d="M48,100 Q75,72 110,100" fill="#0e1a20" stroke="none" opacity="0.9" />
    
    <rect x="25" y="88" width="10" height="8" fill="#333330" opacity="0.7" rx="1" />
    <rect x="40" y="85" width="8" height="6" fill="#2e2e2a" opacity="0.65" rx="1" />
    <rect x="115" y="92" width="9" height="7" fill="#313130" opacity="0.7" rx="1" />
    <rect x="108" y="88" width="7" height="5" fill="#2c2c28" opacity="0.6" rx="1" />
    
    <ellipse cx="50" cy="168" rx="8" ry="5" fill="#2e2e28" opacity="0.7" />
    <ellipse cx="120" cy="170" rx="6" ry="4" fill="#303028" opacity="0.65" />
    <rect x="60" cy="165" width="12" height="8" fill="#2a2a25" opacity="0.6" rx="2" y="162" />

    
    <path d="M30,100 Q35,98 38,102 Q42,97 48,100" fill="#1a4a30" opacity="0.6" />
    <path d="M30,115 Q33,112 37,116 Q40,111 44,114" fill="#1d4d35" opacity="0.55" />
    <path d="M110,105 Q114,102 118,106 Q122,101 126,104" fill="#1a4a30" opacity="0.6" />
    <path d="M55,62 Q65,58 75,60 Q85,57 95,62" fill="#1e5038" opacity="0.5" />
    
    <path d="M40,100 Q38,110 42,120" fill="none" stroke="#1a4a30" stroke-width="1.5" opacity="0.5" />
    <path d="M55,70 Q53,82 56,92" fill="none" stroke="#1d5035" stroke-width="1.2" opacity="0.45" />
    <path d="M85,68 Q87,80 84,90" fill="none" stroke="#1a4a30" stroke-width="1.3" opacity="0.45" />
    <path d="M115,105 Q117,115 114,125" fill="none" stroke="#1d4d35" stroke-width="1.2" opacity="0.5" />

    
    <g>
      
      <path d="M680,165 Q678,130 685,95" fill="none" stroke="#1a5535" stroke-width="3" opacity="0.8" />
      <path d="M690,165 Q692,125 688,90" fill="none" stroke="#1d5d3a" stroke-width="2.5" opacity="0.75" />
      <path d="M700,168 Q697,135 703,100" fill="none" stroke="#1a5535" stroke-width="2.8" opacity="0.7" />
      <path d="M685,167 Q680,140 686,108" fill="none" stroke="#205e3d" stroke-width="2" opacity="0.65" />
      <path d="M695,166 Q700,130 694,95" fill="none" stroke="#1d5838" stroke-width="2.3" opacity="0.7" />
      
      <path d="M720,168 Q718,138 724,105" fill="none" stroke="#1a5535" stroke-width="2.8" opacity="0.75" />
      <path d="M730,167 Q733,130 728,98" fill="none" stroke="#1d5d3a" stroke-width="2.5" opacity="0.7" />
      <path d="M740,170 Q737,140 742,110" fill="none" stroke="#1a5535" stroke-width="2.2" opacity="0.65" />
      <path d="M725,169 Q722,135 727,102" fill="none" stroke="#205e3d" stroke-width="2" opacity="0.6" />
      
      <path d="M755,170 Q753,142 758,115" fill="none" stroke="#1a5535" stroke-width="2.5" opacity="0.7" />
      <path d="M765,168 Q768,135 763,108" fill="none" stroke="#1d5d3a" stroke-width="2.2" opacity="0.65" />
      <path d="M775,170 Q772,145 777,118" fill="none" stroke="#1a5535" stroke-width="2" opacity="0.6" />
      
      <path d="M670,170 Q668,148 673,128" fill="none" stroke="#1d5838" stroke-width="2" opacity="0.6" />
      <path d="M785,172 Q783,150 787,132" fill="none" stroke="#1a5535" stroke-width="1.8" opacity="0.55" />
    </g>

    
    <path d="M160,170 Q158,152 162,138" fill="none" stroke="#1a5535" stroke-width="1.5" opacity="0.5" />
    <path d="M168,172 Q170,155 167,140" fill="none" stroke="#1d5838" stroke-width="1.3" opacity="0.45" />

    
    <polygon points="350,0 420,0 480,200 320,200" fill="url(#lightShaft)" opacity="0.25" />
    <polygon points="380,0 440,0 500,200 350,200" fill="#ffd780" opacity="0.08" />
    <polygon points="360,0 390,0 440,200 380,200" fill="#ffe8a0" opacity="0.06" />

    
    <ellipse cx="400" cy="170" rx="70" ry="15" fill="#ffd780" opacity="0.08" />
    <ellipse cx="400" cy="172" rx="50" ry="10" fill="#ffe8a0" opacity="0.06" />

    
    <g id="background-animated-part">
      
      <circle cx="520" cy="55" r="12" fill="url(#orbGlow1)">
        <animate attributeName="opacity" values="0.1;0.8;0.1" dur="2.5s" repeatCount="indefinite" />
      </circle>
      <circle cx="520" cy="55" r="3" fill="#aaffee" opacity="0.9">
        <animate attributeName="opacity" values="0.1;0.8;0.1" dur="2.5s" repeatCount="indefinite" />
      </circle>

      
      <circle cx="230" cy="40" r="10" fill="url(#orbGlow2)">
        <animate attributeName="opacity" values="0.05;0.6;0.05" dur="3.5s" begin="1s" repeatCount="indefinite" />
      </circle>
      <circle cx="230" cy="40" r="2.5" fill="#88ccff" opacity="0.8">
        <animate attributeName="opacity" values="0.05;0.6;0.05" dur="3.5s" begin="1s" repeatCount="indefinite" />
      </circle>

      
      <circle cx="650" cy="35" r="6" fill="url(#orbGlow3)" opacity="0.15" />
      <circle cx="180" cy="65" r="5" fill="url(#orbGlow1)" opacity="0.1" />
      <circle cx="480" cy="30" r="4" fill="url(#orbGlow2)" opacity="0.08" />

      
      <polygon points="350,0 420,0 480,200 320,200" fill="#ffd780">
        <animate attributeName="opacity" values="0.12;0.45;0.12" dur="4s" repeatCount="indefinite" />
      </polygon>

      
      <path d="M685,90 Q683,82 688,75 Q690,80 687,88" fill="#2d7a4f">
        <animate attributeName="fill" values="#2d7a4f;#4db87a;#2d7a4f" dur="3s" repeatCount="indefinite" />
      </path>
      <path d="M724,100 Q722,92 727,85 Q729,90 726,98" fill="#2d7a4f">
        <animate attributeName="fill" values="#4db87a;#2d7a4f;#4db87a" dur="3s" repeatCount="indefinite" />
      </path>
      <path d="M694,88 Q696,80 692,73 Q690,78 693,86" fill="#2d7a4f">
        <animate attributeName="fill" values="#2d7a4f;#4db87a;#2d7a4f" dur="3s" begin="0.5s" repeatCount="indefinite" />
      </path>

      
      <path d="M35,108 Q50,103 60,108 Q55,112 45,115 Q38,112 35,108" fill="#1e6040">
        <animate attributeName="opacity" values="0.3;0.7;0.3" dur="5s" repeatCount="indefinite" />
      </path>
      <path d="M70,65 Q80,60 90,65 Q85,70 75,68" fill="#1e6040">
        <animate attributeName="opacity" values="0.3;0.7;0.3" dur="5s" repeatCount="indefinite" />
      </path>
    </g>

    
    <rect x="0" y="0" width="800" height="30" fill="#050510" opacity="0.5" />
    <rect x="0" y="190" width="800" height="10" fill="#1a1a10" opacity="0.3" />
  </g>
</svg>