<svg xmlns="http://www.w3.org/2000/svg" id="background-root" viewBox="0 0 800 200">
  <defs>
    <linearGradient id="skyGrad" x1="0" y1="0" x2="0" y2="1">
      <stop offset="0%" stop-color="#4db8ff" />
      <stop offset="60%" stop-color="#87ceeb" />
      <stop offset="100%" stop-color="#b8e4f0" />
    </linearGradient>
    <linearGradient id="groundGrad" x1="0" y1="0" x2="0" y2="1">
      <stop offset="0%" stop-color="#5a9e3e" />
      <stop offset="100%" stop-color="#3d7a28" />
    </linearGradient>
    <radialGradient id="sunGlow" cx="0.5" cy="0.5" r="0.5">
      <stop offset="0%" stop-color="#fff7aa" stop-opacity="1" />
      <stop offset="100%" stop-color="#fff7aa" stop-opacity="0" />
    </radialGradient>
  </defs>
  <g id="background-main">
    
    <rect x="0" y="0" width="800" height="200" fill="url(#skyGrad)" />

    
    <circle cx="700" cy="30" r="28" fill="#fff44f" />
    <circle cx="700" cy="30" r="22" fill="#ffe033" />

    
    <ellipse cx="700" cy="30" rx="60" ry="60" fill="url(#sunGlow)" opacity="0.5" />

    
    <ellipse cx="150" cy="40" rx="55" ry="18" fill="#ffffff" opacity="0.9" />
    <ellipse cx="180" cy="35" rx="40" ry="15" fill="#ffffff" opacity="0.85" />
    <ellipse cx="120" cy="38" rx="35" ry="14" fill="#ffffff" opacity="0.88" />

    <ellipse cx="450" cy="55" rx="50" ry="16" fill="#ffffff" opacity="0.8" />
    <ellipse cx="480" cy="50" rx="38" ry="13" fill="#ffffff" opacity="0.75" />
    <ellipse cx="420" cy="52" rx="30" ry="12" fill="#ffffff" opacity="0.78" />

    <ellipse cx="600" cy="70" rx="35" ry="12" fill="#ffffff" opacity="0.7" />
    <ellipse cx="625" cy="66" rx="28" ry="10" fill="#ffffff" opacity="0.65" />

    
    <ellipse cx="80" cy="105" rx="45" ry="18" fill="#2d6b1e" opacity="0.7" />
    <ellipse cx="160" cy="102" rx="50" ry="20" fill="#357a24" opacity="0.65" />
    <ellipse cx="250" cy="107" rx="55" ry="17" fill="#2a6018" opacity="0.7" />
    <ellipse cx="340" cy="103" rx="48" ry="19" fill="#327220" opacity="0.68" />
    <ellipse cx="430" cy="106" rx="52" ry="18" fill="#2d6b1e" opacity="0.72" />
    <ellipse cx="520" cy="104" rx="46" ry="20" fill="#3a8028" opacity="0.65" />
    <ellipse cx="610" cy="107" rx="50" ry="17" fill="#2a6018" opacity="0.7" />
    <ellipse cx="700" cy="103" rx="55" ry="19" fill="#357a24" opacity="0.68" />
    <ellipse cx="780" cy="106" rx="40" ry="18" fill="#2d6b1e" opacity="0.7" />

    
    <rect x="0" y="100" width="800" height="100" fill="url(#groundGrad)" />

    
    <ellipse cx="50" cy="110" rx="60" ry="8" fill="#4a8e32" opacity="0.8" />
    <ellipse cx="200" cy="112" rx="70" ry="7" fill="#52a038" opacity="0.75" />
    <ellipse cx="380" cy="108" rx="65" ry="9" fill="#4a8e32" opacity="0.8" />
    <ellipse cx="550" cy="111" rx="75" ry="8" fill="#52a038" opacity="0.7" />
    <ellipse cx="720" cy="109" rx="60" ry="7" fill="#4a8e32" opacity="0.8" />

    
    
    <circle cx="30" cy="118" r="3" fill="#e63946" />
    <circle cx="95" cy="115" r="2.5" fill="#d62828" />
    <circle cx="180" cy="120" r="3" fill="#e63946" />
    <circle cx="260" cy="116" r="2.5" fill="#c1121f" />
    <circle cx="350" cy="119" r="3" fill="#e63946" />
    <circle cx="440" cy="114" r="2.5" fill="#d62828" />
    <circle cx="530" cy="118" r="3" fill="#e63946" />
    <circle cx="620" cy="116" r="2.5" fill="#c1121f" />
    <circle cx="710" cy="119" r="3" fill="#e63946" />
    <circle cx="770" cy="115" r="2.5" fill="#d62828" />

    
    <circle cx="55" cy="122" r="2.5" fill="#ffd60a" />
    <circle cx="130" cy="117" r="3" fill="#ffbe0b" />
    <circle cx="220" cy="121" r="2.5" fill="#ffd60a" />
    <circle cx="310" cy="118" r="3" fill="#ffbe0b" />
    <circle cx="400" cy="122" r="2.5" fill="#ffd60a" />
    <circle cx="490" cy="116" r="3" fill="#ffbe0b" />
    <circle cx="580" cy="120" r="2.5" fill="#ffd60a" />
    <circle cx="670" cy="117" r="3" fill="#ffbe0b" />
    <circle cx="750" cy="121" r="2.5" fill="#ffd60a" />

    
    <circle cx="70" cy="125" r="2" fill="#7b2d8e" />
    <circle cx="155" cy="123" r="2.5" fill="#9b59b6" />
    <circle cx="245" cy="126" r="2" fill="#7b2d8e" />
    <circle cx="335" cy="124" r="2.5" fill="#9b59b6" />
    <circle cx="425" cy="125" r="2" fill="#7b2d8e" />
    <circle cx="515" cy="123" r="2.5" fill="#9b59b6" />
    <circle cx="605" cy="126" r="2" fill="#7b2d8e" />
    <circle cx="695" cy="124" r="2.5" fill="#9b59b6" />
    <circle cx="785" cy="125" r="2" fill="#7b2d8e" />

    
    <circle cx="110" cy="120" r="2" fill="#f77f00" />
    <circle cx="290" cy="122" r="2.5" fill="#e36414" />
    <circle cx="460" cy="119" r="2" fill="#f77f00" />
    <circle cx="640" cy="121" r="2.5" fill="#e36414" />

    
    <rect x="0" y="130" width="800" height="70" fill="#3d7a28" />
    <ellipse cx="100" cy="132" rx="80" ry="6" fill="#4a8e32" />
    <ellipse cx="300" cy="130" rx="90" ry="7" fill="#52a038" />
    <ellipse cx="500" cy="133" rx="85" ry="6" fill="#4a8e32" />
    <ellipse cx="700" cy="131" rx="80" ry="7" fill="#52a038" />

    
    
    <line x1="60" y1="200" x2="60" y2="150" stroke="#2d6b1e" stroke-width="2.5" />
    <ellipse cx="50" cy="165" rx="8" ry="3" fill="#3a8028" />
    <circle cx="60" cy="148" r="7" fill="#e63946" />
    <circle cx="54" cy="145" r="5" fill="#d62828" />
    <circle cx="66" cy="145" r="5" fill="#d62828" />
    <circle cx="57" cy="141" r="4.5" fill="#c1121f" />
    <circle cx="63" cy="141" r="4.5" fill="#c1121f" />
    <circle cx="60" cy="147" r="3" fill="#ffbe0b" />

    
    <line x1="160" y1="200" x2="160" y2="142" stroke="#2d6b1e" stroke-width="2.5" />
    <ellipse cx="170" cy="160" rx="7" ry="3" fill="#3a8028" />
    <circle cx="160" cy="140" r="6.5" fill="#9b59b6" />
    <circle cx="154" cy="137" r="5" fill="#8e44ad" />
    <circle cx="166" cy="137" r="5" fill="#8e44ad" />
    <circle cx="160" cy="133" r="4.5" fill="#7b2d8e" />
    <circle cx="160" cy="139" r="2.5" fill="#ffd60a" />

    
    <line x1="280" y1="200" x2="280" y2="145" stroke="#2d6b1e" stroke-width="2.5" />
    <ellipse cx="290" cy="168" rx="8" ry="3" fill="#3a8028" />
    <ellipse cx="270" cy="158" rx="7" ry="3" fill="#3a8028" />
    <circle cx="280" cy="143" r="7" fill="#f77f00" />
    <circle cx="274" cy="140" r="5" fill="#e36414" />
    <circle cx="286" cy="140" r="5" fill="#e36414" />
    <circle cx="280" cy="136" r="4.5" fill="#d35400" />
    <circle cx="280" cy="142" r="3" fill="#ffd60a" />

    
    <line x1="420" y1="200" x2="420" y2="148" stroke="#2d6b1e" stroke-width="2.5" />
    <ellipse cx="410" cy="165" rx="8" ry="3" fill="#3a8028" />
    <circle cx="420" cy="146" r="6.5" fill="#e63946" />
    <circle cx="414" cy="143" r="5" fill="#d62828" />
    <circle cx="426" cy="143" r="5" fill="#d62828" />
    <circle cx="420" cy="139" r="4.5" fill="#c1121f" />
    <circle cx="420" cy="145" r="2.5" fill="#ffe066" />

    
    <line x1="540" y1="200" x2="540" y2="140" stroke="#2d6b1e" stroke-width="2.5" />
    <ellipse cx="530" cy="160" rx="7" ry="3" fill="#3a8028" />
    <ellipse cx="550" cy="155" rx="8" ry="3" fill="#3a8028" />
    <circle cx="540" cy="138" r="7" fill="#9b59b6" />
    <circle cx="534" cy="135" r="5" fill="#8e44ad" />
    <circle cx="546" cy="135" r="5" fill="#8e44ad" />
    <circle cx="540" cy="131" r="4.5" fill="#7b2d8e" />
    <circle cx="540" cy="137" r="3" fill="#ffd60a" />

    
    <line x1="680" y1="200" x2="680" y2="152" stroke="#2d6b1e" stroke-width="2.5" />
    <ellipse cx="670" cy="170" rx="8" ry="3" fill="#3a8028" />
    <circle cx="680" cy="150" r="6.5" fill="#f77f00" />
    <circle cx="674" cy="147" r="5" fill="#e36414" />
    <circle cx="686" cy="147" r="5" fill="#e36414" />
    <circle cx="680" cy="143" r="4.5" fill="#d35400" />
    <circle cx="680" cy="149" r="2.5" fill="#ffe066" />

    
    <circle cx="20" cy="175" r="3.5" fill="#ff6b8a" />
    <circle cx="100" cy="180" r="3" fill="#ffd60a" />
    <circle cx="200" cy="172" r="3.5" fill="#e63946" />
    <circle cx="320" cy="178" r="3" fill="#9b59b6" />
    <circle cx="370" cy="170" r="3.5" fill="#ff6b8a" />
    <circle cx="470" cy="176" r="3" fill="#ffd60a" />
    <circle cx="500" cy="182" r="3.5" fill="#e63946" />
    <circle cx="590" cy="174" r="3" fill="#f77f00" />
    <circle cx="640" cy="180" r="3.5" fill="#9b59b6" />
    <circle cx="730" cy="172" r="3" fill="#ff6b8a" />
    <circle cx="780" cy="178" r="3.5" fill="#ffd60a" />

    
    <circle cx="40" cy="190" r="2.5" fill="#e63946" />
    <circle cx="120" cy="192" r="2" fill="#9b59b6" />
    <circle cx="240" cy="188" r="2.5" fill="#f77f00" />
    <circle cx="350" cy="191" r="2" fill="#ffd60a" />
    <circle cx="460" cy="189" r="2.5" fill="#ff6b8a" />
    <circle cx="560" cy="193" r="2" fill="#e63946" />
    <circle cx="650" cy="190" r="2.5" fill="#9b59b6" />
    <circle cx="760" cy="188" r="2" fill="#f77f00" />

    
    <line x1="15" y1="200" x2="10" y2="170" stroke="#2d6b1e" stroke-width="1.5" />
    <line x1="45" y1="200" x2="50" y2="168" stroke="#3a8028" stroke-width="1.5" />
    <line x1="85" y1="200" x2="80" y2="172" stroke="#2d6b1e" stroke-width="1.5" />
    <line x1="140" y1="200" x2="145" y2="165" stroke="#3a8028" stroke-width="1.5" />
    <line x1="195" y1="200" x2="190" y2="170" stroke="#2d6b1e" stroke-width="1.5" />
    <line x1="250" y1="200" x2="255" y2="168" stroke="#3a8028" stroke-width="1.5" />
    <line x1="310" y1="200" x2="305" y2="172" stroke="#2d6b1e" stroke-width="1.5" />
    <line x1="380" y1="200" x2="385" y2="166" stroke="#3a8028" stroke-width="1.5" />
    <line x1="450" y1="200" x2="445" y2="170" stroke="#2d6b1e" stroke-width="1.5" />
    <line x1="510" y1="200" x2="515" y2="168" stroke="#3a8028" stroke-width="1.5" />
    <line x1="570" y1="200" x2="565" y2="172" stroke="#2d6b1e" stroke-width="1.5" />
    <line x1="630" y1="200" x2="635" y2="165" stroke="#3a8028" stroke-width="1.5" />
    <line x1="710" y1="200" x2="705" y2="170" stroke="#2d6b1e" stroke-width="1.5" />
    <line x1="770" y1="200" x2="775" y2="168" stroke="#3a8028" stroke-width="1.5" />

    
    <g id="background-animated-part">
      
      <g>
        <line x1="370" y1="200" x2="370" y2="155" stroke="#2d6b1e" stroke-width="2.5" />
        <ellipse cx="360" cy="172" rx="7" ry="3" fill="#3a8028" />
        <circle cx="370" cy="153" r="7" fill="#ffd60a" opacity="0.85">
          <animate attributeName="opacity" values="0.7;1.0;0.7" dur="3s" repeatCount="indefinite" />
        </circle>
        <circle cx="364" cy="150" r="5" fill="#ffbe0b" opacity="0.85">
          <animate attributeName="opacity" values="0.7;1.0;0.7" dur="3s" repeatCount="indefinite" />
        </circle>
        <circle cx="376" cy="150" r="5" fill="#ffbe0b" opacity="0.85">
          <animate attributeName="opacity" values="0.7;1.0;0.7" dur="3s" repeatCount="indefinite" />
        </circle>
        <circle cx="370" cy="146" r="4.5" fill="#f5c518" opacity="0.85">
          <animate attributeName="opacity" values="0.7;1.0;0.7" dur="3s" repeatCount="indefinite" />
        </circle>
        <circle cx="370" cy="152" r="3" fill="#8b6914" />
      </g>

      
      <g>
        <line x1="480" y1="200" x2="480" y2="148" stroke="#2d6b1e" stroke-width="2.5" />
        <ellipse cx="490" cy="168" rx="7" ry="3" fill="#3a8028" />
        <circle cx="480" cy="146" r="7" fill="#ff88aa">
          <animate attributeName="fill" values="#ff88aa;#ffbbcc;#ff88aa" dur="4s" repeatCount="indefinite" />
        </circle>
        <circle cx="474" cy="143" r="5" fill="#ff88aa">
          <animate attributeName="fill" values="#ff88aa;#ffbbcc;#ff88aa" dur="4s" repeatCount="indefinite" />
        </circle>
        <circle cx="486" cy="143" r="5" fill="#ff88aa">
          <animate attributeName="fill" values="#ff88aa;#ffbbcc;#ff88aa" dur="4s" repeatCount="indefinite" />
        </circle>
        <circle cx="480" cy="139" r="4.5" fill="#ff88aa">
          <animate attributeName="fill" values="#ff88aa;#ffbbcc;#ff88aa" dur="4s" repeatCount="indefinite" />
        </circle>
        <circle cx="480" cy="145" r="2.5" fill="#ffd60a" />
      </g>

      
      <g opacity="0.9">
        <ellipse cx="320" cy="35" rx="55" ry="18" fill="#ffffff" opacity="0.9">
          <animate attributeName="opacity" values="0.85;1.0;0.85" dur="5s" repeatCount="indefinite" />
        </ellipse>
        <ellipse cx="350" cy="30" rx="42" ry="15" fill="#ffffff" opacity="0.88">
          <animate attributeName="opacity" values="0.85;1.0;0.85" dur="5s" repeatCount="indefinite" />
        </ellipse>
        <ellipse cx="290" cy="33" rx="35" ry="14" fill="#ffffff" opacity="0.87">
          <animate attributeName="opacity" values="0.85;1.0;0.85" dur="5s" repeatCount="indefinite" />
        </ellipse>
      </g>

      
      <ellipse cx="700" cy="30" rx="90" ry="90" fill="url(#sunGlow)" opacity="0.45">
        <animate attributeName="opacity" values="0.3;0.6;0.3" dur="3.5s" repeatCount="indefinite" />
      </ellipse>
    </g>
  </g>
</svg>