<svg xmlns="http://www.w3.org/2000/svg" id="background-root" viewBox="0 0 800 200">
  <defs>
    <radialGradient id="skyGrad" cx="50%" cy="60%" r="70%">
      <stop offset="0%" stop-color="#1a1a4a" />
      <stop offset="60%" stop-color="#0f0f30" />
      <stop offset="100%" stop-color="#0a0a20" />
    </radialGradient>
    <radialGradient id="glowGrad" cx="50%" cy="50%" rx="50%" ry="50%">
      <stop offset="0%" stop-color="#fff8e0" stop-opacity="0.7" />
      <stop offset="30%" stop-color="#ffe8a0" stop-opacity="0.4" />
      <stop offset="60%" stop-color="#ffcc55" stop-opacity="0.15" />
      <stop offset="100%" stop-color="#0d0d2b" stop-opacity="0" />
    </radialGradient>
    <linearGradient id="skyVertical" x1="0" y1="0" x2="0" y2="1">
      <stop offset="0%" stop-color="#0a0a1e" />
      <stop offset="50%" stop-color="#0d0d2b" />
      <stop offset="85%" stop-color="#1a1a50" />
      <stop offset="100%" stop-color="#2a2060" />
    </linearGradient>
  </defs>

  <g id="background-main">
    
    <rect x="0" y="0" width="800" height="200" fill="url(#skyVertical)" />

    
    <g id="background-animated-part">
      
      <rect x="0" y="0" width="800" height="200" opacity="0.4" fill="#0d0d2b">
        <animate attributeName="fill" values="#0d0d2b;#1a1040;#0d0d2b" dur="7s" repeatCount="indefinite" />
      </rect>

      


      
      <circle cx="150" cy="25" r="2.5" fill="#ffffff" opacity="0.15">
        <animate attributeName="opacity" values="0.15;1.0;0.15" dur="2s" repeatCount="indefinite" />
      </circle>

      
      <circle cx="620" cy="40" r="2.2" fill="#eeeeff" opacity="1.0">
        <animate attributeName="opacity" values="1.0;0.15;1.0" dur="4.5s" repeatCount="indefinite" />
      </circle>

      
      <ellipse cx="400" cy="95" rx="220" ry="90" fill="url(#glowGrad)" opacity="0.5">
        <animate attributeName="opacity" values="0.25;0.7;0.25" dur="4s" repeatCount="indefinite" />
      </ellipse>

      
      <rect x="62" y="120" width="4" height="5" fill="#ffe8a0" rx="0.5">
        <animate attributeName="fill" values="#ffe8a0;#ffcc55;#ffe8a0" dur="3.5s" repeatCount="indefinite" />
      </rect>
    </g>

    
    <circle cx="80" cy="15" r="1.2" fill="#ffffff" opacity="0.8" />
    <circle cx="200" cy="50" r="1.0" fill="#ddddff" opacity="0.6" />
    <circle cx="250" cy="18" r="1.5" fill="#ffffff" opacity="0.9" />
    <circle cx="310" cy="35" r="0.8" fill="#ccccff" opacity="0.5" />
    <circle cx="350" cy="12" r="1.8" fill="#ffffff" opacity="0.7" />
    <circle cx="420" cy="22" r="1.0" fill="#eeeeff" opacity="0.6" />
    <circle cx="460" cy="45" r="1.3" fill="#ffffff" opacity="0.8" />
    <circle cx="500" cy="15" r="0.9" fill="#ddddff" opacity="0.5" />
    <circle cx="540" cy="55" r="1.1" fill="#ffffff" opacity="0.7" />
    <circle cx="580" cy="20" r="1.6" fill="#ffffff" opacity="0.85" />
    <circle cx="650" cy="30" r="0.7" fill="#ccccff" opacity="0.6" />
    <circle cx="700" cy="18" r="1.4" fill="#ffffff" opacity="0.75" />
    <circle cx="720" cy="50" r="1.0" fill="#eeeeff" opacity="0.55" />
    <circle cx="180" cy="70" r="0.8" fill="#ffffff" opacity="0.5" />
    <circle cx="280" cy="60" r="1.2" fill="#ddddff" opacity="0.65" />
    <circle cx="370" cy="55" r="0.7" fill="#ffffff" opacity="0.45" />
    <circle cx="480" cy="65" r="1.0" fill="#ffffff" opacity="0.6" />
    <circle cx="560" cy="70" r="0.9" fill="#eeeeff" opacity="0.5" />
    <circle cx="670" cy="60" r="1.3" fill="#ffffff" opacity="0.7" />
    <circle cx="130" cy="40" r="1.1" fill="#ffffff" opacity="0.6" />
    <circle cx="440" cy="8" r="1.4" fill="#ffffee" opacity="0.8" />
    <circle cx="330" cy="75" r="0.6" fill="#ccccff" opacity="0.4" />
    <circle cx="520" cy="38" r="1.5" fill="#ffffff" opacity="0.75" />
    <circle cx="600" cy="48" r="0.8" fill="#ddddff" opacity="0.55" />
    <circle cx="110" cy="55" r="0.9" fill="#ffffff" opacity="0.5" />
    <circle cx="690" cy="45" r="1.0" fill="#ffffff" opacity="0.65" />

    
    <ellipse cx="400" cy="100" rx="160" ry="65" fill="#fff8e0" opacity="0.08" />
    <ellipse cx="400" cy="95" rx="100" ry="45" fill="#ffffff" opacity="0.06" />

    
    <polygon points="0,0 0,200 90,200 90,30 70,30 70,25 50,25 50,20 30,20 30,0" fill="#06060f" />
    <rect x="90" y="50" width="25" height="150" fill="#08081a" />
    <polygon points="90,50 100,35 115,50" fill="#08081a" />
    
    <rect x="15" y="40" width="3" height="4" fill="#ffe8a0" opacity="0.6" rx="0.3" />
    <rect x="35" y="55" width="3" height="4" fill="#ffcc55" opacity="0.5" rx="0.3" />
    <rect x="55" y="70" width="3" height="4" fill="#ffe8a0" opacity="0.4" rx="0.3" />
    <rect x="20" y="90" width="3" height="4" fill="#ffcc55" opacity="0.55" rx="0.3" />
    <rect x="45" y="100" width="3" height="4" fill="#ffe8a0" opacity="0.45" rx="0.3" />
    <rect x="75" y="60" width="3" height="4" fill="#ffcc55" opacity="0.35" rx="0.3" />
    <rect x="10" y="130" width="3" height="4" fill="#ffe8a0" opacity="0.5" rx="0.3" />
    <rect x="55" y="140" width="3" height="4" fill="#ffcc55" opacity="0.4" rx="0.3" />
    <rect x="95" y="80" width="3" height="4" fill="#ffe8a0" opacity="0.35" rx="0.3" />
    <rect x="100" y="110" width="3" height="4" fill="#ffcc55" opacity="0.45" rx="0.3" />
    <rect x="30" y="160" width="3" height="4" fill="#ffe8a0" opacity="0.3" rx="0.3" />

    
    <polygon points="800,0 800,200 710,200 710,40 725,40 725,35 740,35 740,28 760,28 760,15 780,15 780,0" fill="#06060f" />
    <rect x="685" y="55" width="25" height="145" fill="#08081a" />
    <polygon points="685,55 697,40 710,55" fill="#08081a" />
    
    <rect x="725" y="50" width="3" height="4" fill="#ffe8a0" opacity="0.5" rx="0.3" />
    <rect x="750" y="65" width="3" height="4" fill="#ffcc55" opacity="0.45" rx="0.3" />
    <rect x="770" y="45" width="3" height="4" fill="#ffe8a0" opacity="0.55" rx="0.3" />
    <rect x="735" y="90" width="3" height="4" fill="#ffcc55" opacity="0.4" rx="0.3" />
    <rect x="760" y="110" width="3" height="4" fill="#ffe8a0" opacity="0.35" rx="0.3" />
    <rect x="785" y="80" width="3" height="4" fill="#ffcc55" opacity="0.5" rx="0.3" />
    <rect x="720" y="130" width="3" height="4" fill="#ffe8a0" opacity="0.4" rx="0.3" />
    <rect x="695" y="90" width="3" height="4" fill="#ffcc55" opacity="0.35" rx="0.3" />
    <rect x="700" y="120" width="3" height="4" fill="#ffe8a0" opacity="0.45" rx="0.3" />
    <rect x="750" y="150" width="3" height="4" fill="#ffcc55" opacity="0.3" rx="0.3" />

    
    <rect x="0" y="185" width="800" height="15" fill="#0a0a18" />
    
    <rect x="120" y="175" width="40" height="25" fill="#0c0c1a" />
    <rect x="170" y="180" width="30" height="20" fill="#0a0a16" />
    <rect x="210" y="178" width="25" height="22" fill="#0b0b18" />
    <rect x="250" y="182" width="35" height="18" fill="#0c0c1c" />
    <rect x="300" y="176" width="20" height="24" fill="#0a0a17" />
    <rect x="330" y="180" width="45" height="20" fill="#0b0b19" />
    <rect x="385" y="183" width="30" height="17" fill="#0c0c1b" />
    <rect x="425" y="178" width="25" height="22" fill="#0a0a16" />
    <rect x="460" y="181" width="40" height="19" fill="#0b0b18" />
    <rect x="510" y="177" width="20" height="23" fill="#0c0c1a" />
    <rect x="540" y="180" width="35" height="20" fill="#0a0a17" />
    <rect x="585" y="183" width="25" height="17" fill="#0b0b19" />
    <rect x="620" y="179" width="30" height="21" fill="#0c0c1b" />
    <rect x="660" y="182" width="20" height="18" fill="#0a0a16" />

    
    <rect x="130" y="180" width="2" height="2.5" fill="#ffe8a0" opacity="0.6" rx="0.2" />
    <rect x="145" y="183" width="2" height="2.5" fill="#ffcc55" opacity="0.5" rx="0.2" />
    <rect x="220" y="184" width="2" height="2.5" fill="#ffe8a0" opacity="0.45" rx="0.2" />
    <rect x="260" y="186" width="2" height="2.5" fill="#ffcc55" opacity="0.55" rx="0.2" />
    <rect x="310" y="181" width="2" height="2.5" fill="#ffe8a0" opacity="0.5" rx="0.2" />
    <rect x="345" y="185" width="2" height="2.5" fill="#ffcc55" opacity="0.4" rx="0.2" />
    <rect x="360" y="183" width="2" height="2.5" fill="#ffe8a0" opacity="0.55" rx="0.2" />
    <rect x="435" y="183" width="2" height="2.5" fill="#ffcc55" opacity="0.45" rx="0.2" />
    <rect x="475" y="185" width="2" height="2.5" fill="#ffe8a0" opacity="0.5" rx="0.2" />
    <rect x="520" y="182" width="2" height="2.5" fill="#ffcc55" opacity="0.4" rx="0.2" />
    <rect x="555" y="184" width="2" height="2.5" fill="#ffe8a0" opacity="0.55" rx="0.2" />
    <rect x="630" y="184" width="2" height="2.5" fill="#ffcc55" opacity="0.5" rx="0.2" />
    <rect x="395" y="187" width="2" height="2.5" fill="#ffe8a0" opacity="0.35" rx="0.2" />
    <rect x="490" y="186" width="2" height="2.5" fill="#ffcc55" opacity="0.45" rx="0.2" />
    <rect x="180" y="185" width="2" height="2.5" fill="#ffe8a0" opacity="0.4" rx="0.2" />
    <rect x="670" y="186" width="2" height="2.5" fill="#ffcc55" opacity="0.5" rx="0.2" />
  </g>
</svg>