<svg xmlns="http://www.w3.org/2000/svg" viewBox="0 0 800 200" id="background-root">
  <defs>
    <linearGradient id="skyGrad" x1="0" y1="0" x2="0" y2="1">
      <stop offset="0%" stop-color="#050510" />
      <stop offset="30%" stop-color="#0a0a2e" />
      <stop offset="60%" stop-color="#111155" />
      <stop offset="85%" stop-color="#1a1a4a" />
      <stop offset="100%" stop-color="#1e1e3a" />
    </linearGradient>
    <linearGradient id="milkyGrad" x1="0" y1="0" x2="1" y2="1">
      <stop offset="0%" stop-color="#b8b0d8" stop-opacity="0" />
      <stop offset="20%" stop-color="#b8b0d8" stop-opacity="0.15" />
      <stop offset="40%" stop-color="#a8c0e0" stop-opacity="0.3" />
      <stop offset="60%" stop-color="#c0b8e0" stop-opacity="0.25" />
      <stop offset="80%" stop-color="#a0a8d0" stop-opacity="0.1" />
      <stop offset="100%" stop-color="#b8b0d8" stop-opacity="0" />
    </linearGradient>
    <radialGradient id="cityGlow" cx="0.5" cy="1" r="0.5">
      <stop offset="0%" stop-color="#f5c060" stop-opacity="0.25" />
      <stop offset="100%" stop-color="#f5c060" stop-opacity="0" />
    </radialGradient>
    <filter id="starGlow">
      <feGaussianBlur stdDeviation="1.2" result="blur" />
      <feMerge><feMergeNode in="blur" /><feMergeNode in="SourceGraphic" /></feMerge>
    </filter>
    <filter id="cloudBlur">
      <feGaussianBlur stdDeviation="4" />
    </filter>
    <filter id="milkyBlur">
      <feGaussianBlur stdDeviation="8" />
    </filter>
  </defs>

  <g id="background-main">
    
    <rect x="0" y="0" width="800" height="200" fill="url(#skyGrad)" />

    
    <g id="milkyWayStatic" opacity="0.35">
      <ellipse cx="250" cy="60" rx="350" ry="28" transform="rotate(-25 400 100)" fill="url(#milkyGrad)" filter="url(#milkyBlur)" />
      <ellipse cx="300" cy="55" rx="280" ry="18" transform="rotate(-25 400 100)" fill="#c0b8e8" opacity="0.12" filter="url(#milkyBlur)" />
      <ellipse cx="350" cy="65" rx="200" ry="12" transform="rotate(-25 400 100)" fill="#a8b8e0" opacity="0.1" filter="url(#milkyBlur)" />
    </g>

    
    <ellipse cx="400" cy="210" rx="450" ry="40" fill="url(#cityGlow)" />

    
    <rect x="0" y="190" width="800" height="10" fill="#0e0e1a" />
    
    <rect x="50" y="186" width="4" height="14" fill="#0a0a18" />
    <rect x="80" y="183" width="6" height="17" fill="#0a0a18" />
    <rect x="120" y="185" width="3" height="15" fill="#0a0a18" />
    <rect x="155" y="181" width="5" height="19" fill="#0a0a18" />
    <rect x="190" y="184" width="7" height="16" fill="#0a0a18" />
    <rect x="230" y="182" width="4" height="18" fill="#0a0a18" />
    <rect x="270" y="186" width="6" height="14" fill="#0a0a18" />
    <rect x="310" y="180" width="8" height="20" fill="#0a0a18" />
    <rect x="340" y="183" width="5" height="17" fill="#0a0a18" />
    <rect x="375" y="179" width="10" height="21" fill="#0a0a18" />
    <rect x="410" y="182" width="6" height="18" fill="#0a0a18" />
    <rect x="445" y="184" width="4" height="16" fill="#0a0a18" />
    <rect x="480" y="181" width="7" height="19" fill="#0a0a18" />
    <rect x="520" y="185" width="5" height="15" fill="#0a0a18" />
    <rect x="555" y="180" width="9" height="20" fill="#0a0a18" />
    <rect x="590" y="183" width="4" height="17" fill="#0a0a18" />
    <rect x="625" y="186" width="6" height="14" fill="#0a0a18" />
    <rect x="660" y="182" width="5" height="18" fill="#0a0a18" />
    <rect x="700" y="184" width="7" height="16" fill="#0a0a18" />
    <rect x="740" y="186" width="4" height="14" fill="#0a0a18" />

    
    <circle cx="52" cy="188" r="0.7" fill="#ffe8b0" opacity="0.8" />
    <circle cx="82" cy="185" r="0.5" fill="#ffffff" opacity="0.6" />
    <circle cx="84" cy="190" r="0.6" fill="#f5d080" opacity="0.7" />
    <circle cx="157" cy="184" r="0.8" fill="#ffe0a0" opacity="0.9" />
    <circle cx="192" cy="187" r="0.5" fill="#ffffff" opacity="0.5" />
    <circle cx="232" cy="185" r="0.6" fill="#f5d890" opacity="0.7" />
    <circle cx="312" cy="183" r="0.9" fill="#ffe8b0" opacity="0.8" />
    <circle cx="315" cy="188" r="0.5" fill="#ffffff" opacity="0.6" />
    <circle cx="377" cy="182" r="1.0" fill="#ffe0a0" opacity="0.9" />
    <circle cx="380" cy="186" r="0.6" fill="#ffffff" opacity="0.5" />
    <circle cx="412" cy="185" r="0.5" fill="#f5d080" opacity="0.7" />
    <circle cx="482" cy="184" r="0.7" fill="#ffe8b0" opacity="0.8" />
    <circle cx="557" cy="183" r="0.9" fill="#ffe0a0" opacity="0.9" />
    <circle cx="560" cy="188" r="0.5" fill="#ffffff" opacity="0.6" />
    <circle cx="592" cy="186" r="0.6" fill="#f5d890" opacity="0.7" />
    <circle cx="662" cy="185" r="0.7" fill="#ffe8b0" opacity="0.8" />
    <circle cx="702" cy="187" r="0.5" fill="#ffffff" opacity="0.5" />
    <circle cx="742" cy="189" r="0.6" fill="#f5d080" opacity="0.7" />
    <circle cx="122" cy="188" r="0.5" fill="#ffe0a0" opacity="0.6" />
    <circle cx="272" cy="189" r="0.6" fill="#ffffff" opacity="0.5" />
    <circle cx="342" cy="186" r="0.5" fill="#f5d890" opacity="0.7" />
    <circle cx="447" cy="187" r="0.6" fill="#ffe8b0" opacity="0.6" />
    <circle cx="522" cy="188" r="0.5" fill="#ffffff" opacity="0.5" />
    <circle cx="627" cy="189" r="0.6" fill="#f5d080" opacity="0.7" />

    
    <ellipse cx="180" cy="100" rx="120" ry="8" fill="#c8d8f0" opacity="0.08" filter="url(#cloudBlur)" />
    <ellipse cx="500" cy="80" rx="150" ry="10" fill="#d0e0f8" opacity="0.06" filter="url(#cloudBlur)" />
    <ellipse cx="650" cy="120" rx="100" ry="6" fill="#c0d0e8" opacity="0.07" filter="url(#cloudBlur)" />
    <ellipse cx="350" cy="130" rx="90" ry="5" fill="#b8c8e0" opacity="0.05" filter="url(#cloudBlur)" />

    
    <circle cx="15" cy="12" r="0.5" fill="#ffffff" opacity="0.3" />
    <circle cx="45" cy="35" r="0.4" fill="#c8d0ff" opacity="0.25" />
    <circle cx="78" cy="8" r="0.6" fill="#ffffff" opacity="0.35" />
    <circle cx="95" cy="55" r="0.3" fill="#e0e0ff" opacity="0.2" />
    <circle cx="130" cy="22" r="0.5" fill="#ffffff" opacity="0.3" />
    <circle cx="160" cy="45" r="0.4" fill="#d0d8ff" opacity="0.25" />
    <circle cx="185" cy="15" r="0.7" fill="#ffffff" opacity="0.4" />
    <circle cx="210" cy="68" r="0.3" fill="#c8d0ff" opacity="0.2" />
    <circle cx="240" cy="30" r="0.5" fill="#ffffff" opacity="0.35" />
    <circle cx="265" cy="52" r="0.4" fill="#e0e0ff" opacity="0.25" />
    <circle cx="290" cy="10" r="0.6" fill="#ffffff" opacity="0.3" />
    <circle cx="320" cy="40" r="0.3" fill="#d0d8ff" opacity="0.2" />
    <circle cx="355" cy="18" r="0.5" fill="#ffffff" opacity="0.35" />
    <circle cx="385" cy="62" r="0.4" fill="#c8d0ff" opacity="0.25" />
    <circle cx="415" cy="25" r="0.6" fill="#ffffff" opacity="0.3" />
    <circle cx="440" cy="48" r="0.3" fill="#e0e0ff" opacity="0.2" />
    <circle cx="470" cy="8" r="0.5" fill="#ffffff" opacity="0.4" />
    <circle cx="500" cy="35" r="0.4" fill="#d0d8ff" opacity="0.25" />
    <circle cx="530" cy="58" r="0.6" fill="#ffffff" opacity="0.3" />
    <circle cx="560" cy="15" r="0.3" fill="#c8d0ff" opacity="0.2" />
    <circle cx="590" cy="42" r="0.5" fill="#ffffff" opacity="0.35" />
    <circle cx="620" cy="22" r="0.4" fill="#e0e0ff" opacity="0.25" />
    <circle cx="650" cy="50" r="0.6" fill="#ffffff" opacity="0.3" />
    <circle cx="680" cy="12" r="0.3" fill="#d0d8ff" opacity="0.2" />
    <circle cx="710" cy="38" r="0.5" fill="#ffffff" opacity="0.35" />
    <circle cx="740" cy="65" r="0.4" fill="#c8d0ff" opacity="0.25" />
    <circle cx="770" cy="20" r="0.6" fill="#ffffff" opacity="0.3" />
    <circle cx="790" cy="45" r="0.3" fill="#e0e0ff" opacity="0.2" />
    <circle cx="35" cy="75" r="0.4" fill="#ffffff" opacity="0.25" />
    <circle cx="110" cy="85" r="0.5" fill="#d0d8ff" opacity="0.3" />
    <circle cx="200" cy="95" r="0.3" fill="#ffffff" opacity="0.2" />
    <circle cx="305" cy="78" r="0.4" fill="#c8d0ff" opacity="0.25" />
    <circle cx="430" cy="88" r="0.5" fill="#ffffff" opacity="0.3" />
    <circle cx="545" cy="75" r="0.3" fill="#e0e0ff" opacity="0.2" />
    <circle cx="670" cy="82" r="0.4" fill="#d0d8ff" opacity="0.25" />
    <circle cx="755" cy="90" r="0.5" fill="#ffffff" opacity="0.3" />
    <circle cx="60" cy="110" r="0.3" fill="#ffffff" opacity="0.15" />
    <circle cx="170" cy="120" r="0.4" fill="#c8d0ff" opacity="0.2" />
    <circle cx="350" cy="105" r="0.3" fill="#ffffff" opacity="0.15" />
    <circle cx="510" cy="115" r="0.4" fill="#d0d8ff" opacity="0.2" />
    <circle cx="690" cy="108" r="0.3" fill="#ffffff" opacity="0.15" />
    <circle cx="25" cy="140" r="0.3" fill="#c8d0ff" opacity="0.12" />
    <circle cx="250" cy="135" r="0.4" fill="#ffffff" opacity="0.15" />
    <circle cx="460" cy="140" r="0.3" fill="#e0e0ff" opacity="0.12" />
    <circle cx="620" cy="138" r="0.4" fill="#ffffff" opacity="0.15" />
    <circle cx="780" cy="132" r="0.3" fill="#d0d8ff" opacity="0.12" />

    
    <g id="background-animated-part">
      
      <circle cx="320" cy="28" r="1.8" fill="#ffffff" filter="url(#starGlow)" opacity="0.75">
        <animate attributeName="opacity" values="0.5;1.0;0.5" dur="2.5s" repeatCount="indefinite" />
      </circle>

      
      <circle cx="580" cy="42" r="1.5" fill="#e0e8ff" filter="url(#starGlow)" opacity="0.6">
        <animate attributeName="opacity" values="0.3;0.9;0.3" dur="4s" begin="1.2s" repeatCount="indefinite" />
      </circle>

      
      <ellipse cx="250" cy="60" rx="350" ry="28" transform="rotate(-25 400 100)" fill="#c8c0e8" filter="url(#milkyBlur)" opacity="0.35">
        <animate attributeName="opacity" values="0.25;0.45;0.25" dur="7s" repeatCount="indefinite" />
      </ellipse>

      
      <rect x="30" y="190" width="740" height="10" fill="#f5e0a0" opacity="0.15">
        <animate attributeName="fill" values="#f5e0a0;#ffe8b0;#f5e0a0" dur="5s" repeatCount="indefinite" />
      </rect>
    </g>
  </g>
</svg>