<svg xmlns="http://www.w3.org/2000/svg" id="background-root" viewBox="0 0 800 200">
  <defs>
    <linearGradient id="skyGrad" x1="0" y1="0" x2="0" y2="1">
      <stop offset="0%" stop-color="#050510" />
      <stop offset="40%" stop-color="#0a0a2e" />
      <stop offset="100%" stop-color="#101040" />
    </linearGradient>
    <radialGradient id="lampGlow" cx="0.5" cy="0.5" r="0.5">
      <stop offset="0%" stop-color="#ffe88a" stop-opacity="0.9" />
      <stop offset="60%" stop-color="#ffcc44" stop-opacity="0.3" />
      <stop offset="100%" stop-color="#ffcc44" stop-opacity="0" />
    </radialGradient>
    <linearGradient id="pavementGrad" x1="0" y1="0" x2="0" y2="1">
      <stop offset="0%" stop-color="#1a1a2a" />
      <stop offset="100%" stop-color="#0d0d18" />
    </linearGradient>
  </defs>
  <g id="background-main">
    
    <rect x="0" y="0" width="800" height="140" fill="url(#skyGrad)" />

    
    <circle cx="400" cy="12" r="1" fill="#ffffff" />
    <circle cx="350" cy="25" r="0.8" fill="#ccddff" />
    <circle cx="450" cy="18" r="0.7" fill="#ffffff" />
    <circle cx="380" cy="8" r="0.6" fill="#aad4ff" />
    <circle cx="420" cy="30" r="0.9" fill="#ffffff" />
    <circle cx="370" cy="40" r="0.5" fill="#ccddff" />
    <circle cx="430" cy="35" r="0.7" fill="#ffffff" />
    <circle cx="395" cy="45" r="0.6" fill="#aad4ff" />
    <circle cx="360" cy="15" r="0.8" fill="#ffffff" />
    <circle cx="440" cy="22" r="0.5" fill="#ccddff" />
    <circle cx="410" cy="50" r="0.7" fill="#ffffff" />
    <circle cx="385" cy="55" r="0.4" fill="#aad4ff" />

    
    <rect x="0" y="40" width="120" height="100" fill="#0c0c1e" />
    <rect x="100" y="50" width="90" height="90" fill="#0e0e22" />
    <rect x="170" y="35" width="80" height="105" fill="#0b0b1c" />
    <rect x="230" y="55" width="70" height="85" fill="#0d0d20" />
    <rect x="280" y="45" width="60" height="95" fill="#0c0c1e" />
    <rect x="460" y="50" width="65" height="90" fill="#0c0c1e" />
    <rect x="510" y="40" width="80" height="100" fill="#0b0b1c" />
    <rect x="575" y="55" width="70" height="85" fill="#0d0d20" />
    <rect x="630" y="35" width="85" height="105" fill="#0e0e22" />
    <rect x="700" y="45" width="100" height="95" fill="#0c0c1e" />

    
    <rect x="0" y="30" width="100" height="120" fill="#12122a" />
    
    <rect x="10" y="40" width="8" height="6" fill="#e8c44a" opacity="0.8" />
    <rect x="25" y="40" width="8" height="6" fill="#e8c44a" opacity="0.6" />
    <rect x="40" y="40" width="8" height="6" fill="#f0d060" opacity="0.9" />
    <rect x="55" y="40" width="8" height="6" fill="#e8c44a" opacity="0.5" />
    <rect x="70" y="40" width="8" height="6" fill="#f0d060" opacity="0.7" />
    <rect x="85" y="40" width="8" height="6" fill="#e8c44a" opacity="0.4" />
    <rect x="10" y="52" width="8" height="6" fill="#f0d060" opacity="0.7" />
    <rect x="25" y="52" width="8" height="6" fill="#e8c44a" opacity="0.9" />
    <rect x="40" y="52" width="8" height="6" fill="#e8c44a" opacity="0.5" />
    <rect x="55" y="52" width="8" height="6" fill="#f0d060" opacity="0.8" />
    <rect x="70" y="52" width="8" height="6" fill="#e8c44a" opacity="0.6" />
    <rect x="85" y="52" width="8" height="6" fill="#f0d060" opacity="0.9" />
    <rect x="10" y="64" width="8" height="6" fill="#e8c44a" opacity="0.6" />
    <rect x="25" y="64" width="8" height="6" fill="#f0d060" opacity="0.8" />
    <rect x="40" y="64" width="8" height="6" fill="#e8c44a" opacity="0.9" />
    <rect x="55" y="64" width="8" height="6" fill="#e8c44a" opacity="0.4" />
    <rect x="70" y="64" width="8" height="6" fill="#f0d060" opacity="0.7" />
    <rect x="85" y="64" width="8" height="6" fill="#e8c44a" opacity="0.8" />
    <rect x="10" y="76" width="8" height="6" fill="#f0d060" opacity="0.5" />
    <rect x="25" y="76" width="8" height="6" fill="#e8c44a" opacity="0.7" />
    <rect x="40" y="76" width="8" height="6" fill="#f0d060" opacity="0.6" />
    <rect x="55" y="76" width="8" height="6" fill="#f0d060" opacity="0.9" />
    <rect x="70" y="76" width="8" height="6" fill="#e8c44a" opacity="0.5" />
    <rect x="85" y="76" width="8" height="6" fill="#f0d060" opacity="0.8" />
    <rect x="10" y="88" width="8" height="6" fill="#e8c44a" opacity="0.8" />
    <rect x="25" y="88" width="8" height="6" fill="#f0d060" opacity="0.5" />
    <rect x="40" y="88" width="8" height="6" fill="#e8c44a" opacity="0.7" />
    <rect x="55" y="88" width="8" height="6" fill="#e8c44a" opacity="0.6" />
    <rect x="70" y="88" width="8" height="6" fill="#f0d060" opacity="0.9" />
    <rect x="85" y="88" width="8" height="6" fill="#e8c44a" opacity="0.4" />

    
    <rect x="105" y="50" width="80" height="100" fill="#151530" />
    <rect x="115" y="58" width="7" height="5" fill="#f5c842" opacity="0.7" />
    <rect x="128" y="58" width="7" height="5" fill="#f5c842" opacity="0.9" />
    <rect x="141" y="58" width="7" height="5" fill="#f5c842" opacity="0.5" />
    <rect x="154" y="58" width="7" height="5" fill="#f5c842" opacity="0.8" />
    <rect x="167" y="58" width="7" height="5" fill="#f5c842" opacity="0.6" />
    <rect x="115" y="69" width="7" height="5" fill="#f5c842" opacity="0.8" />
    <rect x="128" y="69" width="7" height="5" fill="#f5c842" opacity="0.4" />
    <rect x="141" y="69" width="7" height="5" fill="#f5c842" opacity="0.9" />
    <rect x="154" y="69" width="7" height="5" fill="#f5c842" opacity="0.6" />
    <rect x="167" y="69" width="7" height="5" fill="#f5c842" opacity="0.7" />
    <rect x="115" y="80" width="7" height="5" fill="#f5c842" opacity="0.5" />
    <rect x="128" y="80" width="7" height="5" fill="#f5c842" opacity="0.7" />
    <rect x="141" y="80" width="7" height="5" fill="#f5c842" opacity="0.8" />
    <rect x="154" y="80" width="7" height="5" fill="#f5c842" opacity="0.9" />
    <rect x="167" y="80" width="7" height="5" fill="#f5c842" opacity="0.4" />
    <rect x="115" y="91" width="7" height="5" fill="#f5c842" opacity="0.6" />
    <rect x="128" y="91" width="7" height="5" fill="#f5c842" opacity="0.8" />
    <rect x="141" y="91" width="7" height="5" fill="#f5c842" opacity="0.5" />
    <rect x="154" y="91" width="7" height="5" fill="#f5c842" opacity="0.7" />
    <rect x="167" y="91" width="7" height="5" fill="#f5c842" opacity="0.9" />

    
    <rect x="190" y="60" width="70" height="90" fill="#131328" />
    <rect x="200" y="68" width="6" height="5" fill="#e8c44a" opacity="0.8" />
    <rect x="212" y="68" width="6" height="5" fill="#e8c44a" opacity="0.5" />
    <rect x="224" y="68" width="6" height="5" fill="#e8c44a" opacity="0.9" />
    <rect x="236" y="68" width="6" height="5" fill="#e8c44a" opacity="0.6" />
    <rect x="248" y="68" width="6" height="5" fill="#e8c44a" opacity="0.7" />
    <rect x="200" y="79" width="6" height="5" fill="#e8c44a" opacity="0.6" />
    <rect x="212" y="79" width="6" height="5" fill="#e8c44a" opacity="0.8" />
    <rect x="224" y="79" width="6" height="5" fill="#e8c44a" opacity="0.4" />
    <rect x="236" y="79" width="6" height="5" fill="#e8c44a" opacity="0.9" />
    <rect x="248" y="79" width="6" height="5" fill="#e8c44a" opacity="0.5" />
    <rect x="200" y="90" width="6" height="5" fill="#e8c44a" opacity="0.7" />
    <rect x="212" y="90" width="6" height="5" fill="#e8c44a" opacity="0.9" />
    <rect x="224" y="90" width="6" height="5" fill="#e8c44a" opacity="0.6" />
    <rect x="236" y="90" width="6" height="5" fill="#e8c44a" opacity="0.5" />
    <rect x="248" y="90" width="6" height="5" fill="#e8c44a" opacity="0.8" />

    
    <rect x="265" y="70" width="60" height="80" fill="#10102a" />
    <rect x="273" y="78" width="5" height="4" fill="#f0d060" opacity="0.7" />
    <rect x="284" y="78" width="5" height="4" fill="#f0d060" opacity="0.9" />
    <rect x="295" y="78" width="5" height="4" fill="#f0d060" opacity="0.5" />
    <rect x="306" y="78" width="5" height="4" fill="#f0d060" opacity="0.8" />
    <rect x="273" y="88" width="5" height="4" fill="#f0d060" opacity="0.6" />
    <rect x="284" y="88" width="5" height="4" fill="#f0d060" opacity="0.8" />
    <rect x="295" y="88" width="5" height="4" fill="#f0d060" opacity="0.9" />
    <rect x="306" y="88" width="5" height="4" fill="#f0d060" opacity="0.4" />
    <rect x="273" y="98" width="5" height="4" fill="#f0d060" opacity="0.9" />
    <rect x="284" y="98" width="5" height="4" fill="#f0d060" opacity="0.5" />
    <rect x="295" y="98" width="5" height="4" fill="#f0d060" opacity="0.7" />
    <rect x="306" y="98" width="5" height="4" fill="#f0d060" opacity="0.6" />

    
    <rect x="475" y="65" width="65" height="85" fill="#10102a" />
    <rect x="483" y="73" width="5" height="4" fill="#f0d060" opacity="0.8" />
    <rect x="494" y="73" width="5" height="4" fill="#f0d060" opacity="0.5" />
    <rect x="505" y="73" width="5" height="4" fill="#f0d060" opacity="0.9" />
    <rect x="516" y="73" width="5" height="4" fill="#f0d060" opacity="0.6" />
    <rect x="527" y="73" width="5" height="4" fill="#f0d060" opacity="0.7" />
    <rect x="483" y="83" width="5" height="4" fill="#f0d060" opacity="0.6" />
    <rect x="494" y="83" width="5" height="4" fill="#f0d060" opacity="0.9" />
    <rect x="505" y="83" width="5" height="4" fill="#f0d060" opacity="0.4" />
    <rect x="516" y="83" width="5" height="4" fill="#f0d060" opacity="0.8" />
    <rect x="527" y="83" width="5" height="4" fill="#f0d060" opacity="0.5" />
    <rect x="483" y="93" width="5" height="4" fill="#f0d060" opacity="0.7" />
    <rect x="494" y="93" width="5" height="4" fill="#f0d060" opacity="0.8" />
    <rect x="505" y="93" width="5" height="4" fill="#f0d060" opacity="0.6" />
    <rect x="516" y="93" width="5" height="4" fill="#f0d060" opacity="0.9" />
    <rect x="527" y="93" width="5" height="4" fill="#f0d060" opacity="0.5" />

    
    <rect x="545" y="50" width="80" height="100" fill="#131328" />
    <rect x="555" y="58" width="7" height="5" fill="#f5c842" opacity="0.7" />
    <rect x="568" y="58" width="7" height="5" fill="#f5c842" opacity="0.9" />
    <rect x="581" y="58" width="7" height="5" fill="#f5c842" opacity="0.5" />
    <rect x="594" y="58" width="7" height="5" fill="#f5c842" opacity="0.8" />
    <rect x="607" y="58" width="7" height="5" fill="#f5c842" opacity="0.6" />
    <rect x="555" y="69" width="7" height="5" fill="#f5c842" opacity="0.9" />
    <rect x="568" y="69" width="7" height="5" fill="#f5c842" opacity="0.4" />
    <rect x="581" y="69" width="7" height="5" fill="#f5c842" opacity="0.7" />
    <rect x="594" y="69" width="7" height="5" fill="#f5c842" opacity="0.6" />
    <rect x="607" y="69" width="7" height="5" fill="#f5c842" opacity="0.8" />
    <rect x="555" y="80" width="7" height="5" fill="#f5c842" opacity="0.5" />
    <rect x="568" y="80" width="7" height="5" fill="#f5c842" opacity="0.8" />
    <rect x="581" y="80" width="7" height="5" fill="#f5c842" opacity="0.9" />
    <rect x="594" y="80" width="7" height="5" fill="#f5c842" opacity="0.7" />
    <rect x="607" y="80" width="7" height="5" fill="#f5c842" opacity="0.4" />
    <rect x="555" y="91" width="7" height="5" fill="#f5c842" opacity="0.6" />
    <rect x="568" y="91" width="7" height="5" fill="#f5c842" opacity="0.7" />
    <rect x="581" y="91" width="7" height="5" fill="#f5c842" opacity="0.8" />
    <rect x="594" y="91" width="7" height="5" fill="#f5c842" opacity="0.9" />
    <rect x="607" y="91" width="7" height="5" fill="#f5c842" opacity="0.5" />

    
    <rect x="630" y="40" width="85" height="110" fill="#151530" />
    <rect x="640" y="48" width="7" height="5" fill="#e8c44a" opacity="0.8" />
    <rect x="653" y="48" width="7" height="5" fill="#e8c44a" opacity="0.5" />
    <rect x="666" y="48" width="7" height="5" fill="#e8c44a" opacity="0.9" />
    <rect x="679" y="48" width="7" height="5" fill="#e8c44a" opacity="0.6" />
    <rect x="692" y="48" width="7" height="5" fill="#e8c44a" opacity="0.7" />
    <rect x="640" y="59" width="7" height="5" fill="#e8c44a" opacity="0.6" />
    <rect x="653" y="59" width="7" height="5" fill="#e8c44a" opacity="0.8" />
    <rect x="666" y="59" width="7" height="5" fill="#e8c44a" opacity="0.4" />
    <rect x="679" y="59" width="7" height="5" fill="#e8c44a" opacity="0.9" />
    <rect x="692" y="59" width="7" height="5" fill="#e8c44a" opacity="0.5" />
    <rect x="640" y="70" width="7" height="5" fill="#e8c44a" opacity="0.9" />
    <rect x="653" y="70" width="7" height="5" fill="#e8c44a" opacity="0.7" />
    <rect x="666" y="70" width="7" height="5" fill="#e8c44a" opacity="0.5" />
    <rect x="679" y="70" width="7" height="5" fill="#e8c44a" opacity="0.8" />
    <rect x="692" y="70" width="7" height="5" fill="#e8c44a" opacity="0.6" />
    <rect x="640" y="81" width="7" height="5" fill="#e8c44a" opacity="0.5" />
    <rect x="653" y="81" width="7" height="5" fill="#e8c44a" opacity="0.9" />
    <rect x="666" y="81" width="7" height="5" fill="#e8c44a" opacity="0.7" />
    <rect x="679" y="81" width="7" height="5" fill="#e8c44a" opacity="0.6" />
    <rect x="692" y="81" width="7" height="5" fill="#e8c44a" opacity="0.8" />
    <rect x="640" y="92" width="7" height="5" fill="#e8c44a" opacity="0.7" />
    <rect x="653" y="92" width="7" height="5" fill="#e8c44a" opacity="0.6" />
    <rect x="666" y="92" width="7" height="5" fill="#e8c44a" opacity="0.8" />
    <rect x="679" y="92" width="7" height="5" fill="#e8c44a" opacity="0.5" />
    <rect x="692" y="92" width="7" height="5" fill="#e8c44a" opacity="0.9" />

    
    <rect x="720" y="30" width="80" height="120" fill="#12122a" />
    <rect x="730" y="40" width="8" height="6" fill="#f0d060" opacity="0.7" />
    <rect x="745" y="40" width="8" height="6" fill="#f0d060" opacity="0.9" />
    <rect x="760" y="40" width="8" height="6" fill="#f0d060" opacity="0.5" />
    <rect x="775" y="40" width="8" height="6" fill="#f0d060" opacity="0.8" />
    <rect x="730" y="52" width="8" height="6" fill="#f0d060" opacity="0.6" />
    <rect x="745" y="52" width="8" height="6" fill="#f0d060" opacity="0.8" />
    <rect x="760" y="52" width="8" height="6" fill="#f0d060" opacity="0.9" />
    <rect x="775" y="52" width="8" height="6" fill="#f0d060" opacity="0.4" />
    <rect x="730" y="64" width="8" height="6" fill="#f0d060" opacity="0.9" />
    <rect x="745" y="64" width="8" height="6" fill="#f0d060" opacity="0.5" />
    <rect x="760" y="64" width="8" height="6" fill="#f0d060" opacity="0.7" />
    <rect x="775" y="64" width="8" height="6" fill="#f0d060" opacity="0.6" />
    <rect x="730" y="76" width="8" height="6" fill="#f0d060" opacity="0.5" />
    <rect x="745" y="76" width="8" height="6" fill="#f0d060" opacity="0.7" />
    <rect x="760" y="76" width="8" height="6" fill="#f0d060" opacity="0.8" />
    <rect x="775" y="76" width="8" height="6" fill="#f0d060" opacity="0.9" />
    <rect x="730" y="88" width="8" height="6" fill="#f0d060" opacity="0.8" />
    <rect x="745" y="88" width="8" height="6" fill="#f0d060" opacity="0.6" />
    <rect x="760" y="88" width="8" height="6" fill="#f0d060" opacity="0.5" />
    <rect x="775" y="88" width="8" height="6" fill="#f0d060" opacity="0.7" />

    
    <rect x="0" y="150" width="800" height="50" fill="url(#pavementGrad)" />

    
    <rect x="20" y="155" width="4" height="35" rx="2" fill="#c8a030" opacity="0.25" />
    <rect x="50" y="158" width="3" height="30" rx="1" fill="#d4b040" opacity="0.2" />
    <rect x="80" y="153" width="5" height="38" rx="2" fill="#c8a030" opacity="0.18" />
    <rect x="120" y="156" width="3" height="32" rx="1" fill="#d4b040" opacity="0.22" />
    <rect x="155" y="154" width="4" height="36" rx="2" fill="#c8a030" opacity="0.2" />
    <rect x="200" y="157" width="3" height="30" rx="1" fill="#d4b040" opacity="0.18" />
    <rect x="240" y="155" width="4" height="34" rx="2" fill="#c8a030" opacity="0.25" />
    <rect x="280" y="153" width="3" height="37" rx="1" fill="#d4b040" opacity="0.2" />
    <rect x="310" y="156" width="4" height="32" rx="2" fill="#c8a030" opacity="0.22" />
    <rect x="490" y="155" width="4" height="35" rx="2" fill="#c8a030" opacity="0.25" />
    <rect x="530" y="158" width="3" height="30" rx="1" fill="#d4b040" opacity="0.2" />
    <rect x="570" y="153" width="5" height="38" rx="2" fill="#c8a030" opacity="0.18" />
    <rect x="610" y="156" width="3" height="32" rx="1" fill="#d4b040" opacity="0.22" />
    <rect x="650" y="154" width="4" height="36" rx="2" fill="#c8a030" opacity="0.2" />
    <rect x="690" y="157" width="3" height="30" rx="1" fill="#d4b040" opacity="0.18" />
    <rect x="730" y="155" width="4" height="34" rx="2" fill="#c8a030" opacity="0.25" />
    <rect x="770" y="153" width="3" height="37" rx="1" fill="#d4b040" opacity="0.2" />

    
    <rect x="348" y="100" width="3" height="50" fill="#333340" />
    
    <rect x="340" y="98" width="20" height="3" rx="1" fill="#444455" />
    
    <ellipse cx="350" cy="96" rx="5" ry="3" fill="#ffe88a" />

    
    <ellipse cx="350" cy="155" rx="40" ry="8" fill="#ffe88a" opacity="0.15" />

    
    <rect x="346" y="155" width="6" height="40" rx="3" fill="#ffe88a" opacity="0.2" />

    
    <g id="background-animated-part">
      
      <rect x="40" y="52" width="8" height="6" fill="#f5c842" opacity="0.4">
        <animate attributeName="opacity" values="0.4;1.0;0.4" dur="2.5s" repeatCount="indefinite" />
      </rect>

      
      <rect x="666" y="59" width="7" height="5" fill="#f5c842" opacity="0.4">
        <animate attributeName="opacity" values="0.4;1.0;0.4" dur="3.8s" repeatCount="indefinite" />
      </rect>

      
      <circle cx="400" cy="20" r="1.5" fill="#ffffff">
        <animate attributeName="fill" values="#ffffff;#aad4ff;#ffffff" dur="4s" repeatCount="indefinite" />
      </circle>

      
      <circle cx="350" cy="96" r="25" fill="url(#lampGlow)" opacity="0.3">
        <animate attributeName="opacity" values="0.3;0.7;0.3" dur="3s" repeatCount="indefinite" />
      </circle>

      
      <rect x="330" y="158" width="40" height="35" rx="4" fill="#f5c842" opacity="0.25">
        <animate attributeName="fill" values="#f5c842;#e8a020;#f5c842" dur="5s" repeatCount="indefinite" />
      </rect>
    </g>
  </g>
</svg>