<svg xmlns="http://www.w3.org/2000/svg" id="background-root" viewBox="0 0 800 200">
  <defs>
    <linearGradient id="skyGrad" x1="0" y1="0" x2="0" y2="1">
      <stop offset="0%" stop-color="#0a0a2e" />
      <stop offset="35%" stop-color="#0f1040" />
      <stop offset="60%" stop-color="#151555" />
      <stop offset="85%" stop-color="#1a1a5a" />
      <stop offset="100%" stop-color="#1e1e60" />
    </linearGradient>
    <radialGradient id="moonGlow" cx="0.5" cy="0.5" r="0.5">
      <stop offset="0%" stop-color="#ffffff" stop-opacity="0.9" />
      <stop offset="40%" stop-color="#e8e8ff" stop-opacity="0.5" />
      <stop offset="100%" stop-color="#e8e8ff" stop-opacity="0" />
    </radialGradient>
    <linearGradient id="roofGrad" x1="0" y1="0" x2="0" y2="1">
      <stop offset="0%" stop-color="#2a2a3a" />
      <stop offset="100%" stop-color="#1a1a28" />
    </linearGradient>
  </defs>

  <g id="background-main">
    
    <rect x="0" y="0" width="800" height="200" fill="url(#skyGrad)" />

    
    <rect x="0" y="95" width="800" height="30" fill="#1a1a3a" opacity="0.7" />

    
    <ellipse cx="400" cy="110" rx="500" ry="25" fill="#2a1a4a" opacity="0.3" />
    <ellipse cx="300" cy="108" rx="300" ry="15" fill="#3a2255" opacity="0.2" />

    
    <circle cx="50" cy="15" r="1" fill="#ffffff" opacity="0.7" />
    <circle cx="120" cy="30" r="0.8" fill="#ffe8b0" opacity="0.6" />
    <circle cx="180" cy="8" r="1.2" fill="#ffffff" opacity="0.8" />
    <circle cx="230" cy="45" r="0.7" fill="#ffe8b0" opacity="0.5" />
    <circle cx="290" cy="20" r="1" fill="#ffffff" opacity="0.7" />
    <circle cx="340" cy="55" r="0.6" fill="#ffffff" opacity="0.4" />
    <circle cx="370" cy="12" r="1.1" fill="#ffe8b0" opacity="0.6" />
    <circle cx="420" cy="35" r="0.8" fill="#ffffff" opacity="0.7" />
    <circle cx="460" cy="60" r="0.7" fill="#ffe8b0" opacity="0.5" />
    <circle cx="500" cy="18" r="1" fill="#ffffff" opacity="0.8" />
    <circle cx="530" cy="42" r="0.6" fill="#ffffff" opacity="0.4" />
    <circle cx="580" cy="25" r="0.9" fill="#ffe8b0" opacity="0.6" />
    <circle cx="620" cy="50" r="0.7" fill="#ffffff" opacity="0.5" />
    <circle cx="680" cy="15" r="1" fill="#ffffff" opacity="0.7" />
    <circle cx="720" cy="58" r="0.8" fill="#ffe8b0" opacity="0.6" />
    <circle cx="760" cy="30" r="0.6" fill="#ffffff" opacity="0.5" />
    <circle cx="90" cy="55" r="0.9" fill="#ffffff" opacity="0.6" />
    <circle cx="155" cy="65" r="0.7" fill="#ffe8b0" opacity="0.5" />
    <circle cx="210" cy="72" r="0.8" fill="#ffffff" opacity="0.4" />
    <circle cx="310" cy="70" r="0.6" fill="#ffffff" opacity="0.5" />
    <circle cx="440" cy="75" r="0.7" fill="#ffe8b0" opacity="0.4" />
    <circle cx="550" cy="68" r="0.9" fill="#ffffff" opacity="0.6" />
    <circle cx="650" cy="72" r="0.6" fill="#ffe8b0" opacity="0.5" />
    <circle cx="75" cy="38" r="0.5" fill="#ffffff" opacity="0.4" />
    <circle cx="480" cy="8" r="0.8" fill="#ffffff" opacity="0.6" />
    <circle cx="780" cy="10" r="0.7" fill="#ffe8b0" opacity="0.5" />
    <circle cx="25" cy="48" r="0.6" fill="#ffffff" opacity="0.5" />
    <circle cx="400" cy="5" r="0.9" fill="#ffffff" opacity="0.7" />
    <circle cx="260" cy="58" r="0.5" fill="#ffe8b0" opacity="0.4" />
    <circle cx="700" cy="40" r="0.8" fill="#ffffff" opacity="0.6" />

    
    <circle cx="680" cy="40" r="18" fill="#e8e4f0" opacity="0.95" />
    <circle cx="674" cy="36" r="4" fill="#d0cce0" opacity="0.3" />
    <circle cx="686" cy="44" r="3" fill="#d0cce0" opacity="0.25" />
    <circle cx="678" cy="48" r="2.5" fill="#d0cce0" opacity="0.2" />

    
    <ellipse cx="680" cy="40" rx="60" ry="55" fill="url(#moonGlow)" opacity="0.5" />

    
    <rect x="0" y="90" width="25" height="25" fill="#14142a" />
    <rect x="22" y="85" width="18" height="30" fill="#161635" />
    <rect x="38" y="92" width="22" height="23" fill="#131330" />
    <rect x="58" y="88" width="15" height="27" fill="#151535" />
    <rect x="70" y="93" width="28" height="22" fill="#141432" />
    <rect x="95" y="86" width="20" height="29" fill="#161638" />
    <rect x="112" y="90" width="25" height="25" fill="#131330" />
    <rect x="135" y="84" width="18" height="31" fill="#151535" />
    <rect x="150" y="91" width="22" height="24" fill="#141432" />
    <rect x="170" y="87" width="30" height="28" fill="#161638" />
    <rect x="198" y="92" width="20" height="23" fill="#131330" />
    <rect x="215" y="85" width="25" height="30" fill="#151535" />
    <rect x="238" y="89" width="18" height="26" fill="#141432" />
    <rect x="254" y="93" width="22" height="22" fill="#161638" />
    <rect x="274" y="86" width="28" height="29" fill="#131330" />
    <rect x="300" y="91" width="20" height="24" fill="#151535" />
    <rect x="318" y="84" width="25" height="31" fill="#141432" />
    <rect x="340" y="90" width="18" height="25" fill="#161638" />
    <rect x="356" y="87" width="30" height="28" fill="#131330" />
    <rect x="384" y="93" width="22" height="22" fill="#151535" />
    <rect x="404" y="85" width="20" height="30" fill="#141432" />
    <rect x="422" y="90" width="25" height="25" fill="#161638" />
    <rect x="445" y="86" width="18" height="29" fill="#131330" />
    <rect x="460" y="92" width="28" height="23" fill="#151535" />
    <rect x="486" y="84" width="22" height="31" fill="#141432" />
    <rect x="506" y="89" width="20" height="26" fill="#161638" />
    <rect x="524" y="93" width="25" height="22" fill="#131330" />
    <rect x="547" y="86" width="18" height="29" fill="#151535" />
    <rect x="563" y="91" width="30" height="24" fill="#141432" />
    <rect x="591" y="85" width="22" height="30" fill="#161638" />
    <rect x="611" y="90" width="20" height="25" fill="#131330" />
    <rect x="629" y="87" width="25" height="28" fill="#151535" />
    <rect x="652" y="93" width="18" height="22" fill="#141432" />
    <rect x="668" y="84" width="28" height="31" fill="#161638" />
    <rect x="694" y="90" width="22" height="25" fill="#131330" />
    <rect x="714" y="86" width="20" height="29" fill="#151535" />
    <rect x="732" y="92" width="25" height="23" fill="#141432" />
    <rect x="755" y="88" width="22" height="27" fill="#161638" />
    <rect x="775" y="91" width="25" height="24" fill="#131330" />

    
    <rect x="5" y="95" width="30" height="30" fill="#1a1a38" />
    <rect x="32" y="88" width="22" height="37" fill="#1c1c3e" />
    <rect x="52" y="98" width="35" height="27" fill="#191938" />
    <rect x="85" y="82" width="20" height="43" fill="#1e1e42" />
    <rect x="102" y="92" width="28" height="33" fill="#1b1b3c" />
    <rect x="128" y="78" width="18" height="47" fill="#1d1d40" />
    <rect x="144" y="95" width="32" height="30" fill="#1a1a38" />
    <rect x="174" y="85" width="24" height="40" fill="#1c1c3e" />
    <rect x="196" y="96" width="30" height="29" fill="#191938" />
    <rect x="224" y="80" width="20" height="45" fill="#1e1e42" />
    <rect x="242" y="90" width="26" height="35" fill="#1b1b3c" />
    <rect x="266" y="76" width="22" height="49" fill="#1d1d40" />
    <rect x="286" y="94" width="34" height="31" fill="#1a1a38" />
    <rect x="318" y="82" width="20" height="43" fill="#1c1c3e" />
    <rect x="336" y="97" width="28" height="28" fill="#191938" />
    <rect x="362" y="84" width="24" height="41" fill="#1e1e42" />
    <rect x="384" y="92" width="30" height="33" fill="#1b1b3c" />
    <rect x="412" y="78" width="18" height="47" fill="#1d1d40" />
    <rect x="428" y="95" width="32" height="30" fill="#1a1a38" />
    <rect x="458" y="86" width="22" height="39" fill="#1c1c3e" />
    <rect x="478" y="97" width="28" height="28" fill="#191938" />
    <rect x="504" y="80" width="24" height="45" fill="#1e1e42" />
    <rect x="526" y="91" width="30" height="34" fill="#1b1b3c" />
    <rect x="554" y="75" width="20" height="50" fill="#1d1d40" />
    <rect x="572" y="94" width="34" height="31" fill="#1a1a38" />
    <rect x="604" y="83" width="22" height="42" fill="#1c1c3e" />
    <rect x="624" y="96" width="28" height="29" fill="#191938" />
    <rect x="650" y="80" width="24" height="45" fill="#1e1e42" />
    <rect x="672" y="90" width="30" height="35" fill="#1b1b3c" />
    <rect x="700" y="85" width="20" height="40" fill="#1d1d40" />
    <rect x="718" y="94" width="32" height="31" fill="#1a1a38" />
    <rect x="748" y="82" width="28" height="43" fill="#1c1c3e" />
    <rect x="774" y="92" width="26" height="33" fill="#191938" />

    
    <rect x="88" y="86" r="0" width="3" height="3" fill="#ffe88a" opacity="0.8" />
    <rect x="95" y="92" width="3" height="3" fill="#ffe88a" opacity="0.7" />
    <rect x="130" y="82" width="2" height="3" fill="#ffe88a" opacity="0.8" />
    <rect x="134" y="90" width="2" height="3" fill="#ffe88a" opacity="0.6" />
    <rect x="178" y="89" width="3" height="3" fill="#ffe88a" opacity="0.7" />
    <rect x="228" y="84" width="3" height="3" fill="#ffe88a" opacity="0.8" />
    <rect x="270" y="80" width="2" height="3" fill="#ffe88a" opacity="0.7" />
    <rect x="276" y="88" width="2" height="3" fill="#ffe88a" opacity="0.6" />
    <rect x="322" y="86" width="3" height="3" fill="#ffe88a" opacity="0.8" />
    <rect x="366" y="88" width="3" height="3" fill="#ffe88a" opacity="0.7" />
    <rect x="416" y="82" width="2" height="3" fill="#ffe88a" opacity="0.8" />
    <rect x="462" y="90" width="3" height="3" fill="#ffe88a" opacity="0.6" />
    <rect x="508" y="84" width="3" height="3" fill="#ffe88a" opacity="0.8" />
    <rect x="558" y="79" width="2" height="3" fill="#ffe88a" opacity="0.7" />
    <rect x="608" y="87" width="3" height="3" fill="#ffe88a" opacity="0.8" />
    <rect x="654" y="84" width="3" height="3" fill="#ffe88a" opacity="0.7" />
    <rect x="704" y="89" width="2" height="3" fill="#ffe88a" opacity="0.6" />
    <rect x="752" y="86" width="3" height="3" fill="#ffe88a" opacity="0.8" />

    
    <rect x="108" y="96" width="3" height="3" fill="#88bbee" opacity="0.6" />
    <rect x="150" y="99" width="2" height="3" fill="#88bbee" opacity="0.5" />
    <rect x="200" y="100" width="3" height="3" fill="#88bbee" opacity="0.6" />
    <rect x="248" y="94" width="2" height="3" fill="#88bbee" opacity="0.5" />
    <rect x="292" y="98" width="3" height="3" fill="#88bbee" opacity="0.6" />
    <rect x="342" y="101" width="2" height="3" fill="#88bbee" opacity="0.5" />
    <rect x="390" y="96" width="3" height="3" fill="#88bbee" opacity="0.6" />
    <rect x="434" y="99" width="2" height="3" fill="#88bbee" opacity="0.5" />
    <rect x="484" y="101" width="3" height="3" fill="#88bbee" opacity="0.6" />
    <rect x="532" y="95" width="2" height="3" fill="#88bbee" opacity="0.5" />
    <rect x="578" y="98" width="3" height="3" fill="#88bbee" opacity="0.6" />
    <rect x="630" y="100" width="2" height="3" fill="#88bbee" opacity="0.5" />
    <rect x="678" y="94" width="3" height="3" fill="#88bbee" opacity="0.6" />
    <rect x="724" y="98" width="2" height="3" fill="#88bbee" opacity="0.5" />

    
    <rect x="0" y="120" width="800" height="5" fill="#c0c0d0" opacity="0.06" />

    
    <rect x="500" y="118" width="120" height="7" fill="#222238" />
    <rect x="610" y="122" width="90" height="6" fill="#1f1f34" />
    <rect x="690" y="126" width="110" height="5" fill="#1c1c30" />

    
    <rect x="0" y="145" width="800" height="55" fill="url(#roofGrad)" />

    
    <rect x="0" y="145" width="800" height="2" fill="#353548" opacity="0.5" />
    <rect x="100" y="160" width="60" height="3" fill="#252538" opacity="0.4" />
    <rect x="300" y="170" width="80" height="2" fill="#252538" opacity="0.3" />
    <rect x="550" y="155" width="50" height="3" fill="#252538" opacity="0.4" />
    <rect x="650" y="175" width="70" height="2" fill="#252538" opacity="0.3" />

    
    <rect x="0" y="140" width="800" height="8" fill="#252540" />
    <rect x="0" y="140" width="800" height="2" fill="#303050" opacity="0.5" />

    
    <rect x="0" y="140" width="3" height="8" fill="#303050" opacity="0.3" />
    <rect x="80" y="140" width="3" height="8" fill="#303050" opacity="0.3" />
    <rect x="160" y="140" width="3" height="8" fill="#303050" opacity="0.3" />
    <rect x="240" y="140" width="3" height="8" fill="#303050" opacity="0.3" />
    <rect x="320" y="140" width="3" height="8" fill="#303050" opacity="0.3" />
    <rect x="400" y="140" width="3" height="8" fill="#303050" opacity="0.3" />
    <rect x="480" y="140" width="3" height="8" fill="#303050" opacity="0.3" />
    <rect x="560" y="140" width="3" height="8" fill="#303050" opacity="0.3" />
    <rect x="640" y="140" width="3" height="8" fill="#303050" opacity="0.3" />
    <rect x="720" y="140" width="3" height="8" fill="#303050" opacity="0.3" />

    
    
    <rect x="45" y="118" width="3" height="24" fill="#151528" />
    <rect x="72" y="118" width="3" height="24" fill="#151528" />
    <line x1="48" y1="130" x2="72" y2="130" stroke="#151528" stroke-width="2" />
    <line x1="48" y1="136" x2="72" y2="136" stroke="#151528" stroke-width="1.5" />
    
    <line x1="48" y1="118" x2="72" y2="140" stroke="#151528" stroke-width="1" />
    <line x1="72" y1="118" x2="48" y2="140" stroke="#151528" stroke-width="1" />
    
    <ellipse cx="60" cy="118" rx="18" ry="5" fill="#151528" />
    <rect x="42" y="105" width="36" height="14" fill="#151528" />
    <ellipse cx="60" cy="105" rx="18" ry="4" fill="#1a1a32" />
    
    <polygon points="42,105 60,95 78,105" fill="#151528" />

    
    
    <rect x="620" y="150" width="15" height="10" fill="#202036" />
    <rect x="620" y="148" width="15" height="3" fill="#282844" />

    
    <rect x="380" y="152" width="10" height="8" fill="#1e1e34" />

    
    <rect x="250" y="155" width="40" height="2" fill="#282840" opacity="0.5" />
    <rect x="250" y="153" width="2" height="6" fill="#282840" opacity="0.5" />
    <rect x="288" y="153" width="2" height="6" fill="#282840" opacity="0.5" />

    
    <g id="background-animated-part">
      
      <circle cx="150" cy="22" r="2" fill="#ffffff">
        <animate attributeName="opacity" values="0.2;1.0;0.2" dur="2.5s" repeatCount="indefinite" />
      </circle>

      
      <circle cx="520" cy="15" r="2.2" fill="#ffe8b0">
        <animate attributeName="opacity" values="1.0;0.2;1.0" dur="3.8s" repeatCount="indefinite" />
      </circle>

      
      <rect x="270" y="80" width="3" height="4" fill="#ffe88a">
        <animate attributeName="fill" values="#ffe88a;#ffc94a;#ffe88a" dur="4s" repeatCount="indefinite" />
      </rect>

      
      <ellipse cx="680" cy="40" rx="70" ry="60" fill="#c8c8ff" opacity="0.3">
        <animate attributeName="opacity" values="0.3;0.65;0.3" dur="5s" repeatCount="indefinite" />
      </ellipse>

      
      <rect x="0" y="100" width="800" height="20" fill="#1a1a3a" opacity="0.5">
        <animate attributeName="fill" values="#1a1a3a;#2a1a4a;#1a1a3a" dur="6s" repeatCount="indefinite" />
      </rect>
    </g>
  </g>
</svg>