<svg xmlns="http://www.w3.org/2000/svg" id="background-root" viewBox="0 0 800 200">
  <g id="background-main">
    
    <defs>
      <linearGradient id="skyGrad" x1="0" y1="0" x2="0" y2="1">
        <stop offset="0%" stop-color="#b8b8b8" />
        <stop offset="40%" stop-color="#c8c4bc" />
        <stop offset="70%" stop-color="#d8d0c0" />
        <stop offset="100%" stop-color="#e8d8b0" />
      </linearGradient>
      <linearGradient id="fieldGrad" x1="0" y1="0" x2="0" y2="1">
        <stop offset="0%" stop-color="#5a8a3a" />
        <stop offset="100%" stop-color="#3d6b28" />
      </linearGradient>
    </defs>

    
    <rect x="0" y="0" width="800" height="200" fill="url(#skyGrad)" />

    
    <rect x="0" y="90" width="800" height="30" fill="#e0d0a8" opacity="0.6" />

    
    <ellipse cx="200" cy="25" rx="180" ry="22" fill="#a0a0a0" opacity="0.5" />
    <ellipse cx="500" cy="18" rx="200" ry="20" fill="#9a9a9a" opacity="0.45" />
    <ellipse cx="700" cy="35" rx="150" ry="18" fill="#a5a5a5" opacity="0.4" />
    <ellipse cx="100" cy="50" rx="120" ry="15" fill="#aaaaaa" opacity="0.35" />

    
    <ellipse cx="350" cy="55" rx="220" ry="18" fill="#b0b0a8" opacity="0.4" />
    <ellipse cx="650" cy="65" rx="160" ry="14" fill="#b5b0a5" opacity="0.35" />

    
    <rect x="0" y="100" width="800" height="15" fill="#ddd0b0" opacity="0.5" />

    
    <rect x="0" y="110" width="800" height="90" fill="url(#fieldGrad)" />

    
    <ellipse cx="150" cy="120" rx="200" ry="12" fill="#4e7e32" />
    <ellipse cx="500" cy="118" rx="250" ry="10" fill="#548836" />
    <ellipse cx="700" cy="125" rx="180" ry="14" fill="#4a7a30" />

    
    <rect x="0" y="112" width="800" height="8" fill="#6a9a48" opacity="0.6" />

    
    <circle cx="80" cy="140" r="3" fill="#b898c8" />
    <circle cx="95" cy="138" r="2.5" fill="#c8a8d8" />
    <circle cx="88" cy="145" r="2" fill="#b090c0" />
    <circle cx="105" cy="142" r="2.8" fill="#c0a0d0" />
    <circle cx="72" cy="143" r="2.2" fill="#b898c8" />

    
    <circle cx="600" cy="135" r="2.5" fill="#e8d878" />
    <circle cx="615" cy="138" r="3" fill="#e0d060" />
    <circle cx="608" cy="132" r="2" fill="#ead880" />
    <circle cx="625" cy="136" r="2.2" fill="#d8c858" />
    <circle cx="590" cy="137" r="2.8" fill="#e5d570" />

    
    <circle cx="300" cy="145" r="2" fill="#c8a8d8" />
    <circle cx="310" cy="148" r="2.5" fill="#b898c8" />
    <circle cx="320" cy="143" r="1.8" fill="#d0b0e0" />

    <circle cx="450" cy="140" r="2.2" fill="#e0d060" />
    <circle cx="460" cy="137" r="2.5" fill="#e8d878" />
    <circle cx="440" cy="142" r="2" fill="#d8c858" />

    
    <circle cx="180" cy="150" r="2" fill="#b898c8" />
    <circle cx="190" cy="148" r="2.5" fill="#c0a0d0" />
    <circle cx="720" cy="138" r="2.2" fill="#c8a8d8" />
    <circle cx="730" cy="141" r="2" fill="#b898c8" />

    
    <circle cx="250" cy="152" r="2.5" fill="#e0d060" />
    <circle cx="260" cy="149" r="2" fill="#e8d878" />

    
    <ellipse cx="400" cy="175" rx="90" ry="20" fill="#6b5a3e" />
    <ellipse cx="400" cy="175" rx="75" ry="15" fill="#7a6848" />
    <ellipse cx="395" cy="178" rx="55" ry="10" fill="#5e4e35" />
    
    <ellipse cx="405" cy="172" rx="30" ry="6" fill="#8a7858" opacity="0.5" />
    <ellipse cx="390" cy="180" rx="20" ry="4" fill="#4e4030" opacity="0.6" />

    
    <ellipse cx="100" cy="185" rx="60" ry="8" fill="#3a6020" />
    <ellipse cx="300" cy="190" rx="50" ry="7" fill="#3d6525" />
    <ellipse cx="550" cy="188" rx="70" ry="9" fill="#386020" />
    <ellipse cx="720" cy="185" rx="55" ry="8" fill="#3a6222" />

    
    <rect x="0" y="192" width="800" height="8" fill="#4a6a2a" />

    
    <line x1="150" y1="0" x2="145" y2="110" stroke="#c0c8d0" stroke-width="0.5" opacity="0.15" />
    <line x1="350" y1="0" x2="346" y2="110" stroke="#c0c8d0" stroke-width="0.5" opacity="0.12" />
    <line x1="550" y1="0" x2="547" y2="110" stroke="#c0c8d0" stroke-width="0.5" opacity="0.1" />
    <line x1="680" y1="0" x2="677" y2="110" stroke="#c0c8d0" stroke-width="0.5" opacity="0.12" />

    
    <g id="background-animated-part">

      
      <rect x="0" y="95" width="800" height="25" opacity="0.7">
        <animate attributeName="fill" values="#e8d8b0;#f5ead0;#e8d8b0" dur="5s" repeatCount="indefinite" />
      </rect>

      
      <ellipse cx="400" cy="42" rx="250" ry="25" fill="#9e9e98">
        <animate attributeName="opacity" values="0.4;0.75;0.4" dur="4s" repeatCount="indefinite" />
      </ellipse>

      
      <g>
        <animate attributeName="opacity" values="0.1;0.5;0.1" dur="2s" repeatCount="indefinite" />
        <line x1="120" y1="5" x2="115" y2="115" stroke="#b0b8c8" stroke-width="0.8" />
        <line x1="220" y1="10" x2="216" y2="112" stroke="#b0b8c8" stroke-width="0.7" />
        <line x1="380" y1="3" x2="376" y2="108" stroke="#b0b8c8" stroke-width="0.8" />
        <line x1="480" y1="8" x2="477" y2="115" stroke="#b0b8c8" stroke-width="0.6" />
        <line x1="160" y1="12" x2="157" y2="100" stroke="#aab0c0" stroke-width="0.5" />
        <line x1="430" y1="6" x2="427" y2="105" stroke="#aab0c0" stroke-width="0.6" />
      </g>

      
      <g>
        <animate attributeName="opacity" values="0.5;0.1;0.5" dur="2.8s" repeatCount="indefinite" />
        <line x1="560" y1="2" x2="557" y2="110" stroke="#b0b8c8" stroke-width="0.8" />
        <line x1="650" y1="7" x2="647" y2="108" stroke="#b0b8c8" stroke-width="0.7" />
        <line x1="740" y1="4" x2="737" y2="112" stroke="#b0b8c8" stroke-width="0.6" />
        <line x1="50" y1="9" x2="47" y2="105" stroke="#b0b8c8" stroke-width="0.7" />
        <line x1="600" y1="11" x2="597" y2="100" stroke="#aab0c0" stroke-width="0.5" />
        <line x1="700" y1="5" x2="698" y2="95" stroke="#aab0c0" stroke-width="0.6" />
      </g>

      
      <g>
        <circle cx="140" cy="150" r="3.5">
          <animate attributeName="fill" values="#c8a8d8;#dfc0e8;#c8a8d8" dur="3.5s" repeatCount="indefinite" />
        </circle>
        <circle cx="155" cy="147" r="3">
          <animate attributeName="fill" values="#c8a8d8;#dfc0e8;#c8a8d8" dur="3.5s" repeatCount="indefinite" />
        </circle>
        <circle cx="148" cy="155" r="2.8">
          <animate attributeName="fill" values="#c8a8d8;#dfc0e8;#c8a8d8" dur="3.5s" repeatCount="indefinite" />
        </circle>
        <circle cx="130" cy="152" r="2.5">
          <animate attributeName="fill" values="#c8a8d8;#dfc0e8;#c8a8d8" dur="3.5s" repeatCount="indefinite" />
        </circle>
        <circle cx="162" cy="152" r="2.2">
          <animate attributeName="fill" values="#c8a8d8;#dfc0e8;#c8a8d8" dur="3.5s" repeatCount="indefinite" />
        </circle>
        <circle cx="145" cy="160" r="2">
          <animate attributeName="fill" values="#c8a8d8;#dfc0e8;#c8a8d8" dur="3.5s" repeatCount="indefinite" />
        </circle>
        <circle cx="135" cy="146" r="2.3">
          <animate attributeName="fill" values="#c8a8d8;#dfc0e8;#c8a8d8" dur="3.5s" repeatCount="indefinite" />
        </circle>
      </g>

    </g>
  </g>
</svg>