<svg xmlns="http://www.w3.org/2000/svg" id="background-root" viewBox="0 0 800 200">
  <defs>
    <linearGradient id="skyGrad" x1="0" y1="0" x2="0" y2="1">
      <stop offset="0%" stop-color="#6b7d8e" />
      <stop offset="40%" stop-color="#8a9bab" />
      <stop offset="70%" stop-color="#a8b5c4" />
      <stop offset="100%" stop-color="#c8b8d0" />
    </linearGradient>
    <linearGradient id="grassGrad" x1="0" y1="0" x2="0" y2="1">
      <stop offset="0%" stop-color="#5a7a4a" />
      <stop offset="50%" stop-color="#4e6e3e" />
      <stop offset="100%" stop-color="#3d5c30" />
    </linearGradient>
    <linearGradient id="puddleGrad" x1="0" y1="0" x2="0" y2="1">
      <stop offset="0%" stop-color="#b0c8d8" />
      <stop offset="100%" stop-color="#95afc0" />
    </linearGradient>
  </defs>

  <g id="background-main">
    
    <rect x="0" y="0" width="800" height="200" fill="url(#skyGrad)" />

    
    <rect x="0" y="10" width="800" height="18" rx="9" fill="#9aa8b8" opacity="0.5" />
    <rect x="0" y="32" width="800" height="22" rx="11" fill="#8e9cac" opacity="0.45" />
    <rect x="0" y="58" width="800" height="16" rx="8" fill="#a0adb8" opacity="0.4" />
    <rect x="0" y="78" width="800" height="20" rx="10" fill="#96a4b4" opacity="0.35" />

    
    <ellipse cx="150" cy="30" rx="120" ry="20" fill="#7e8e9e" opacity="0.6" />
    <ellipse cx="400" cy="22" rx="160" ry="24" fill="#8494a4" opacity="0.55" />
    <ellipse cx="650" cy="35" rx="140" ry="22" fill="#7a8a9a" opacity="0.5" />
    <ellipse cx="80" cy="65" rx="100" ry="18" fill="#8a9aaa" opacity="0.45" />
    <ellipse cx="500" cy="60" rx="130" ry="20" fill="#8090a0" opacity="0.5" />
    <ellipse cx="750" cy="70" rx="110" ry="16" fill="#8898a8" opacity="0.4" />

    
    <ellipse cx="250" cy="90" rx="180" ry="25" fill="#929fad" opacity="0.35" />
    <ellipse cx="600" cy="85" rx="150" ry="22" fill="#8d9baa" opacity="0.3" />

    
    <line x1="50" y1="0" x2="35" y2="200" stroke="#a0b8cc" stroke-width="0.5" opacity="0.25" />
    <line x1="120" y1="0" x2="105" y2="200" stroke="#a0b8cc" stroke-width="0.5" opacity="0.2" />
    <line x1="200" y1="0" x2="185" y2="200" stroke="#a0b8cc" stroke-width="0.5" opacity="0.25" />
    <line x1="280" y1="0" x2="265" y2="200" stroke="#a0b8cc" stroke-width="0.5" opacity="0.2" />
    <line x1="350" y1="0" x2="335" y2="200" stroke="#a0b8cc" stroke-width="0.5" opacity="0.25" />
    <line x1="430" y1="0" x2="415" y2="200" stroke="#a0b8cc" stroke-width="0.5" opacity="0.2" />
    <line x1="510" y1="0" x2="495" y2="200" stroke="#a0b8cc" stroke-width="0.5" opacity="0.25" />
    <line x1="590" y1="0" x2="575" y2="200" stroke="#a0b8cc" stroke-width="0.5" opacity="0.2" />
    <line x1="670" y1="0" x2="655" y2="200" stroke="#a0b8cc" stroke-width="0.5" opacity="0.25" />
    <line x1="740" y1="0" x2="725" y2="200" stroke="#a0b8cc" stroke-width="0.5" opacity="0.2" />

    
    <rect x="0" y="148" width="800" height="52" fill="url(#grassGrad)" />

    
    <rect x="0" y="148" width="800" height="4" fill="#6a8a58" opacity="0.5" />
    <ellipse cx="100" cy="155" rx="60" ry="4" fill="#5e7e4c" opacity="0.4" />
    <ellipse cx="350" cy="158" rx="80" ry="5" fill="#567644" opacity="0.35" />
    <ellipse cx="600" cy="153" rx="70" ry="4" fill="#5a7a48" opacity="0.4" />
    <ellipse cx="750" cy="160" rx="50" ry="3" fill="#4e6e3c" opacity="0.35" />

    
    <ellipse cx="180" cy="175" rx="35" ry="6" fill="#b0c8d8" opacity="0.7" />
    <ellipse cx="450" cy="180" rx="45" ry="7" fill="#a8c0d0" opacity="0.65" />
    <ellipse cx="650" cy="172" rx="30" ry="5" fill="#b4ccd8" opacity="0.6" />
    <ellipse cx="320" cy="185" rx="25" ry="4" fill="#aac4d4" opacity="0.55" />
    <ellipse cx="80" cy="188" rx="28" ry="5" fill="#b0c8d8" opacity="0.5" />

    
    <ellipse cx="180" cy="173" rx="20" ry="3" fill="#d0e4ef" opacity="0.35" />
    <ellipse cx="450" cy="178" rx="25" ry="3" fill="#d0e4ef" opacity="0.3" />
    <ellipse cx="650" cy="170" rx="16" ry="2" fill="#d0e4ef" opacity="0.3" />

    
    <g id="background-animated-part">

      
      <g opacity="0.2">
        <animate attributeName="opacity" values="0.2;0.7;0.2" dur="2s" repeatCount="indefinite" />
        <line x1="60" y1="0" x2="42" y2="200" stroke="#b8d0e0" stroke-width="0.8" />
        <line x1="130" y1="0" x2="112" y2="200" stroke="#b8d0e0" stroke-width="0.7" />
        <line x1="195" y1="0" x2="177" y2="200" stroke="#b8d0e0" stroke-width="0.8" />
        <line x1="260" y1="0" x2="242" y2="200" stroke="#b8d0e0" stroke-width="0.7" />
        <line x1="330" y1="0" x2="312" y2="200" stroke="#b8d0e0" stroke-width="0.8" />
        <line x1="90" y1="0" x2="72" y2="200" stroke="#c0d8e8" stroke-width="0.6" />
        <line x1="160" y1="0" x2="142" y2="200" stroke="#c0d8e8" stroke-width="0.6" />
        <line x1="230" y1="0" x2="212" y2="200" stroke="#c0d8e8" stroke-width="0.6" />
        <line x1="300" y1="0" x2="282" y2="200" stroke="#c0d8e8" stroke-width="0.6" />
        <line x1="370" y1="0" x2="352" y2="200" stroke="#c0d8e8" stroke-width="0.7" />
      </g>

      
      <g opacity="0.7">
        <animate attributeName="opacity" values="0.7;0.2;0.7" dur="2.5s" repeatCount="indefinite" />
        <line x1="430" y1="0" x2="412" y2="200" stroke="#b8d0e0" stroke-width="0.8" />
        <line x1="500" y1="0" x2="482" y2="200" stroke="#b8d0e0" stroke-width="0.7" />
        <line x1="565" y1="0" x2="547" y2="200" stroke="#b8d0e0" stroke-width="0.8" />
        <line x1="630" y1="0" x2="612" y2="200" stroke="#b8d0e0" stroke-width="0.7" />
        <line x1="700" y1="0" x2="682" y2="200" stroke="#b8d0e0" stroke-width="0.8" />
        <line x1="460" y1="0" x2="442" y2="200" stroke="#c0d8e8" stroke-width="0.6" />
        <line x1="530" y1="0" x2="512" y2="200" stroke="#c0d8e8" stroke-width="0.6" />
        <line x1="600" y1="0" x2="582" y2="200" stroke="#c0d8e8" stroke-width="0.6" />
        <line x1="665" y1="0" x2="647" y2="200" stroke="#c0d8e8" stroke-width="0.6" />
        <line x1="760" y1="0" x2="742" y2="200" stroke="#c0d8e8" stroke-width="0.7" />
      </g>

      
      <ellipse cx="450" cy="180" rx="45" ry="7" fill="#b0c8d8" opacity="0.75">
        <animate attributeName="fill" values="#b0c8d8;#d0e4ef;#b0c8d8" dur="3s" repeatCount="indefinite" />
      </ellipse>
      <ellipse cx="180" cy="175" rx="35" ry="6" fill="#d0e4ef" opacity="0.7">
        <animate attributeName="fill" values="#d0e4ef;#b0c8d8;#d0e4ef" dur="3s" repeatCount="indefinite" />
      </ellipse>

      
      <g opacity="0.4">
        <animate attributeName="opacity" values="0.4;0.85;0.4" dur="4s" repeatCount="indefinite" />
        <rect x="0" y="40" width="800" height="28" rx="14" fill="#7a8a9c" />
        <ellipse cx="300" cy="48" rx="200" ry="18" fill="#6e7e90" />
        <ellipse cx="550" cy="52" rx="170" ry="16" fill="#728294" />
      </g>

      
      <rect x="0" y="0" width="800" height="148" fill="#c0b0d0" opacity="0.1">
        <animate attributeName="opacity" values="0.1;0.35;0.1" dur="5s" repeatCount="indefinite" />
      </rect>

    </g>
  </g>
</svg>