<svg xmlns="http://www.w3.org/2000/svg" id="background-root" viewBox="0 0 800 200">
  <defs>
    <radialGradient id="spaceGrad" cx="50%" cy="50%" r="70%">
      <stop offset="0%" stop-color="#2a1f0a" />
      <stop offset="35%" stop-color="#1a1005" />
      <stop offset="70%" stop-color="#0a0804" />
      <stop offset="100%" stop-color="#020102" />
    </radialGradient>
    <radialGradient id="planetGrad" cx="70%" cy="30%">
      <stop offset="0%" stop-color="#a8c8e8" />
      <stop offset="40%" stop-color="#5b8ab5" />
      <stop offset="75%" stop-color="#2a5a8a" />
      <stop offset="100%" stop-color="#1a3a5a" />
    </radialGradient>
    <radialGradient id="haloGrad" cx="70%" cy="30%" r="55%">
      <stop offset="0%" stop-color="#88ccff" stop-opacity="0" />
      <stop offset="50%" stop-color="#66aaee" stop-opacity="0.3" />
      <stop offset="80%" stop-color="#4488cc" stop-opacity="0.5" />
      <stop offset="100%" stop-color="#2266aa" stop-opacity="0" />
    </radialGradient>
    <linearGradient id="milkyGrad" x1="0%" y1="0%" x2="100%" y2="100%">
      <stop offset="0%" stop-color="#c8a96e" stop-opacity="0" />
      <stop offset="20%" stop-color="#c8a96e" stop-opacity="0.08" />
      <stop offset="45%" stop-color="#d4bc82" stop-opacity="0.18" />
      <stop offset="55%" stop-color="#d4bc82" stop-opacity="0.18" />
      <stop offset="80%" stop-color="#c8a96e" stop-opacity="0.08" />
      <stop offset="100%" stop-color="#c8a96e" stop-opacity="0" />
    </linearGradient>
    <filter id="starGlow">
      <feGaussianBlur stdDeviation="1.2" result="blur" />
      <feMerge><feMergeNode in="blur" /><feMergeNode in="SourceGraphic" /></feMerge>
    </filter>
    <filter id="haloBlur">
      <feGaussianBlur stdDeviation="6" />
    </filter>
    <filter id="milkyBlur">
      <feGaussianBlur stdDeviation="8" />
    </filter>
  </defs>

  <g id="background-main">
    
    <rect x="0" y="0" width="800" height="200" fill="url(#spaceGrad)" />

    
    <g opacity="0.5">
      <circle cx="45" cy="12" r="0.6" fill="#887755" />
      <circle cx="120" cy="35" r="0.5" fill="#998866" />
      <circle cx="200" cy="8" r="0.7" fill="#aa9977" />
      <circle cx="310" cy="22" r="0.4" fill="#776655" />
      <circle cx="380" cy="45" r="0.6" fill="#887766" />
      <circle cx="450" cy="15" r="0.5" fill="#998877" />
      <circle cx="530" cy="38" r="0.7" fill="#aa9988" />
      <circle cx="620" cy="10" r="0.4" fill="#776644" />
      <circle cx="700" cy="28" r="0.6" fill="#887755" />
      <circle cx="770" cy="42" r="0.5" fill="#998866" />
      <circle cx="30" cy="65" r="0.5" fill="#887766" />
      <circle cx="95" cy="88" r="0.6" fill="#aa9977" />
      <circle cx="175" cy="72" r="0.4" fill="#776655" />
      <circle cx="260" cy="95" r="0.7" fill="#998877" />
      <circle cx="340" cy="78" r="0.5" fill="#887755" />
      <circle cx="415" cy="102" r="0.6" fill="#aa9988" />
      <circle cx="495" cy="85" r="0.4" fill="#776644" />
      <circle cx="575" cy="68" r="0.7" fill="#998866" />
      <circle cx="655" cy="92" r="0.5" fill="#887766" />
      <circle cx="735" cy="75" r="0.6" fill="#aa9977" />
      <circle cx="55" cy="115" r="0.4" fill="#776655" />
      <circle cx="140" cy="138" r="0.7" fill="#998877" />
      <circle cx="225" cy="122" r="0.5" fill="#887755" />
      <circle cx="305" cy="145" r="0.6" fill="#aa9988" />
      <circle cx="390" cy="128" r="0.4" fill="#776644" />
      <circle cx="470" cy="152" r="0.7" fill="#998866" />
      <circle cx="555" cy="135" r="0.5" fill="#887766" />
      <circle cx="640" cy="158" r="0.6" fill="#aa9977" />
      <circle cx="720" cy="142" r="0.4" fill="#776655" />
      <circle cx="785" cy="165" r="0.7" fill="#998877" />
      <circle cx="70" cy="172" r="0.5" fill="#887755" />
      <circle cx="160" cy="185" r="0.6" fill="#aa9988" />
      <circle cx="245" cy="168" r="0.4" fill="#776644" />
      <circle cx="330" cy="192" r="0.7" fill="#998866" />
      <circle cx="420" cy="175" r="0.5" fill="#887766" />
      <circle cx="510" cy="188" r="0.6" fill="#aa9977" />
      <circle cx="600" cy="178" r="0.4" fill="#776655" />
      <circle cx="680" cy="195" r="0.7" fill="#998877" />
      <circle cx="760" cy="182" r="0.5" fill="#887755" />
    </g>

    
    <g opacity="0.7">
      <circle cx="78" cy="25" r="0.8" fill="#ccbb99" />
      <circle cx="155" cy="55" r="0.9" fill="#ddcc99" />
      <circle cx="238" cy="42" r="0.7" fill="#ccaa88" />
      <circle cx="365" cy="18" r="1.0" fill="#eedd99" />
      <circle cx="442" cy="62" r="0.8" fill="#ddbb88" />
      <circle cx="518" cy="30" r="0.9" fill="#ccbb99" />
      <circle cx="598" cy="52" r="0.7" fill="#ddcc99" />
      <circle cx="672" cy="40" r="1.0" fill="#ccaa88" />
      <circle cx="748" cy="58" r="0.8" fill="#eedd99" />
      <circle cx="42" cy="98" r="0.9" fill="#ddbb88" />
      <circle cx="188" cy="108" r="0.7" fill="#ccbb99" />
      <circle cx="278" cy="82" r="1.0" fill="#ddcc99" />
      <circle cx="358" cy="115" r="0.8" fill="#ccaa88" />
      <circle cx="488" cy="105" r="0.9" fill="#eedd99" />
      <circle cx="568" cy="118" r="0.7" fill="#ddbb88" />
      <circle cx="648" cy="130" r="1.0" fill="#ccbb99" />
      <circle cx="728" cy="108" r="0.8" fill="#ddcc99" />
      <circle cx="108" cy="155" r="0.9" fill="#ccaa88" />
      <circle cx="288" cy="162" r="0.7" fill="#eedd99" />
      <circle cx="408" cy="148" r="1.0" fill="#ddbb88" />
      <circle cx="548" cy="165" r="0.8" fill="#ccbb99" />
      <circle cx="698" cy="172" r="0.9" fill="#ddcc99" />
      <circle cx="58" cy="185" r="0.7" fill="#ccaa88" />
      <circle cx="468" cy="188" r="1.0" fill="#eedd99" />
    </g>

    
    <g>
      <circle cx="132" cy="32" r="1.2" fill="#ffe8aa" opacity="0.9" />
      <circle cx="295" cy="55" r="1.0" fill="#fff5cc" opacity="0.85" />
      <circle cx="425" cy="28" r="1.3" fill="#ffeebb" opacity="0.9" />
      <circle cx="562" cy="45" r="1.1" fill="#ffe8aa" opacity="0.85" />
      <circle cx="688" cy="22" r="1.2" fill="#fff5cc" opacity="0.9" />
      <circle cx="82" cy="78" r="1.0" fill="#ffeebb" opacity="0.85" />
      <circle cx="348" cy="92" r="1.3" fill="#ffe8aa" opacity="0.9" />
      <circle cx="502" cy="72" r="1.1" fill="#fff5cc" opacity="0.85" />
      <circle cx="752" cy="88" r="1.2" fill="#ffeebb" opacity="0.9" />
      <circle cx="218" cy="135" r="1.0" fill="#ffe8aa" opacity="0.85" />
      <circle cx="438" cy="142" r="1.3" fill="#fff5cc" opacity="0.9" />
      <circle cx="618" cy="155" r="1.1" fill="#ffeebb" opacity="0.85" />
      <circle cx="158" cy="178" r="1.2" fill="#ffe8aa" opacity="0.9" />
      <circle cx="528" cy="185" r="1.0" fill="#fff5cc" opacity="0.85" />
      <circle cx="778" cy="148" r="1.3" fill="#ffeebb" opacity="0.9" />
    </g>

    
    <polygon points="0,0 250,0 800,120 800,180 550,200 0,80" fill="url(#milkyGrad)" filter="url(#milkyBlur)" opacity="0.6" />

    
    <polygon points="50,10 300,0 800,130 800,160 500,200 0,60" fill="#c8a96e" opacity="0.06" filter="url(#milkyBlur)" />

    
    <ellipse cx="300" cy="50" rx="120" ry="25" fill="#d4bc82" opacity="0.07" filter="url(#milkyBlur)" />
    <ellipse cx="500" cy="90" rx="100" ry="20" fill="#c8a96e" opacity="0.06" filter="url(#milkyBlur)" />
    <ellipse cx="180" cy="35" rx="80" ry="18" fill="#e0cca0" opacity="0.05" filter="url(#milkyBlur)" />
    <ellipse cx="650" cy="120" rx="90" ry="22" fill="#d4bc82" opacity="0.06" filter="url(#milkyBlur)" />

    
    <clipPath id="planetClip">
      <rect x="0" y="0" width="800" height="200" />
    </clipPath>
    <circle cx="-20" cy="260" r="120" fill="url(#planetGrad)" clip-path="url(#planetClip)" />

    
    <circle cx="-20" cy="260" r="120" clip-path="url(#planetClip)" fill="none" stroke="#ffffff" stroke-width="0.3" opacity="0.15" />
    <ellipse cx="20" cy="210" rx="40" ry="5" fill="#ffffff" opacity="0.08" clip-path="url(#planetClip)" />
    <ellipse cx="50" cy="195" rx="25" ry="3" fill="#c0d8f0" opacity="0.1" clip-path="url(#planetClip)" />

    
    <circle cx="-20" cy="260" r="128" fill="none" stroke="#66aadd" stroke-width="5" opacity="0.2" filter="url(#haloBlur)" clip-path="url(#planetClip)" />
    <circle cx="-20" cy="260" r="125" fill="none" stroke="#88ccff" stroke-width="3" opacity="0.15" filter="url(#haloBlur)" clip-path="url(#planetClip)" />

    
    <ellipse cx="400" cy="100" rx="300" ry="80" fill="#3a2a10" opacity="0.08" filter="url(#milkyBlur)" />

    
    <g id="background-animated-part">
      
      <circle cx="350" cy="38" r="2.0" fill="#fff5cc" filter="url(#starGlow)">
        <animate attributeName="opacity" values="0.4;1.0;0.4" dur="1.8s" repeatCount="indefinite" />
      </circle>

      
      <circle cx="620" cy="72" r="1.8" fill="#ffeebb" filter="url(#starGlow)">
        <animate attributeName="opacity" values="0.2;0.85;0.2" dur="3s" repeatCount="indefinite" begin="0.7s" />
      </circle>

      
      <polygon points="0,0 250,0 800,120 800,180 550,200 0,80" opacity="0.1" filter="url(#milkyBlur)">
        <animate attributeName="fill" values="#c8a96e;#e8d9a0;#c8a96e" dur="6s" repeatCount="indefinite" />
      </polygon>

      
      <g clip-path="url(#planetClip)">
        <circle cx="-20" cy="260" r="130" fill="none" stroke="#77bbee" stroke-width="8" filter="url(#haloBlur)">
          <animate attributeName="opacity" values="0.3;0.65;0.3" dur="4.5s" repeatCount="indefinite" />
        </circle>
      </g>

      
      <g>
        <animate attributeName="opacity" values="0.45;0.95;0.45" dur="2.2s" repeatCount="indefinite" begin="1.2s" />
        <circle cx="480" cy="25" r="1.2" fill="#ffe8aa" filter="url(#starGlow)" />
        <circle cx="490" cy="18" r="0.9" fill="#fff5cc" />
        <circle cx="475" cy="20" r="0.7" fill="#ffeebb" />
        <circle cx="485" cy="30" r="0.8" fill="#ffe8aa" />
        <circle cx="495" cy="24" r="1.0" fill="#fff5cc" />
        <circle cx="472" cy="28" r="0.6" fill="#ffeebb" />
        <circle cx="498" cy="15" r="0.7" fill="#ffe8aa" />
      </g>
    </g>
  </g>
</svg>