<svg xmlns="http://www.w3.org/2000/svg" id="background-root" viewBox="0 0 800 200">
  <defs>
    <linearGradient id="skyGrad" x1="0" y1="0" x2="0" y2="1">
      <stop offset="0%" stop-color="#87CEEB" />
      <stop offset="40%" stop-color="#a8d8ea" />
      <stop offset="70%" stop-color="#f0e68c" />
      <stop offset="100%" stop-color="#fffacd" />
    </linearGradient>
    <radialGradient id="sunGlow" cx="0.5" cy="0.1" r="0.5">
      <stop offset="0%" stop-color="#fff8dc" stop-opacity="0.8" />
      <stop offset="100%" stop-color="#fff8dc" stop-opacity="0" />
    </radialGradient>
    <linearGradient id="grassGrad" x1="0" y1="0" x2="0" y2="1">
      <stop offset="0%" stop-color="#7ec850" />
      <stop offset="100%" stop-color="#4a8c2a" />
    </linearGradient>
  </defs>
  <g id="background-main">
    
    <rect x="0" y="0" width="800" height="200" fill="url(#skyGrad)" />
    
    
    <ellipse cx="400" cy="20" rx="300" ry="80" fill="url(#sunGlow)" />
    
    
    <ellipse cx="200" cy="30" rx="70" ry="18" fill="#ffffff" opacity="0.6" />
    <ellipse cx="250" cy="28" rx="50" ry="15" fill="#ffffff" opacity="0.5" />
    <ellipse cx="580" cy="40" rx="60" ry="14" fill="#ffffff" opacity="0.5" />
    <ellipse cx="630" cy="38" rx="45" ry="12" fill="#ffffff" opacity="0.4" />
    <ellipse cx="120" cy="55" rx="40" ry="10" fill="#ffffff" opacity="0.35" />
    
    
    <ellipse cx="400" cy="130" rx="500" ry="60" fill="#a8d86a" />
    <ellipse cx="250" cy="135" rx="300" ry="45" fill="#9acc5a" />
    <ellipse cx="600" cy="132" rx="280" ry="50" fill="#a0d060" />
    
    
    <ellipse cx="100" cy="105" rx="30" ry="25" fill="#5a9e4a" />
    <ellipse cx="700" cy="108" rx="28" ry="22" fill="#5a9e4a" />
    <ellipse cx="50" cy="110" rx="25" ry="20" fill="#4e8e40" />
    <ellipse cx="750" cy="112" rx="22" ry="18" fill="#4e8e40" />
    
    
    <rect x="0" y="120" width="800" height="80" fill="url(#grassGrad)" />
    <ellipse cx="400" cy="120" rx="450" ry="25" fill="#8cc63f" />
    
    
    <rect x="55" y="60" width="18" height="100" rx="4" fill="#8B6914" />
    <rect x="40" y="70" width="12" height="80" rx="3" fill="#7a5c12" />
    
    <ellipse cx="65" cy="65" rx="55" ry="45" fill="#5aad5a" />
    <ellipse cx="45" cy="55" rx="40" ry="35" fill="#68bf68" />
    <ellipse cx="85" cy="60" rx="35" ry="30" fill="#60b560" />
    <ellipse cx="30" cy="70" rx="30" ry="28" fill="#4fa04f" />
    
    <circle cx="35" cy="45" r="4" fill="#ffb6c1" />
    <circle cx="80" cy="40" r="3.5" fill="#ffffff" />
    <circle cx="55" cy="35" r="3" fill="#ffb6c1" />
    <circle cx="95" cy="55" r="3" fill="#ffffff" />
    <circle cx="20" cy="60" r="3.5" fill="#ffb6c1" />
    <circle cx="70" cy="50" r="4" fill="#ffffff" />
    <circle cx="45" cy="75" r="3" fill="#ffb6c1" />
    <circle cx="100" cy="45" r="2.5" fill="#ffffff" />
    
    
    <rect x="720" y="55" width="20" height="110" rx="4" fill="#8B6914" />
    <rect x="745" y="65" width="14" height="90" rx="3" fill="#7a5c12" />
    
    <ellipse cx="735" cy="58" rx="58" ry="48" fill="#6abf6a" />
    <ellipse cx="755" cy="50" rx="42" ry="38" fill="#72c772" />
    <ellipse cx="715" cy="55" rx="38" ry="32" fill="#62b762" />
    <ellipse cx="770" cy="65" rx="32" ry="28" fill="#58a858" />
    
    <circle cx="710" cy="38" r="4" fill="#ffb6c1" />
    <circle cx="750" cy="32" r="3.5" fill="#ffffff" />
    <circle cx="770" cy="48" r="3" fill="#ffb6c1" />
    <circle cx="725" cy="50" r="3" fill="#ffffff" />
    <circle cx="695" cy="55" r="3.5" fill="#ffb6c1" />
    <circle cx="760" cy="60" r="3" fill="#ffffff" />
    <circle cx="780" cy="40" r="2.5" fill="#ffb6c1" />
    
    
    
    <rect x="140" y="85" width="12" height="70" rx="3" fill="#7a5c12" />
    <ellipse cx="148" cy="82" rx="35" ry="30" fill="#5aad5a" />
    <ellipse cx="135" cy="78" rx="25" ry="22" fill="#68bf68" />
    <circle cx="130" cy="68" r="3" fill="#ffb6c1" />
    <circle cx="160" cy="72" r="2.5" fill="#ffffff" />
    
    
    <rect x="650" y="80" width="14" height="75" rx="3" fill="#7a5c12" />
    <ellipse cx="658" cy="76" rx="38" ry="32" fill="#5aad5a" />
    <ellipse cx="672" cy="72" rx="28" ry="25" fill="#68bf68" />
    <circle cx="645" cy="62" r="3" fill="#ffffff" />
    <circle cx="675" cy="58" r="3" fill="#ffb6c1" />
    
    
    <ellipse cx="100" cy="175" rx="120" ry="15" fill="#6db83a" />
    <ellipse cx="400" cy="170" rx="200" ry="18" fill="#7ec850" />
    <ellipse cx="650" cy="178" rx="150" ry="14" fill="#6db83a" />
    <ellipse cx="300" cy="185" rx="100" ry="12" fill="#5aaa30" />
    <ellipse cx="550" cy="188" rx="130" ry="10" fill="#5aaa30" />
    
    
    <path d="M50,200 Q52,180 55,175 Q58,180 60,200" fill="#5a9e30" />
    <path d="M150,200 Q153,178 156,172 Q159,178 162,200" fill="#68b040" />
    <path d="M280,200 Q282,182 285,176 Q288,182 290,200" fill="#5a9e30" />
    <path d="M450,200 Q453,180 456,174 Q459,180 462,200" fill="#68b040" />
    <path d="M600,200 Q602,183 605,177 Q608,183 610,200" fill="#5a9e30" />
    <path d="M720,200 Q722,185 725,179 Q728,185 730,200" fill="#68b040" />
    
    
    <circle cx="180" cy="168" r="4" fill="#ffe066" />
    <circle cx="185" cy="172" r="3.5" fill="#ffcc00" />
    <circle cx="350" cy="175" r="4.5" fill="#ffe066" />
    <circle cx="500" cy="170" r="4" fill="#ffcc00" />
    <circle cx="620" cy="176" r="3.5" fill="#ffe066" />
    
    
    <circle cx="220" cy="174" r="3.5" fill="#ff9933" />
    <circle cx="420" cy="178" r="4" fill="#ffaa00" />
    <circle cx="560" cy="172" r="3" fill="#ff9933" />
    <circle cx="310" cy="180" r="3.5" fill="#ffaa00" />
    
    
    <circle cx="260" cy="170" r="3" fill="#ffffff" />
    <circle cx="480" cy="176" r="3.5" fill="#ffffff" />
    <circle cx="380" cy="182" r="3" fill="#f8f8f8" />
    <circle cx="680" cy="174" r="3" fill="#ffffff" />
    <circle cx="140" cy="178" r="2.5" fill="#f8f8f8" />
    
    
    <line x1="180" y1="168" x2="180" y2="185" stroke="#4a8c2a" stroke-width="1.5" />
    <line x1="350" y1="175" x2="350" y2="192" stroke="#4a8c2a" stroke-width="1.5" />
    <line x1="500" y1="170" x2="500" y2="188" stroke="#4a8c2a" stroke-width="1.5" />
    <line x1="420" y1="178" x2="420" y2="195" stroke="#4a8c2a" stroke-width="1.5" />
    <line x1="260" y1="170" x2="260" y2="186" stroke="#4a8c2a" stroke-width="1.5" />
    <line x1="620" y1="176" x2="620" y2="193" stroke="#4a8c2a" stroke-width="1.5" />
    
    
    <ellipse cx="400" cy="145" rx="120" ry="30" fill="#fffacd" opacity="0.3" />
    
    
    <g id="background-animated-part">
      
      <circle cx="55" cy="35" r="5" fill="#ffb6c1">
        <animate attributeName="fill" values="#ffb6c1;#ffffff;#ffb6c1" dur="3s" repeatCount="indefinite" />
      </circle>
      
      
      <ellipse cx="400" cy="148" rx="140" ry="35" fill="#fffacd" opacity="0.3">
        <animate attributeName="opacity" values="0.15;0.5;0.15" dur="4.5s" repeatCount="indefinite" />
      </ellipse>
      
      
      <circle cx="350" cy="175" r="6" fill="#ffe066">
        <animate attributeName="fill" values="#ffe066;#ffaa00;#ffe066" dur="3.5s" repeatCount="indefinite" />
      </circle>
      
      
      <ellipse cx="735" cy="58" rx="58" ry="48" fill="#6abf6a">
        <animate attributeName="fill" values="#6abf6a;#8fd98f;#6abf6a" dur="5s" repeatCount="indefinite" />
      </ellipse>
      
      
      <ellipse cx="400" cy="25" rx="250" ry="40" fill="#fff8dc" opacity="0.35">
        <animate attributeName="opacity" values="0.2;0.55;0.2" dur="6s" repeatCount="indefinite" />
      </ellipse>
    </g>
  </g>
</svg>