<svg xmlns="http://www.w3.org/2000/svg" id="background-root" viewBox="0 0 800 200">
  <defs>
    <linearGradient id="skyGrad" x1="0" y1="0" x2="0" y2="1">
      <stop offset="0%" stop-color="#6495ED" />
      <stop offset="40%" stop-color="#9bb8e8" />
      <stop offset="70%" stop-color="#f0b87a" />
      <stop offset="100%" stop-color="#f7c97a" />
    </linearGradient>
    <linearGradient id="oceanGrad" x1="0" y1="0" x2="0" y2="1">
      <stop offset="0%" stop-color="#2a7a9b" />
      <stop offset="50%" stop-color="#3a9ab8" />
      <stop offset="100%" stop-color="#4db8c7" />
    </linearGradient>
    <linearGradient id="sandGrad" x1="0" y1="0" x2="0" y2="1">
      <stop offset="0%" stop-color="#c9943a" />
      <stop offset="40%" stop-color="#d4a24a" />
      <stop offset="100%" stop-color="#c88b30" />
    </linearGradient>
    <linearGradient id="wetSandGrad" x1="0" y1="0" x2="0" y2="1">
      <stop offset="0%" stop-color="#a07830" />
      <stop offset="100%" stop-color="#b08838" />
    </linearGradient>
  </defs>
  <g id="background-main">
    
    <rect x="0" y="0" width="800" height="105" fill="url(#skyGrad)" />

    
    <ellipse cx="150" cy="30" rx="80" ry="8" fill="#f5d5c0" opacity="0.5" />
    <ellipse cx="180" cy="28" rx="50" ry="6" fill="#f8e0d0" opacity="0.4" />
    <ellipse cx="500" cy="22" rx="100" ry="7" fill="#f0cdb8" opacity="0.45" />
    <ellipse cx="540" cy="20" rx="60" ry="5" fill="#f5d8c5" opacity="0.35" />
    <ellipse cx="680" cy="40" rx="70" ry="9" fill="#f2c8b0" opacity="0.5" />
    <ellipse cx="320" cy="45" rx="90" ry="6" fill="#edc5a8" opacity="0.3" />

    
    <rect x="0" y="75" width="800" height="40" fill="url(#oceanGrad)" />

    
    <rect x="0" y="80" width="800" height="2" fill="#5cc8d8" opacity="0.4" />
    <rect x="0" y="88" width="800" height="1.5" fill="#4ab0c0" opacity="0.35" />
    <rect x="0" y="95" width="800" height="2" fill="#5dd0d8" opacity="0.3" />
    <rect x="0" y="102" width="800" height="1.5" fill="#60d5e0" opacity="0.25" />

    
    <rect x="100" y="82" width="200" height="3" rx="1.5" fill="#e8a840" opacity="0.35" />
    <rect x="350" y="78" width="180" height="2.5" rx="1.2" fill="#f0b848" opacity="0.3" />
    <rect x="580" y="85" width="150" height="2" rx="1" fill="#e8a840" opacity="0.25" />
    <rect x="50" y="92" width="120" height="2" rx="1" fill="#dda040" opacity="0.2" />
    <rect x="450" y="96" width="250" height="2.5" rx="1.2" fill="#e5a538" opacity="0.2" />

    
    <rect x="0" y="110" width="800" height="15" fill="url(#wetSandGrad)" />

    
    <rect x="0" y="120" width="800" height="80" fill="url(#sandGrad)" />

    
    <rect x="0" y="170" width="800" height="30" fill="#b88028" />
    <rect x="0" y="185" width="800" height="15" fill="#a87525" />

    
    <ellipse cx="400" cy="155" rx="130" ry="28" fill="#5ecfcf" />
    <ellipse cx="400" cy="155" rx="100" ry="20" fill="#c9943a" />

    
    <ellipse cx="400" cy="148" rx="120" ry="6" fill="#70d8d8" opacity="0.3" />

    
    
    <ellipse cx="120" cy="175" rx="5" ry="3.5" fill="#f0e0c0" />
    <ellipse cx="121" cy="174" rx="3" ry="2" fill="#f5ead5" opacity="0.7" />
    
    <ellipse cx="280" cy="185" rx="4" ry="3" fill="#e8d0a8" />
    <path d="M276 185 Q280 180 284 185" fill="none" stroke="#c8a878" stroke-width="0.5" />
    
    <ellipse cx="550" cy="178" rx="6" ry="4" fill="#f2dcc0" />
    <path d="M548 178 Q550 175 553 178 Q551 176 549 178" fill="#d8c0a0" opacity="0.6" />
    
    <ellipse cx="680" cy="170" rx="4" ry="2.5" fill="#edd8b8" />
    
    <ellipse cx="200" cy="168" rx="3" ry="2.5" fill="#888078" />
    
    <ellipse cx="450" cy="190" rx="4" ry="3" fill="#706860" />
    
    <ellipse cx="350" cy="180" rx="2.5" ry="2" fill="#989088" />
    
    <ellipse cx="620" cy="188" rx="3" ry="2" fill="#807870" />
    
    <ellipse cx="90" cy="192" rx="2" ry="1.5" fill="#a09888" />
    
    <ellipse cx="730" cy="185" rx="5" ry="3" fill="#f5e5d0" />
    <path d="M726 185 L730 181 L734 185" fill="none" stroke="#c8b090" stroke-width="0.5" />

    
    <g id="background-animated-part">
      
      <ellipse cx="400" cy="155" rx="128" ry="27" fill="#5ecfcf" opacity="0.6">
        <animate attributeName="fill" values="#5ecfcf;#a8eeee;#5ecfcf" dur="3s" repeatCount="indefinite" />
      </ellipse>
      <ellipse cx="400" cy="155" rx="100" ry="20" fill="#c9943a" />

      
      <rect x="80" y="78" width="640" height="30" rx="2" fill="#f0b848" opacity="0.3">
        <animate attributeName="opacity" values="0.3;0.8;0.3" dur="4s" repeatCount="indefinite" />
      </rect>

      
      <rect x="0" y="65" width="800" height="20" fill="#f7c97a" opacity="0.6">
        <animate attributeName="fill" values="#f7c97a;#f4a84a;#f7c97a" dur="5s" repeatCount="indefinite" />
      </rect>

      
      <ellipse cx="500" cy="22" rx="105" ry="9" fill="#ffcca8" opacity="0.6">
        <animate attributeName="opacity" values="0.6;1.0;0.6" dur="6s" repeatCount="indefinite" />
      </ellipse>
      <ellipse cx="150" cy="30" rx="85" ry="10" fill="#ffc8a0" opacity="0.6">
        <animate attributeName="opacity" values="0.6;1.0;0.6" dur="6s" begin="1s" repeatCount="indefinite" />
      </ellipse>

      
      <circle cx="160" cy="165" r="1.5" fill="#fff8e0" opacity="0.05">
        <animate attributeName="opacity" values="0.05;0.45;0.05" dur="2.8s" repeatCount="indefinite" />
      </circle>
      <circle cx="310" cy="175" r="1.2" fill="#fff8e0" opacity="0.05">
        <animate attributeName="opacity" values="0.05;0.45;0.05" dur="2.8s" begin="0.7s" repeatCount="indefinite" />
      </circle>
      <circle cx="480" cy="182" r="1.5" fill="#fff8e0" opacity="0.05">
        <animate attributeName="opacity" values="0.05;0.45;0.05" dur="2.8s" begin="1.4s" repeatCount="indefinite" />
      </circle>
      <circle cx="600" cy="170" r="1.3" fill="#fff8e0" opacity="0.05">
        <animate attributeName="opacity" values="0.05;0.45;0.05" dur="2.8s" begin="2.1s" repeatCount="indefinite" />
      </circle>
      <circle cx="250" cy="190" r="1.4" fill="#fff8e0" opacity="0.05">
        <animate attributeName="opacity" values="0.05;0.45;0.05" dur="2.8s" begin="0.4s" repeatCount="indefinite" />
      </circle>
      <circle cx="700" cy="178" r="1.2" fill="#fff8e0" opacity="0.05">
        <animate attributeName="opacity" values="0.05;0.45;0.05" dur="2.8s" begin="1.8s" repeatCount="indefinite" />
      </circle>
    </g>
  </g>
</svg>