<svg xmlns="http://www.w3.org/2000/svg" viewBox="0 0 64 64">
  <path
    d="M13 38c-3.8 0-6.5-2.7-6.5-6.3 0-3.5 2.6-6.2 6.1-6.3 1.5-7.5 7.8-13 16.2-13 5.3 0 10.3 2.3 13.6 6.3 1.1-.5 2.4-.8 3.8-.8 4.8 0 8.8 3.9 8.8 8.8 0 4.2-2.9 7.7-6.9 8.6-.8 5.9-5.9 10.4-12 10.4H24.7c-6.5 0-11.7-3.5-11.7-7.7z"
    fill="#87f0ff"
    stroke="#0f5963"
    stroke-linecap="round"
    stroke-linejoin="round"
    stroke-width="3"
  />
  <circle cx="25" cy="29" r="3.2" fill="#0f5963" />
  <circle cx="39" cy="27.5" r="3.6" fill="#0f5963" />
</svg>
